<svg width="24" height="24" viewBox="0 0 24 24" fill="none" xmlns="http://www.w3.org/2000/svg">
<path fill-rule="evenodd" clip-rule="evenodd" d="M15.0508 22H5.55932C4.61561 21.9991 3.7108 21.6238 3.04349 20.9565C2.37618 20.2892 2.0009 19.3844 2 18.4407V5.55932C2.0009 4.61561 2.37618 3.7108 3.04349 3.04349C3.7108 2.37618 4.61561 2.0009 5.55932 2H13.6949C13.9198 1.99997 14.1355 2.08894 14.2949 2.24746L18.3627 6.31525C18.5212 6.4747 18.6102 6.69041 18.6102 6.91525V8.27119C18.6102 8.49595 18.5209 8.7115 18.362 8.87043C18.203 9.02936 17.9875 9.11864 17.7627 9.11864H12.339C12.1142 9.11864 11.8987 9.02936 11.7397 8.87043C11.5808 8.7115 11.4915 8.49595 11.4915 8.27119V3.69492H5.55932C5.06513 3.69581 4.59143 3.89253 4.24198 4.24198C3.89253 4.59143 3.69581 5.06513 3.69492 5.55932V18.4407C3.69581 18.9349 3.89253 19.4086 4.24198 19.758C4.59143 20.1075 5.06513 20.3042 5.55932 20.3051H15.0508C15.2756 20.3051 15.4912 20.3944 15.6501 20.5533C15.809 20.7122 15.8983 20.9278 15.8983 21.1525C15.8983 21.3773 15.809 21.5929 15.6501 21.7518C15.4912 21.9107 15.2756 22 15.0508 22ZM13.1864 7.42373H16.9153V7.2678L13.3424 3.69492H13.1864V7.42373ZM13.3017 18.6102H11.8306C11.6058 18.6102 11.3902 18.5209 11.2313 18.362C11.0724 18.2031 10.9831 17.9875 10.9831 17.7627V11.5966C10.9831 11.3719 11.0724 11.1563 11.2313 10.9974C11.3902 10.8385 11.6058 10.7492 11.8306 10.7492H13.295C14.0589 10.7501 14.7912 11.0539 15.3314 11.5941C15.8716 12.1343 16.1754 12.8666 16.1763 13.6305V15.7288C16.1754 16.4916 15.8725 17.2229 15.3338 17.7629C14.7951 18.3029 14.0645 18.6075 13.3017 18.6102ZM12.6848 16.9153H13.3017C13.6164 16.9153 13.9182 16.7903 14.1407 16.5678C14.3632 16.3453 14.4882 16.0435 14.4882 15.7288V13.6305C14.4882 13.3159 14.3632 13.0141 14.1407 12.7916C13.9182 12.5691 13.6164 12.4441 13.3017 12.4441H12.6848V16.9153ZM5.63805 18.362C5.79698 18.5209 6.01253 18.6102 6.23729 18.6102C6.46205 18.6102 6.67761 18.5209 6.83653 18.362C6.99546 18.2031 7.08475 17.9875 7.08475 17.7627V15.5255H7.76272C8.39609 15.5255 9.00352 15.2739 9.45138 14.826C9.89924 14.3781 10.1509 13.7707 10.1509 13.1373C10.1509 12.5039 9.89924 11.8965 9.45138 11.4487C9.00352 11.0008 8.39609 10.7492 7.76272 10.7492H6.23729C6.01253 10.7492 5.79698 10.8385 5.63805 10.9974C5.47912 11.1563 5.38983 11.3719 5.38983 11.5966V17.7627C5.38983 17.9875 5.47912 18.2031 5.63805 18.362ZM7.76272 13.8305H7.08475V12.4441H7.76272C7.94657 12.4441 8.12289 12.5171 8.2529 12.6471C8.3829 12.7771 8.45594 12.9535 8.45594 13.1373C8.45594 13.3212 8.3829 13.4975 8.2529 13.6275C8.12289 13.7575 7.94657 13.8305 7.76272 13.8305ZM18.061 18.6102C17.8363 18.6102 17.6207 18.5209 17.4618 18.362C17.3028 18.2031 17.2136 17.9875 17.2136 17.7627V14.339V12.7187C17.2145 12.1966 17.4222 11.6962 17.7914 11.327C18.1606 10.9579 18.661 10.7501 19.1831 10.7492H20.7492C20.9739 10.7492 21.1895 10.8385 21.3484 10.9974C21.5073 11.1563 21.5966 11.3719 21.5966 11.5966C21.5966 11.8214 21.5073 12.037 21.3484 12.1959C21.1895 12.3548 20.9739 12.4441 20.7492 12.4441H19.1831C19.1102 12.4441 19.0404 12.473 18.9889 12.5245C18.9374 12.576 18.9085 12.6459 18.9085 12.7187V13.4916H20.7492C20.9739 13.4916 21.1895 13.5809 21.3484 13.7398C21.5073 13.8987 21.5966 14.1143 21.5966 14.339C21.5966 14.5638 21.5073 14.7794 21.3484 14.9383C21.1895 15.0972 20.9739 15.1865 20.7492 15.1865H18.9085V17.7627C18.9089 17.8742 18.8873 17.9846 18.8449 18.0876C18.8025 18.1906 18.74 18.2842 18.6613 18.363C18.5825 18.4418 18.4889 18.5042 18.3859 18.5466C18.2828 18.589 18.1724 18.6107 18.061 18.6102Z" fill="black"/>
</svg>
