<svg width="24" height="24" viewBox="0 0 24 24" fill="none" xmlns="http://www.w3.org/2000/svg">
<path fill-rule="evenodd" clip-rule="evenodd" d="M22.7721 7.73503C22.8438 7.66537 22.9009 7.58206 22.94 7.49C23.0171 7.3082 23.0194 7.10334 22.9464 6.91986C22.8734 6.73639 22.7309 6.58911 22.55 6.51L12.17 2H12.12L1 7L1.63 8.39L12.13 3.62L21.94 7.88C22.0311 7.92129 22.1295 7.94395 22.2295 7.94663C22.3295 7.94932 22.429 7.93198 22.5222 7.89564C22.6153 7.8593 22.7003 7.8047 22.7721 7.73503ZM8.49 11.2V16.68C8.49 16.8418 8.42573 16.9969 8.31134 17.1113C8.19694 17.2257 8.04178 17.29 7.88 17.29H7V10.58H7.9C8.05918 10.5877 8.20928 10.6564 8.31914 10.7719C8.429 10.8873 8.49019 11.0406 8.49 11.2ZM12.88 11.2V16.68C12.88 16.8418 12.8157 16.9969 12.7013 17.1113C12.5869 17.2257 12.4318 17.29 12.27 17.29H11.38V10.58H12.27C12.351 10.58 12.4311 10.5961 12.5058 10.6274C12.5804 10.6587 12.6481 10.7045 12.7049 10.7622C12.7617 10.8199 12.8064 10.8883 12.8365 10.9635C12.8665 11.0387 12.8813 11.1191 12.88 11.2ZM22.3703 21.8003C22.511 21.6597 22.59 21.4689 22.59 21.27C22.5874 21.0719 22.5075 20.8826 22.3674 20.7425C22.2274 20.6024 22.0381 20.5226 21.84 20.52H1.66998V22.02H21.84C22.0389 22.02 22.2297 21.941 22.3703 21.8003ZM17.07 11.2V16.68C17.07 16.8418 17.0057 16.9969 16.8913 17.1113C16.7769 17.2257 16.6218 17.29 16.46 17.29H15.57V10.58H16.46C16.541 10.58 16.6211 10.5961 16.6958 10.6274C16.7704 10.6587 16.8381 10.7045 16.8949 10.7622C16.9517 10.8199 16.9964 10.8883 17.0265 10.9635C17.0565 11.0387 17.0713 11.1191 17.07 11.2ZM3.27002 8.17V19.7H19.27C19.4958 19.704 19.7201 19.663 19.9298 19.5793C20.1395 19.4957 20.3305 19.3711 20.4915 19.2128C20.6526 19.0546 20.7805 18.8658 20.8678 18.6576C20.9551 18.4493 21.0001 18.2258 21 18V9.87C21 9.41913 20.8209 8.98673 20.5021 8.66792C20.1833 8.3491 19.7509 8.17 19.3 8.17H3.27002ZM19.48 18.17H4.77002V9.67H19.48V18.17ZM13.1749 6.79611C13.3106 6.58946 13.382 6.34721 13.38 6.09999C13.3787 5.93584 13.3451 5.77355 13.2811 5.6224C13.217 5.47124 13.1239 5.33417 13.0069 5.21903C12.8898 5.10388 12.7513 5.01291 12.5991 4.95131C12.447 4.8897 12.2842 4.85868 12.12 4.86C11.8728 4.86198 11.6317 4.93723 11.4273 5.07622C11.2228 5.21522 11.0642 5.41172 10.9714 5.64087C10.8786 5.87003 10.8559 6.12155 10.9061 6.36363C10.9562 6.60571 11.0771 6.82747 11.2533 7.00088C11.4295 7.17429 11.6532 7.29155 11.896 7.33785C12.1389 7.38414 12.39 7.35738 12.6176 7.26095C12.8453 7.16452 13.0392 7.00275 13.1749 6.79611Z" fill="black"/>
</svg>
