<?xml version="1.0" encoding="UTF-8" standalone="no"?>
<svg
   xmlns:dc="http://purl.org/dc/elements/1.1/"
   xmlns:cc="http://creativecommons.org/ns#"
   xmlns:rdf="http://www.w3.org/1999/02/22-rdf-syntax-ns#"
   xmlns:svg="http://www.w3.org/2000/svg"
   xmlns="http://www.w3.org/2000/svg"
   xmlns:sodipodi="http://sodipodi.sourceforge.net/DTD/sodipodi-0.dtd"
   xmlns:inkscape="http://www.inkscape.org/namespaces/inkscape"
   width="24"
   height="24"
   viewBox="0 0 24 24"
   fill="none"
   version="1.1"
   id="svg10"
   sodipodi:docname="in-busca-enriquecimento-color.svg"
   inkscape:version="1.0.2 (e86c870879, 2021-01-15)">
  <metadata
     id="metadata16">
    <rdf:RDF>
      <cc:Work
         rdf:about="">
        <dc:format>image/svg+xml</dc:format>
        <dc:type
           rdf:resource="http://purl.org/dc/dcmitype/StillImage" />
      </cc:Work>
    </rdf:RDF>
  </metadata>
  <defs
     id="defs14" />
  <sodipodi:namedview
     pagecolor="#ffffff"
     bordercolor="#666666"
     borderopacity="1"
     objecttolerance="10"
     gridtolerance="10"
     guidetolerance="10"
     inkscape:pageopacity="0"
     inkscape:pageshadow="2"
     inkscape:window-width="1920"
     inkscape:window-height="1016"
     id="namedview12"
     showgrid="false"
     inkscape:zoom="33.333333"
     inkscape:cx="12"
     inkscape:cy="12"
     inkscape:window-x="0"
     inkscape:window-y="0"
     inkscape:window-maximized="1"
     inkscape:current-layer="svg10" />
  <path
     id="path2"
     d="M 15.769531 7.0703125 L 15.769531 9 L 22.050781 9 C 22.307281 8.98716 22.547809 8.8756131 22.724609 8.6894531 C 22.901509 8.5032931 23.0003 8.25677 23 8 C 22.9987 7.87655 22.972228 7.754165 22.923828 7.640625 C 22.875328 7.527075 22.805097 7.4242506 22.716797 7.3378906 C 22.628597 7.2515306 22.524756 7.1827387 22.410156 7.1367188 C 22.295656 7.0906987 22.174281 7.0689925 22.050781 7.0703125 L 15.769531 7.0703125 z M 14.050781 9.8789062 L 14.050781 11.779297 L 22.050781 11.779297 C 22.298881 11.767197 22.533384 11.663881 22.708984 11.488281 C 22.884584 11.312681 22.9879 11.078078 23 10.830078 C 22.9879 10.581978 22.884584 10.347475 22.708984 10.171875 C 22.533384 9.996255 22.298881 9.8910262 22.050781 9.8789062 L 14.050781 9.8789062 z M 15.769531 12.689453 L 15.769531 14.589844 L 22.050781 14.589844 C 22.297181 14.577944 22.529678 14.476334 22.705078 14.302734 C 22.880478 14.129234 22.9855 13.896691 23 13.650391 C 22.9903 13.400591 22.886737 13.162075 22.710938 12.984375 C 22.535038 12.806675 22.300481 12.701853 22.050781 12.689453 L 15.769531 12.689453 z "
     style="fill:#00c65e;fill-opacity:1" />
  <path
     d="M16.61 16H19.61L19.25 16.42C17.8329 18.0294 15.8418 19.0196 13.7034 19.1785C11.5649 19.3374 9.44936 18.6523 7.81 17.27L2.81 21.34L1 19.08L6 15.08C4.98938 13.3082 4.67276 11.2242 5.11155 9.23211C5.55033 7.24006 6.71326 5.48193 8.3748 4.29867C10.0363 3.11541 12.0781 2.59135 14.1041 2.82811C16.1301 3.06486 17.996 4.04557 19.34 5.58004L19.7 5.99004H16.7H16.64C15.7173 5.32581 14.6249 4.9374 13.49 4.87004C12.6741 4.82129 11.8567 4.93593 11.0857 5.20725C10.3147 5.47856 9.60557 5.90108 9 6.45004C8.38976 7.01065 7.89829 7.68809 7.55474 8.44219C7.21119 9.19628 7.02255 10.0117 7 10.84C6.99021 11.6563 7.14249 12.4664 7.44804 13.2234C7.75359 13.9804 8.20632 14.6693 8.78 15.25C9.7946 16.2756 11.1365 16.9133 12.5725 17.0521C14.0085 17.191 15.4477 16.8223 16.64 16.01L16.61 16Z"
     fill="#07272D"
     id="path8" />
</svg>
