<?xml version="1.0" encoding="UTF-8" standalone="no"?>
<svg
   xmlns:dc="http://purl.org/dc/elements/1.1/"
   xmlns:cc="http://creativecommons.org/ns#"
   xmlns:rdf="http://www.w3.org/1999/02/22-rdf-syntax-ns#"
   xmlns:svg="http://www.w3.org/2000/svg"
   xmlns="http://www.w3.org/2000/svg"
   xmlns:sodipodi="http://sodipodi.sourceforge.net/DTD/sodipodi-0.dtd"
   xmlns:inkscape="http://www.inkscape.org/namespaces/inkscape"
   width="24"
   height="24"
   viewBox="0 0 24 24"
   fill="none"
   version="1.1"
   id="svg16"
   sodipodi:docname="in-bank-color.svg"
   inkscape:version="1.0.2 (e86c870879, 2021-01-15)">
  <metadata
     id="metadata22">
    <rdf:RDF>
      <cc:Work
         rdf:about="">
        <dc:format>image/svg+xml</dc:format>
        <dc:type
           rdf:resource="http://purl.org/dc/dcmitype/StillImage" />
      </cc:Work>
    </rdf:RDF>
  </metadata>
  <defs
     id="defs20" />
  <sodipodi:namedview
     pagecolor="#ffffff"
     bordercolor="#666666"
     borderopacity="1"
     objecttolerance="10"
     gridtolerance="10"
     guidetolerance="10"
     inkscape:pageopacity="0"
     inkscape:pageshadow="2"
     inkscape:window-width="1920"
     inkscape:window-height="1016"
     id="namedview18"
     showgrid="false"
     inkscape:zoom="33.333333"
     inkscape:cx="5.775"
     inkscape:cy="12"
     inkscape:window-x="0"
     inkscape:window-y="0"
     inkscape:window-maximized="1"
     inkscape:current-layer="svg16" />
  <path
     id="path2"
     d="M 3.2695312 8.1699219 L 3.2695312 19.699219 L 19.269531 19.699219 C 19.495331 19.703219 19.719987 19.663778 19.929688 19.580078 C 20.139388 19.496478 20.331187 19.371191 20.492188 19.212891 C 20.653288 19.054691 20.779888 18.866403 20.867188 18.658203 C 20.954488 18.449903 21.0001 18.2258 21 18 L 21 9.8691406 C 21 9.4182706 20.820753 8.9867788 20.501953 8.6679688 C 20.183153 8.3491487 19.751681 8.1699219 19.300781 8.1699219 L 3.2695312 8.1699219 z M 4.7695312 9.6699219 L 19.480469 9.6699219 L 19.480469 18.169922 L 4.7695312 18.169922 L 4.7695312 9.6699219 z M 7 10.580078 L 7 17.289062 L 7.8808594 17.289062 C 8.0426394 17.289062 8.1961469 17.225728 8.3105469 17.111328 C 8.4249369 16.996928 8.4902344 16.841487 8.4902344 16.679688 L 8.4902344 11.199219 C 8.4904244 11.039819 8.4282194 10.886884 8.3183594 10.771484 C 8.2084994 10.655984 8.0595706 10.587778 7.9003906 10.580078 L 7 10.580078 z M 11.380859 10.580078 L 11.380859 17.289062 L 12.269531 17.289062 C 12.431331 17.289062 12.586772 17.225728 12.701172 17.111328 C 12.815572 16.996928 12.880859 16.841487 12.880859 16.679688 L 12.880859 11.199219 C 12.882159 11.118319 12.865938 11.038091 12.835938 10.962891 C 12.805838 10.887691 12.761878 10.819419 12.705078 10.761719 C 12.648278 10.704019 12.580459 10.658253 12.505859 10.626953 C 12.431159 10.595653 12.350531 10.580078 12.269531 10.580078 L 11.380859 10.580078 z M 15.570312 10.580078 L 15.570312 17.289062 L 16.460938 17.289062 C 16.622637 17.289062 16.776225 17.225728 16.890625 17.111328 C 17.005025 16.996928 17.070312 16.841487 17.070312 16.679688 L 17.070312 11.199219 C 17.071612 11.118319 17.057444 11.038091 17.027344 10.962891 C 16.997344 10.887691 16.951331 10.819419 16.894531 10.761719 C 16.837731 10.704019 16.770012 10.658253 16.695312 10.626953 C 16.620713 10.595653 16.541837 10.580078 16.460938 10.580078 L 15.570312 10.580078 z "
     style="fill:#00c65e;fill-opacity:1" />
  <path
     id="path6"
     d="M 12.119141 2 L 1 7 L 1.6308594 8.390625 L 12.130859 3.6191406 L 21.939453 7.8808594 C 22.030553 7.9221494 22.130469 7.9445856 22.230469 7.9472656 C 22.330469 7.9499556 22.428284 7.9328244 22.521484 7.8964844 C 22.614584 7.8601444 22.699684 7.804045 22.771484 7.734375 C 22.843184 7.664715 22.900353 7.5822944 22.939453 7.4902344 C 23.016553 7.3084344 23.020266 7.1034019 22.947266 6.9199219 C 22.874266 6.7364519 22.731681 6.5888756 22.550781 6.5097656 L 12.169922 2 L 12.119141 2 z M 12.119141 4.859375 C 11.871941 4.861355 11.632234 4.9371819 11.427734 5.0761719 C 11.223334 5.2151719 11.063503 5.411475 10.970703 5.640625 C 10.877903 5.869785 10.85615 6.1212013 10.90625 6.3632812 C 10.95645 6.6053613 11.077706 6.82659 11.253906 7 C 11.430106 7.17341 11.653584 7.2915906 11.896484 7.3378906 C 12.139284 7.3841806 12.389488 7.3581487 12.617188 7.2617188 C 12.844788 7.1652888 13.040081 7.003515 13.175781 6.796875 C 13.311481 6.590225 13.382859 6.3468294 13.380859 6.0996094 C 13.379559 5.9354594 13.34535 5.7741969 13.28125 5.6230469 C 13.21725 5.4718869 13.124813 5.33389 13.007812 5.21875 C 12.890813 5.1036 12.751809 5.0127719 12.599609 4.9511719 C 12.447409 4.8895619 12.283241 4.858055 12.119141 4.859375 z M 1.6699219 20.519531 L 1.6699219 22.019531 L 21.839844 22.019531 C 22.038744 22.019531 22.230394 21.941481 22.371094 21.800781 C 22.511694 21.660181 22.589844 21.468431 22.589844 21.269531 C 22.587244 21.071431 22.507288 20.882288 22.367188 20.742188 C 22.227087 20.602088 22.037944 20.522131 21.839844 20.519531 L 1.6699219 20.519531 z "
     style="fill:#07272d;fill-opacity:1" />
</svg>
