<svg width="24" height="24" viewBox="0 0 24 24" fill="none" xmlns="http://www.w3.org/2000/svg">
<path fill-rule="evenodd" clip-rule="evenodd" d="M7.18885 2.96596C8.44319 1.70975 10.1448 1.00269 11.92 1.00004C13.697 0.965564 15.4148 1.63839 16.6957 2.8705C17.9766 4.10262 18.7155 5.79309 18.75 7.57004C18.7845 9.34699 18.1117 11.0649 16.8795 12.3457C15.6474 13.6266 13.957 14.3656 12.18 14.4H11.92C9.70891 14.4027 7.58914 15.2822 6.02566 16.8457C4.46218 18.4092 3.58265 20.5289 3.58001 22.74V23H1.33001V22.77C1.32571 21.3786 1.59749 20.0001 2.12962 18.7145C2.66174 17.4288 3.44363 16.2615 4.43001 15.28C5.40244 14.3086 6.55358 13.5344 7.82001 13C7.00853 12.3764 6.35242 11.5735 5.90309 10.654C5.45375 9.73447 5.22337 8.72343 5.23001 7.70004C5.23 5.92482 5.93452 4.22217 7.18885 2.96596ZM8.2151 5.22504C7.72733 5.95815 7.46803 6.81949 7.47001 7.70004C7.47528 8.87771 7.94613 10.0055 8.77981 10.8373C9.61349 11.6691 10.7423 12.1374 11.92 12.14C12.8006 12.14 13.6613 11.8788 14.3933 11.3894C15.1253 10.9 15.6957 10.2044 16.0322 9.39067C16.3687 8.57695 16.4563 7.68169 16.2838 6.81821C16.1112 5.95472 15.6864 5.16182 15.0631 4.53988C14.4397 3.91794 13.6459 3.4949 12.782 3.32433C11.9181 3.15376 11.0231 3.24331 10.2101 3.58166C9.39717 3.92 8.70287 4.49192 8.2151 5.22504ZM20.24 15.6H22.12L22.67 15.59L16.86 23L17.47 18.17H15.74H15.33L15.5 17.8L17.6 13L17.62 12.78H17.79H20.79H21.16L21.06 13.12L20.24 15.6ZM19.05 16.43L19.92 13.73H18.25L16.71 17.25H18.41L18 20.3L20.89 16.43H19.05Z" fill="black"/>
</svg>
