<svg width="24" height="24" viewBox="0 0 24 24" fill="none" xmlns="http://www.w3.org/2000/svg">
<path fill-rule="evenodd" clip-rule="evenodd" d="M10.3772 4.81741C11.9261 4.46747 13.5466 4.62757 14.997 5.27385C15.4098 5.45776 15.8934 5.27225 16.0774 4.8595C16.2613 4.44675 16.0758 3.96306 15.663 3.77915C13.8902 2.98925 11.9096 2.79357 10.0166 3.22128C8.12351 3.649 6.41942 4.67719 5.15845 6.15252C3.89749 7.62784 3.14721 9.47126 3.01951 11.4078C2.89181 13.3444 3.39354 15.2704 4.44986 16.8985C5.50619 18.5266 7.06051 19.7697 8.88102 20.4423C10.7015 21.1149 12.6907 21.1809 14.5518 20.6307C16.413 20.0804 18.0463 18.9432 19.2084 17.3888C20.3704 15.8344 20.9989 13.9455 21 12.0047V11.252C21 10.8001 20.6337 10.4338 20.1818 10.4338C19.7299 10.4338 19.3636 10.8001 19.3636 11.252V12.0042C19.3627 13.5921 18.8485 15.1372 17.8978 16.409C16.947 17.6808 15.6106 18.6112 14.0879 19.0614C12.5651 19.5117 10.9376 19.4576 9.44811 18.9073C7.9586 18.357 6.68688 17.34 5.82262 16.0079C4.95835 14.6758 4.54785 13.1 4.65233 11.5155C4.75681 9.93103 5.37067 8.42278 6.40237 7.2157C7.43407 6.00861 8.82832 5.16736 10.3772 4.81741ZM20.7606 6.0375C21.08 5.71782 21.0797 5.19978 20.76 4.88042C20.4403 4.56106 19.9223 4.56132 19.6029 4.881L11.9997 12.4919L10.124 10.6162C9.80443 10.2966 9.28639 10.2966 8.96687 10.6162C8.64735 10.9357 8.64735 11.4537 8.96687 11.7732L11.4214 14.2278C11.5749 14.3813 11.7831 14.4675 12.0002 14.4674C12.2172 14.4674 12.4254 14.3811 12.5788 14.2275L20.7606 6.0375Z" fill="black"/>
</svg>
