<svg width="24" height="24" viewBox="0 0 24 24" fill="none" xmlns="http://www.w3.org/2000/svg">
<path fill-rule="evenodd" clip-rule="evenodd" d="M7 3C7 2.44772 7.44772 2 8 2H16C16.5523 2 17 2.44772 17 3C17 3.55228 16.5523 4 16 4H8C7.44772 4 7 3.55228 7 3ZM5 7C5 6.44772 5.44772 6 6 6H18C18.5523 6 19 6.44772 19 7C19 7.55228 18.5523 8 18 8H6C5.44772 8 5 7.55228 5 7ZM5 13C5 12.4477 5.44772 12 6 12H18C18.5523 12 19 12.4477 19 13V19C19 19.5523 18.5523 20 18 20H6C5.44772 20 5 19.5523 5 19V13ZM6 10C4.34315 10 3 11.3431 3 13V19C3 20.6569 4.34315 22 6 22H18C19.6569 22 21 20.6569 21 19V13C21 11.3431 19.6569 10 18 10H6Z" fill="black"/>
</svg>
