<svg width="24" height="24" viewBox="0 0 24 24" fill="none" xmlns="http://www.w3.org/2000/svg">
<path fill-rule="evenodd" clip-rule="evenodd" d="M4.08445 4.08445C4.25494 3.91396 4.48617 3.81818 4.72727 3.81818H12.9091C13.1502 3.81818 13.3814 3.91396 13.5519 4.08445C13.7224 4.25494 13.8182 4.48617 13.8182 4.72727V5.63636C13.8182 6.13844 14.2252 6.54545 14.7273 6.54545C15.2294 6.54545 15.6364 6.13844 15.6364 5.63636V4.72727C15.6364 4.00395 15.349 3.31026 14.8376 2.7988C14.3261 2.28734 13.6324 2 12.9091 2H4.72727C4.00396 2 3.31026 2.28734 2.7988 2.7988C2.28734 3.31026 2 4.00396 2 4.72727V12.9091C2 13.6324 2.28734 14.3261 2.7988 14.8376C3.31026 15.349 4.00395 15.6364 4.72727 15.6364H5.63636C6.13844 15.6364 6.54545 15.2294 6.54545 14.7273C6.54545 14.2252 6.13844 13.8182 5.63636 13.8182H4.72727C4.48617 13.8182 4.25494 13.7224 4.08445 13.5519C3.91396 13.3814 3.81818 13.1502 3.81818 12.9091V4.72727C3.81818 4.48617 3.91396 4.25494 4.08445 4.08445ZM10.1818 11.0909C10.1818 10.5888 10.5888 10.1818 11.0909 10.1818H19.2727C19.7748 10.1818 20.1818 10.5888 20.1818 11.0909V19.2727C20.1818 19.7748 19.7748 20.1818 19.2727 20.1818H11.0909C10.5888 20.1818 10.1818 19.7748 10.1818 19.2727V11.0909ZM11.0909 8.36364C9.58463 8.36364 8.36358 9.58468 8.36358 11.0909V19.2727C8.36358 20.779 9.58463 22 11.0909 22H19.2727C20.7789 22 21.9999 20.779 21.9999 19.2727V11.0909C21.9999 9.58468 20.7789 8.36364 19.2727 8.36364H11.0909Z" fill="black"/>
</svg>
