<svg width="24" height="24" viewBox="0 0 24 24" fill="none" xmlns="http://www.w3.org/2000/svg">
<path fill-rule="evenodd" clip-rule="evenodd" d="M7.48595 2.49796C8.60297 1.70652 9.94107 1.28737 11.31 1.30009V1.33009C12.9771 1.38473 14.5596 2.07719 15.731 3.26459C16.9025 4.452 17.5734 6.04374 17.6055 7.71142C17.6376 9.3791 17.0283 10.9955 15.9034 12.227C14.7785 13.4586 13.2238 14.2114 11.56 14.3301H11.31C9.15726 14.3327 7.09344 15.1891 5.57122 16.7113C4.04899 18.2335 3.19265 20.2973 3.19 22.4501V22.7001H1V22.4501C1.00852 20.4282 1.61249 18.4537 2.73648 16.7731C3.86046 15.0924 5.45467 13.7801 7.32 13.0001C6.22854 12.1737 5.42535 11.0244 5.02464 9.71533C4.62393 8.40631 4.64608 7.00427 5.08795 5.70855C5.52982 4.41284 6.36892 3.2894 7.48595 2.49796ZM7.72974 5.40447C7.25395 6.11653 7 6.95369 7 7.81009C7.00264 8.95766 7.45968 10.0575 8.27114 10.8689C9.08261 11.6804 10.1824 12.1374 11.33 12.1401C12.1864 12.1401 13.0236 11.8861 13.7356 11.4103C14.4477 10.9346 15.0027 10.2583 15.3304 9.4671C15.6581 8.6759 15.7439 7.80528 15.5768 6.96534C15.4097 6.12541 14.9973 5.35387 14.3918 4.74831C13.7862 4.14275 13.0147 3.73036 12.1747 3.56329C11.3348 3.39621 10.4642 3.48196 9.67298 3.80969C8.88178 4.13741 8.20552 4.6924 7.72974 5.40447ZM19.07 15.4201L23 16.0001L20.15 18.7701L20.82 22.6901L17.3 20.8401L13.78 22.6901L14.46 18.7701L11.61 16.0001L15.55 15.4301L17.3 11.8701L19.07 15.4201ZM18.3 16.4301L17.3 14.3301L16.32 16.4401L14 16.7701L15.65 18.4001L15.26 20.7101L17.32 19.6201L17.78 19.8601L19.39 20.7101L19 18.4001L20.61 16.7601L18.3 16.4301Z" fill="black"/>
</svg>
