<svg width="24" height="24" viewBox="0 0 24 24" fill="none" xmlns="http://www.w3.org/2000/svg">
<path fill-rule="evenodd" clip-rule="evenodd" d="M1 14.43V1H11.67V14.43H1ZM2.39 2.39V13H10.27V2.39H2.39ZM11.67 23V15.59H1V23H2.4V16.99H10.27V23H11.67ZM23 1V7.09C23 7.44009 22.8609 7.77583 22.6134 8.02338C22.3658 8.27093 22.0301 8.41 21.68 8.41H13.68C13.3299 8.41 12.9942 8.27093 12.7466 8.02338C12.4991 7.77583 12.36 7.44009 12.36 7.09V1H13.76V7H21.64V1H23ZM12.33 21.65V10.92C12.3273 10.5663 12.4646 10.2259 12.7118 9.97304C12.9591 9.72015 13.2963 9.57528 13.65 9.57001H21.65C22.008 9.57001 22.3514 9.71224 22.6046 9.96541C22.8578 10.2186 23 10.562 23 10.92V21.65C22.9976 22.0021 22.8586 22.3396 22.6124 22.5914C22.3662 22.8432 22.032 22.9897 21.68 23H13.68C13.322 23 12.9786 22.8578 12.7254 22.6046C12.4722 22.3514 12.33 22.008 12.33 21.65ZM13.73 11V21.61H21.61V11H13.73Z" fill="black"/>
</svg>
