<svg width="24" height="24" viewBox="0 0 24 24" fill="none" xmlns="http://www.w3.org/2000/svg">
<path fill-rule="evenodd" clip-rule="evenodd" d="M4.8 15.2H1.2C0.537375 15.2 0 15.7374 0 16.4V20C0 20.6626 0.537375 21.2 1.2 21.2H4.8C5.46263 21.2 6 20.6626 6 20V16.4C6 15.7374 5.46263 15.2 4.8 15.2ZM3.5 12H11.1V14H12.9V12H20.5V14H21.9V11.8404C21.9 11.0465 21.2539 10.4 20.4596 10.4H12.9V8H14.4C15.0626 8 15.6 7.46263 15.6 6.8V3.2C15.6 2.53738 15.0626 2 14.4 2H9.6C8.93738 2 8.4 2.53738 8.4 3.2V6.8C8.4 7.46263 8.93738 8 9.6 8H11.1V10.4H3.54038C2.74613 10.4 2.1 11.0461 2.1 11.8404V14H3.5V12ZM13.8 15.2H10.2C9.53738 15.2 9 15.7374 9 16.4V20C9 20.6626 9.53738 21.2 10.2 21.2H13.8C14.4626 21.2 15 20.6626 15 20V16.4C15 15.7374 14.4626 15.2 13.8 15.2ZM22.8 15.2H19.2C18.5374 15.2 18 15.7374 18 16.4V20C18 20.6626 18.5374 21.2 19.2 21.2H22.8C23.4626 21.2 24 20.6626 24 20V16.4C24 15.7374 23.4626 15.2 22.8 15.2ZM9.75 3.5H14.125V6.5H9.75V3.5ZM22.5 16.75H19.5V19.75H22.5V16.75ZM10.5 16.75H13.5V19.75H10.5V16.75ZM4.5 16.75H1.5V19.75H4.5V16.75Z" fill="black"/>
</svg>
