<?xml version="1.0" encoding="UTF-8" standalone="no"?>
<svg
   xmlns:dc="http://purl.org/dc/elements/1.1/"
   xmlns:cc="http://creativecommons.org/ns#"
   xmlns:rdf="http://www.w3.org/1999/02/22-rdf-syntax-ns#"
   xmlns:svg="http://www.w3.org/2000/svg"
   xmlns="http://www.w3.org/2000/svg"
   xmlns:sodipodi="http://sodipodi.sourceforge.net/DTD/sodipodi-0.dtd"
   xmlns:inkscape="http://www.inkscape.org/namespaces/inkscape"
   width="24"
   height="24"
   viewBox="0 0 24 24"
   fill="none"
   version="1.1"
   id="svg8"
   sodipodi:docname="in-dolar-color.svg"
   inkscape:version="1.0.2 (e86c870879, 2021-01-15)">
  <metadata
     id="metadata14">
    <rdf:RDF>
      <cc:Work
         rdf:about="">
        <dc:format>image/svg+xml</dc:format>
        <dc:type
           rdf:resource="http://purl.org/dc/dcmitype/StillImage" />
      </cc:Work>
    </rdf:RDF>
  </metadata>
  <defs
     id="defs12" />
  <sodipodi:namedview
     pagecolor="#ffffff"
     bordercolor="#666666"
     borderopacity="1"
     objecttolerance="10"
     gridtolerance="10"
     guidetolerance="10"
     inkscape:pageopacity="0"
     inkscape:pageshadow="2"
     inkscape:window-width="1920"
     inkscape:window-height="1016"
     id="namedview10"
     showgrid="false"
     inkscape:zoom="33.333333"
     inkscape:cx="5.775"
     inkscape:cy="12"
     inkscape:window-x="0"
     inkscape:window-y="0"
     inkscape:window-maximized="1"
     inkscape:current-layer="svg8" />
  <path
     d="M12.88 1H11.12V23H12.88V1Z"
     fill="#00C65E"
     id="path2" />
  <path
     id="path4"
     d="M 12 3 C 10.8771 2.98922 9.7600588 3.1709525 8.6992188 3.5390625 C 7.7723188 3.8493725 6.9375412 4.3860394 6.2695312 5.0996094 C 5.6371912 5.8272194 5.3021881 6.7668887 5.3300781 7.7304688 C 5.3124581 8.4523687 5.4848881 9.1665212 5.8300781 9.8007812 C 6.1724481 10.390321 6.6532788 10.8871 7.2304688 11.25 C 7.8721787 11.6487 8.5638025 11.958222 9.2890625 12.169922 L 10.210938 12.410156 L 10.509766 12.490234 L 10.509766 10.660156 L 10.330078 10.599609 C 10.050078 10.529609 9.7907813 10.439141 9.5507812 10.369141 C 8.8910913 10.177841 8.2835869 9.8354706 7.7792969 9.3691406 C 7.5750369 9.1495606 7.4174931 8.8929581 7.3144531 8.6113281 C 7.2114131 8.3296881 7.1653575 8.0300187 7.1796875 7.7304688 C 7.1678875 7.4292987 7.2199181 7.1282062 7.3300781 6.8476562 C 7.4402281 6.5670963 7.6067425 6.3122994 7.8203125 6.0996094 C 8.3115325 5.6208894 8.9173781 5.2765294 9.5800781 5.0996094 C 11.163098 4.6576694 12.836822 4.6576694 14.419922 5.0996094 C 15.082622 5.2815194 15.680225 5.6498862 16.140625 6.1601562 C 16.364325 6.3754162 16.535531 6.6370244 16.644531 6.9277344 C 16.753631 7.2184344 16.796531 7.5305538 16.769531 7.8398438 C 16.769631 7.9629938 16.79565 8.0858488 16.84375 8.1992188 C 16.89185 8.3125888 16.962281 8.41433 17.050781 8.5 C 17.233281 8.66032 17.468037 8.7480469 17.710938 8.7480469 C 17.953837 8.7480469 18.186641 8.66032 18.369141 8.5 C 18.457941 8.40727 18.527566 8.2981244 18.572266 8.1777344 C 18.616966 8.0573344 18.637659 7.9290313 18.630859 7.8007812 C 18.677559 6.8391213 18.341719 5.8967075 17.699219 5.1796875 C 17.067419 4.4158175 16.238381 3.8411912 15.300781 3.5195312 C 14.236681 3.1667213 13.121 2.99152 12 3 z M 13.490234 11.400391 L 13.490234 13.199219 L 13.669922 13.199219 C 14.422222 13.379819 15.150444 13.6492 15.839844 14 C 16.233544 14.2004 16.560697 14.512584 16.779297 14.896484 C 16.997897 15.280384 17.098913 15.719356 17.070312 16.160156 C 17.086712 16.747756 16.879334 17.319166 16.490234 17.759766 C 16.012234 18.263366 15.407934 18.629912 14.740234 18.820312 C 13.848534 19.104712 12.916269 19.240303 11.980469 19.220703 C 10.679869 19.289603 9.38592 18.986809 8.25 18.349609 C 7.84895 18.103409 7.5176963 17.760663 7.2851562 17.351562 C 7.0526162 16.942462 6.9262719 16.480366 6.9199219 16.009766 L 6.9199219 15.720703 L 6.9199219 15.109375 L 5.0410156 15.109375 L 5.0410156 16.109375 C 5.0678056 16.832975 5.2579194 17.541287 5.5996094 18.179688 C 5.9382494 18.798988 6.41823 19.330769 7 19.730469 C 7.66461 20.171669 8.4026575 20.489522 9.1796875 20.669922 C 10.101447 20.901322 11.0497 21.0123 12 21 C 12.9398 21.0106 13.876163 20.902787 14.789062 20.679688 C 15.569163 20.499587 16.314234 20.188666 16.990234 19.759766 C 17.594334 19.369966 18.101203 18.847169 18.470703 18.230469 C 18.835403 17.595469 19.018 16.872725 19 16.140625 C 18.9983 15.445825 18.816403 14.762956 18.470703 14.160156 C 18.137103 13.585256 17.669475 13.098434 17.109375 12.740234 C 16.461875 12.336634 15.761897 12.024047 15.029297 11.810547 C 14.639297 11.690547 14.219063 11.570937 13.789062 11.460938 L 13.490234 11.400391 z "
     style="fill:#07272d;fill-opacity:1" />
</svg>
