<svg width="24" height="24" viewBox="0 0 24 24" fill="none" xmlns="http://www.w3.org/2000/svg">
<path d="M2 2V10.7037L7.44935 11.9825L2.09544 13.2518H2V21.6978L21.9555 13.5095C22.2618 13.382 22.5235 13.1668 22.7076 12.8908C22.8917 12.6148 22.99 12.2904 22.99 11.9587C22.99 11.6269 22.8917 11.3025 22.7076 11.0266C22.5235 10.7506 22.2618 10.5353 21.9555 10.4078L2 2ZM3.67966 9.37713V4.54812L21.3065 11.973L3.67966 19.207V14.607L11.0091 12.8796C11.1901 12.8109 11.346 12.6888 11.456 12.5294C11.5661 12.37 11.625 12.1809 11.625 11.9873C11.625 11.7936 11.5661 11.6045 11.456 11.4452C11.346 11.2858 11.1901 11.1636 11.0091 11.095L3.67966 9.37713Z" fill="black"/>
</svg>
