<svg width="24" height="24" viewBox="0 0 24 24" fill="none" xmlns="http://www.w3.org/2000/svg">
<path fill-rule="evenodd" clip-rule="evenodd" d="M12.5 2C12.8633 2 13.1951 2.20625 13.3559 2.53204L16.0836 8.05797L22.1835 8.94956C22.5429 9.0021 22.8414 9.25411 22.9534 9.59966C23.0655 9.94521 22.9717 10.3244 22.7114 10.5779L18.2984 14.8762L19.3399 20.9486C19.4013 21.3067 19.2541 21.6687 18.9601 21.8822C18.6661 22.0958 18.2764 22.1239 17.9548 21.9548L12.5 19.0862L7.04522 21.9548C6.72362 22.1239 6.33389 22.0958 6.03991 21.8822C5.74593 21.6687 5.5987 21.3067 5.66012 20.9486L6.70161 14.8762L2.28855 10.5779C2.02833 10.3244 1.93452 9.94521 2.04657 9.59966C2.15861 9.25411 2.45707 9.0021 2.81652 8.94956L8.9164 8.05797L11.6441 2.53204C11.8049 2.20625 12.1367 2 12.5 2ZM12.5 5.1111L10.4064 9.35249C10.2675 9.63393 9.99908 9.8291 9.68852 9.87449L5.00532 10.559L8.3933 13.8589C8.61845 14.0782 8.72122 14.3943 8.66809 14.7041L7.86873 19.3647L12.0557 17.1628C12.3338 17.0166 12.6662 17.0166 12.9443 17.1628L17.1313 19.3647L16.3319 14.7041C16.2788 14.3943 16.3815 14.0782 16.6067 13.8589L19.9947 10.559L15.3115 9.87449C15.0009 9.8291 14.7325 9.63393 14.5936 9.35249L12.5 5.1111Z" fill="black"/>
</svg>
