<svg width="24" height="24" viewBox="0 0 24 24" fill="none" xmlns="http://www.w3.org/2000/svg">
<path fill-rule="evenodd" clip-rule="evenodd" d="M4.63 5H21.53C21.9164 4.99996 22.2873 5.15209 22.5624 5.42346C22.8376 5.69483 22.9947 6.06361 23 6.45V17.55C22.9947 17.9364 22.8376 18.3052 22.5624 18.5765C22.2873 18.8479 21.9164 19 21.53 19H4.63V17.53H21.5V7.26L13.56 12.95L4.63 6.5V5ZM7.18 6.47L13.53 11.11L20 6.47H7.18ZM7.2733 10.8632C7.41208 10.7244 7.49004 10.5362 7.49004 10.34C7.49011 10.1418 7.41279 9.95147 7.27456 9.8095C7.13633 9.66754 6.94812 9.58517 6.75004 9.57996H2.29004V11.08H6.75004C6.9463 11.08 7.13452 11.002 7.2733 10.8632ZM7.2733 15.9732C7.41208 15.8344 7.49004 15.6462 7.49004 15.45C7.49004 15.2537 7.41208 15.0655 7.2733 14.9267C7.13452 14.7879 6.9463 14.71 6.75004 14.71H2.29004V16.19H6.75004C6.9463 16.19 7.13452 16.112 7.2733 15.9732ZM6.06 12.8199C6.07109 13.0024 6.01034 13.182 5.89074 13.3203C5.77114 13.4586 5.60219 13.5446 5.42 13.5599H1V12.0699H5.42C5.60404 12.0853 5.77457 12.1727 5.89445 12.3132C6.01432 12.4536 6.07383 12.6358 6.06 12.8199Z" fill="black"/>
</svg>
