<?xml version="1.0" encoding="UTF-8" standalone="no"?>
<svg
   xmlns:dc="http://purl.org/dc/elements/1.1/"
   xmlns:cc="http://creativecommons.org/ns#"
   xmlns:rdf="http://www.w3.org/1999/02/22-rdf-syntax-ns#"
   xmlns:svg="http://www.w3.org/2000/svg"
   xmlns="http://www.w3.org/2000/svg"
   xmlns:sodipodi="http://sodipodi.sourceforge.net/DTD/sodipodi-0.dtd"
   xmlns:inkscape="http://www.inkscape.org/namespaces/inkscape"
   width="24"
   height="24"
   viewBox="0 0 24 24"
   fill="none"
   version="1.1"
   id="svg8"
   sodipodi:docname="in-espelho-color.svg"
   inkscape:version="1.0.2 (e86c870879, 2021-01-15)">
  <metadata
     id="metadata14">
    <rdf:RDF>
      <cc:Work
         rdf:about="">
        <dc:format>image/svg+xml</dc:format>
        <dc:type
           rdf:resource="http://purl.org/dc/dcmitype/StillImage" />
      </cc:Work>
    </rdf:RDF>
  </metadata>
  <defs
     id="defs12" />
  <sodipodi:namedview
     pagecolor="#ffffff"
     bordercolor="#666666"
     borderopacity="1"
     objecttolerance="10"
     gridtolerance="10"
     guidetolerance="10"
     inkscape:pageopacity="0"
     inkscape:pageshadow="2"
     inkscape:window-width="1920"
     inkscape:window-height="1016"
     id="namedview10"
     showgrid="false"
     inkscape:zoom="23.570226"
     inkscape:cx="4.8281602"
     inkscape:cy="16.339115"
     inkscape:window-x="0"
     inkscape:window-y="0"
     inkscape:window-maximized="1"
     inkscape:current-layer="svg8" />
  <path
     d="M21.9999 4.66387V18.9457C21.9996 19.1352 21.9561 19.3222 21.8726 19.4923C21.7891 19.6625 21.6678 19.8113 21.5181 19.9275C21.3034 20.0824 21.0465 20.168 20.7818 20.173C20.6682 20.1712 20.5553 20.156 20.4454 20.1275L13.8545 18.3093V16.4911L20.3363 18.3548V5.25478L13.8181 7.06387V5.50933L20.3999 3.5366C20.5806 3.47691 20.7727 3.46036 20.9609 3.48829C21.1491 3.51623 21.3282 3.58785 21.4837 3.69744C21.6393 3.80702 21.767 3.95152 21.8566 4.11934C21.9463 4.28717 21.9953 4.47366 21.9999 4.66387Z"
     fill="#00C65E"
     id="path2" />
  <path
     id="path4"
     d="M 11.164062 2 L 11.164062 21.753906 L 12.835938 21.753906 L 12.835938 2 L 11.164062 2 z M 2 3.0273438 L 2 20.554688 L 10.144531 18.28125 L 10.144531 16.482422 L 3.671875 18.335938 L 3.671875 5.2539062 L 10.144531 7.0644531 L 10.136719 5.4648438 L 2 3.0273438 z "
     style="fill:#07272d;fill-opacity:1" />
</svg>
