<?xml version="1.0" encoding="UTF-8" standalone="no"?>
<svg
   xmlns:dc="http://purl.org/dc/elements/1.1/"
   xmlns:cc="http://creativecommons.org/ns#"
   xmlns:rdf="http://www.w3.org/1999/02/22-rdf-syntax-ns#"
   xmlns:svg="http://www.w3.org/2000/svg"
   xmlns="http://www.w3.org/2000/svg"
   xmlns:sodipodi="http://sodipodi.sourceforge.net/DTD/sodipodi-0.dtd"
   xmlns:inkscape="http://www.inkscape.org/namespaces/inkscape"
   width="24"
   height="24"
   viewBox="0 0 24 24"
   fill="none"
   version="1.1"
   id="svg6"
   sodipodi:docname="in-fone-saindo.svg"
   inkscape:version="1.0.2 (e86c870879, 2021-01-15)">
  <metadata
     id="metadata12">
    <rdf:RDF>
      <cc:Work
         rdf:about="">
        <dc:format>image/svg+xml</dc:format>
        <dc:type
           rdf:resource="http://purl.org/dc/dcmitype/StillImage" />
      </cc:Work>
    </rdf:RDF>
  </metadata>
  <defs
     id="defs10" />
  <sodipodi:namedview
     pagecolor="#ffffff"
     bordercolor="#666666"
     borderopacity="1"
     objecttolerance="10"
     gridtolerance="10"
     guidetolerance="10"
     inkscape:pageopacity="0"
     inkscape:pageshadow="2"
     inkscape:window-width="1920"
     inkscape:window-height="1016"
     id="namedview8"
     showgrid="false"
     inkscape:zoom="8.3333333"
     inkscape:cx="17.000182"
     inkscape:cy="18.511511"
     inkscape:window-x="0"
     inkscape:window-y="0"
     inkscape:window-maximized="1"
     inkscape:current-layer="svg6" />
  <path
     id="path2"
     d="M 16.580078 1 C 16.029878 1 15.664063 1.3677488 15.664062 1.9179688 C 15.664062 2.4681887 16.029878 2.8339844 16.580078 2.8339844 L 20.431641 2.8339844 L 15.388672 7.8769531 C 15.113572 8.1520631 15.113572 8.7035025 15.388672 9.0703125 C 15.572172 9.1620125 15.84785 9.2539062 16.03125 9.2539062 C 16.21465 9.2539062 16.488378 9.1619156 16.580078 8.9785156 L 21.166016 4.3925781 L 21.166016 7.4199219 C 21.166016 7.9701419 21.531831 8.3359375 22.082031 8.3359375 C 22.632231 8.3359375 23 7.9701419 23 7.4199219 L 23 1.9179688 C 23 1.3677488 22.632231 1 22.082031 1 L 16.580078 1 z M 4.4765625 1.9179688 C 3.7429425 2.0096687 3.1010981 2.3755713 2.6425781 2.9257812 C 2.1840681 3.4760012 2 4.2097394 2 4.9433594 C 2.27511 7.8778594 3.2829338 10.813063 4.9335938 13.289062 C 6.4008438 15.581663 8.4183475 17.599206 10.710938 19.066406 C 13.186937 20.625406 16.122141 21.6332 19.056641 22 L 19.332031 22 C 20.065631 22 20.707612 21.632328 21.257812 21.173828 C 21.808113 20.715328 22.082031 19.981647 22.082031 19.248047 L 22.082031 16.498047 C 22.082031 15.122547 21.074719 13.929494 19.699219 13.746094 C 18.873919 13.654394 18.048053 13.472366 17.314453 13.197266 C 16.305753 12.830466 15.114459 13.104291 14.380859 13.837891 L 13.738281 14.480469 C 11.995881 13.380069 10.619981 11.912419 9.5195312 10.261719 L 10.162109 9.6191406 C 10.895709 8.7938106 11.169534 7.6942769 10.802734 6.6855469 C 10.527634 5.9519169 10.345606 5.1261113 10.253906 4.3007812 C 10.070506 2.9252313 8.8775031 1.9179688 7.5019531 1.9179688 L 4.7519531 1.9179688 L 4.4765625 1.9179688 z M 4.7519531 3.7519531 L 7.5019531 3.7519531 C 7.9604731 3.7519531 8.4199219 4.1176519 8.4199219 4.5761719 C 8.6033319 5.4932019 8.7855338 6.411095 9.1523438 7.328125 C 9.2440438 7.603235 9.15216 8.0607406 8.96875 8.2441406 L 7.7773438 9.4375 C 7.5022337 9.71261 7.4102531 10.170309 7.5019531 10.537109 C 8.8775031 13.013109 10.895094 15.03075 13.371094 16.40625 C 13.737894 16.58965 14.195603 16.497756 14.470703 16.222656 L 15.664062 15.03125 C 15.939163 14.75615 16.305075 14.755956 16.671875 14.847656 C 17.588875 15.214456 18.506728 15.488378 19.423828 15.580078 C 19.882328 15.671778 20.248047 16.039547 20.248047 16.498047 L 20.248047 19.248047 C 20.248047 19.523147 20.158009 19.707225 19.974609 19.890625 C 19.791209 20.074025 19.607034 20.166016 19.240234 20.166016 C 16.580834 19.890916 14.013303 18.973159 11.720703 17.505859 C 9.6115531 16.222059 7.8696906 14.388397 6.4941406 12.279297 C 5.0268906 9.9866969 4.1090944 7.4191456 3.8339844 4.7597656 C 3.8339844 4.4846556 3.9258681 4.3005975 4.0175781 4.1171875 C 4.2009781 3.9337875 4.4768431 3.7519531 4.7519531 3.7519531 z "
     style="fill:#000000" />
</svg>
