<?xml version="1.0" encoding="UTF-8" standalone="no"?>
<svg
   xmlns:dc="http://purl.org/dc/elements/1.1/"
   xmlns:cc="http://creativecommons.org/ns#"
   xmlns:rdf="http://www.w3.org/1999/02/22-rdf-syntax-ns#"
   xmlns:svg="http://www.w3.org/2000/svg"
   xmlns="http://www.w3.org/2000/svg"
   xmlns:sodipodi="http://sodipodi.sourceforge.net/DTD/sodipodi-0.dtd"
   xmlns:inkscape="http://www.inkscape.org/namespaces/inkscape"
   width="24"
   height="24"
   viewBox="0 0 24 24"
   fill="none"
   version="1.1"
   id="svg6"
   sodipodi:docname="in-flag.svg"
   inkscape:version="1.0.2 (e86c870879, 2021-01-15)">
  <metadata
     id="metadata12">
    <rdf:RDF>
      <cc:Work
         rdf:about="">
        <dc:format>image/svg+xml</dc:format>
        <dc:type
           rdf:resource="http://purl.org/dc/dcmitype/StillImage" />
      </cc:Work>
    </rdf:RDF>
  </metadata>
  <defs
     id="defs10" />
  <sodipodi:namedview
     pagecolor="#ffffff"
     bordercolor="#666666"
     borderopacity="1"
     objecttolerance="10"
     gridtolerance="10"
     guidetolerance="10"
     inkscape:pageopacity="0"
     inkscape:pageshadow="2"
     inkscape:window-width="1920"
     inkscape:window-height="1016"
     id="namedview8"
     showgrid="false"
     inkscape:zoom="11.785113"
     inkscape:cx="-14.397597"
     inkscape:cy="4.4656884"
     inkscape:window-x="0"
     inkscape:window-y="0"
     inkscape:window-maximized="1"
     inkscape:current-layer="svg6" />
  <path
     id="path2"
     d="M 8 1 C 6.49997 1 5.49998 1.25001 4.875 1.5 C 4.75528 1.54789 4.6499906 1.5962981 4.5566406 1.6425781 C 4.2161906 1.8113581 4 2.1571094 4 2.5371094 L 4 10 L 4 12.396484 L 4 21 C 4 21.5523 4.44772 22 5 22 C 5.55228 22 6 21.5523 6 21 L 6 13.197266 C 6.5440244 13.086996 7.1714186 13 8 13 C 9.47695 13 10.713259 13.486316 11.943359 13.978516 L 12.001953 14 C 13.249853 14.4992 14.5 15 16 15 C 17.5 15 18.5 14.75 19.125 14.5 C 19.2447 14.4521 19.349959 14.403722 19.443359 14.357422 C 19.783759 14.188622 20 13.840938 20 13.460938 L 20 3.6035156 C 20 3.2861156 19.84905 2.9873581 19.59375 2.7988281 C 19.33835 2.6102981 19.008478 2.5550075 18.705078 2.6484375 C 18.082078 2.8403575 17.202 3 16 3 C 14.5231 3 13.286741 2.5136744 12.056641 2.0214844 L 11.998047 2 C 10.750147 1.50086 9.5 1 8 1 z M 8 3 C 9.06075 3 9.9700425 3.3423119 11.257812 3.8574219 L 11.3125 3.8789062 C 11.3272 3.8847763 11.342622 3.8905644 11.357422 3.8964844 C 12.559322 4.3775044 14.1132 5 16 5 C 16.7533 5 17.4171 4.9450356 18 4.8535156 L 18 12.769531 C 17.5766 12.886831 16.9292 13 16 13 C 14.9393 13 14.029887 12.657778 12.742188 12.142578 L 12.6875 12.121094 C 12.6728 12.115194 12.657378 12.109416 12.642578 12.103516 C 11.440678 11.622516 9.88675 11 8 11 C 7.24675 11 6.5829 11.054884 6 11.146484 L 6 10 L 6 3.2304688 C 6.42339 3.1132087 7.07082 3 8 3 z "
     style="fill:#000000" />
</svg>
