<svg width="24" height="24" viewBox="0 0 24 24" fill="none" xmlns="http://www.w3.org/2000/svg">
<path fill-rule="evenodd" clip-rule="evenodd" d="M19.322 9.77967H4.67797C4.49816 9.77967 4.32571 9.70824 4.19857 9.5811C4.07143 9.45395 4 9.28151 4 9.1017C4 8.92189 4.07143 8.74945 4.19857 8.62231C4.32571 8.49516 4.49816 8.42374 4.67797 8.42374H19.322C19.5018 8.42374 19.6743 8.49516 19.8014 8.62231C19.9286 8.74945 20 8.92189 20 9.1017C20 9.28151 19.9286 9.45395 19.8014 9.5811C19.6743 9.70824 19.5018 9.77967 19.322 9.77967ZM14.7119 16.4915H9.2882C9.10839 16.4915 8.93594 16.4201 8.8088 16.293C8.68166 16.1658 8.61023 15.9934 8.61023 15.8136C8.61023 15.6337 8.68166 15.4613 8.8088 15.3342C8.93594 15.207 9.10839 15.1356 9.2882 15.1356H14.7119C14.8917 15.1356 15.0642 15.207 15.1913 15.3342C15.3185 15.4613 15.3899 15.6337 15.3899 15.8136C15.3899 15.9934 15.3185 16.1658 15.1913 16.293C15.0642 16.4201 14.8917 16.4915 14.7119 16.4915ZM6.98302 13.1356H17.0169C17.1967 13.1356 17.3692 13.0642 17.4963 12.937C17.6235 12.8099 17.6949 12.6374 17.6949 12.4576C17.6949 12.2778 17.6235 12.1054 17.4963 11.9782C17.3692 11.8511 17.1967 11.7797 17.0169 11.7797H6.98302C6.80321 11.7797 6.63077 11.8511 6.50363 11.9782C6.37648 12.1054 6.30505 12.2778 6.30505 12.4576C6.30505 12.6374 6.37648 12.8099 6.50363 12.937C6.63077 13.0642 6.80321 13.1356 6.98302 13.1356Z" fill="black"/>
</svg>
