<svg width="24" height="24" viewBox="0 0 24 24" fill="none" xmlns="http://www.w3.org/2000/svg">
<path fill-rule="evenodd" clip-rule="evenodd" d="M19.4119 7.52685C19.6999 7.95264 19.9479 8.41043 20.1488 8.88599C20.3515 9.36333 20.5088 9.86823 20.6155 10.3874C20.723 10.9154 20.7782 11.4576 20.7782 11.9998C20.7782 12.5421 20.723 13.0843 20.6155 13.6105C20.5088 14.1314 20.3515 14.6363 20.1488 15.1146C19.9479 15.5892 19.6999 16.047 19.411 16.4737C19.1248 16.8968 18.7968 17.2951 18.435 17.6568C18.0732 18.0186 17.6759 18.3466 17.2527 18.6329C16.8225 18.9235 16.3647 19.1715 15.8918 19.3715C15.4083 19.576 14.9025 19.7324 14.3896 19.8373C13.8651 19.9449 13.322 20 12.778 20C12.234 20 11.6917 19.9449 11.1664 19.8373C10.6535 19.7324 10.1477 19.5751 9.66414 19.3707C9.19302 19.1715 8.73523 18.9235 8.30589 18.6337C7.88188 18.3475 7.48365 18.0195 7.12186 17.6568L8.37878 16.3999C8.66145 16.6817 8.97079 16.9377 9.30058 17.1599C9.63392 17.3857 9.99037 17.5786 10.3566 17.7333C10.7326 17.8924 11.1246 18.0142 11.5237 18.096C12.3424 18.264 13.2171 18.2631 14.0331 18.096C14.4314 18.0142 14.8242 17.8924 15.2003 17.7333C15.5683 17.5777 15.9229 17.3839 16.2572 17.1591C16.5852 16.9368 16.8963 16.6808 17.1781 16.399C17.4599 16.1181 17.715 15.8079 17.9372 15.4781C18.1621 15.1457 18.355 14.791 18.5114 14.4212C18.6697 14.0497 18.7906 13.6576 18.8741 13.2532C18.9577 12.8452 19.0003 12.423 19.0003 11.9998C19.0003 11.5767 18.9577 11.1545 18.8741 10.7429C18.7906 10.3402 18.6697 9.94824 18.5114 9.57756C18.355 9.20689 18.1621 8.85132 17.9381 8.52065C17.715 8.18998 17.4599 7.87975 17.1781 7.59885C16.8963 7.31707 16.5852 7.06106 16.2563 6.83795C15.9229 6.61394 15.5674 6.42016 15.2003 6.26549C14.8242 6.10638 14.4305 5.9846 14.0331 5.90282C13.2162 5.7357 12.3406 5.73481 11.5237 5.90282C11.1237 5.9846 10.7308 6.10638 10.3566 6.26549C9.98948 6.42105 9.63303 6.61394 9.2988 6.83973C8.9699 7.06195 8.65967 7.31707 8.37789 7.59974C8.09611 7.88241 7.8401 8.19175 7.61788 8.52154C7.39209 8.85488 7.1992 9.21133 7.04453 9.57756C6.88542 9.95357 6.76363 10.3456 6.68186 10.7447C6.5983 11.1536 6.55563 11.5758 6.55563 11.9998C6.55563 12.0034 6.55585 12.0072 6.55607 12.0109C6.5563 12.0147 6.55652 12.0185 6.55652 12.0221H8.33345L5.66672 15.5555L3 12.0221H4.7787C4.7787 12.0185 4.77848 12.0147 4.77826 12.0109C4.77804 12.0072 4.77782 12.0034 4.77782 11.9998C4.77782 11.4558 4.83293 10.9136 4.94049 10.3874C5.04538 9.87446 5.20271 9.36867 5.40716 8.8851C5.60628 8.41398 5.85428 7.95708 6.14407 7.52685C6.43029 7.10373 6.75919 6.70461 7.12098 6.34283C7.48276 5.98104 7.88188 5.65215 8.30589 5.36592C8.73612 5.07524 9.19302 4.82813 9.66503 4.62812C10.1477 4.42456 10.6526 4.26723 11.1673 4.16234C12.218 3.94544 13.3407 3.94633 14.3905 4.16234C14.9025 4.26723 15.4083 4.42456 15.8927 4.62901C16.3647 4.82902 16.8225 5.07613 17.251 5.36592C17.6759 5.65303 18.0723 5.98015 18.435 6.34194C18.7977 6.70372 19.1257 7.10195 19.4119 7.52685ZM11.8891 12.8887V8.44419H13.6669V11.1109H16.3337V12.8887H11.8891Z" fill="black"/>
</svg>
