<?xml version="1.0" encoding="UTF-8" standalone="no"?>
<svg
   width="24"
   height="24"
   viewBox="0 0 24 24"
   fill="none"
   version="1.1"
   id="svg370"
   sodipodi:docname="in-headset.svg"
   inkscape:version="1.1 (1:1.1+202105261517+ce6663b3b7)"
   xmlns:inkscape="http://www.inkscape.org/namespaces/inkscape"
   xmlns:sodipodi="http://sodipodi.sourceforge.net/DTD/sodipodi-0.dtd"
   xmlns="http://www.w3.org/2000/svg"
   xmlns:svg="http://www.w3.org/2000/svg">
  <defs
     id="defs374" />
  <sodipodi:namedview
     id="namedview372"
     pagecolor="#ffffff"
     bordercolor="#666666"
     borderopacity="1.0"
     inkscape:pageshadow="2"
     inkscape:pageopacity="0.0"
     inkscape:pagecheckerboard="0"
     showgrid="false"
     inkscape:zoom="24.306796"
     inkscape:cx="19.315586"
     inkscape:cy="14.09071"
     inkscape:window-width="1920"
     inkscape:window-height="1014"
     inkscape:window-x="0"
     inkscape:window-y="0"
     inkscape:window-maximized="1"
     inkscape:current-layer="svg370" />
  <path
     id="path368"
     style="fill:#000000"
     d="M 10.908203 2 C 6.6907332 2 3.2734375 5.4192787 3.2734375 9.6367188 L 2.1816406 9.6367188 C 0.97665364 9.6367188 2.9605947e-16 10.613359 0 11.818359 L 0 16.181641 C 0 17.386641 0.97665364 18.363281 2.1816406 18.363281 L 5.4550781 18.363281 L 5.4550781 9.6367188 C 5.4550881 6.6242688 7.8957132 4.1816406 10.908203 4.1816406 L 13.091797 4.1816406 C 16.104197 4.1816406 18.544922 6.6242587 18.544922 9.6367188 L 18.544922 17.273438 C 18.544922 18.478438 17.568281 19.455078 16.363281 19.455078 L 14.980469 19.455078 C 14.603269 18.802978 13.899397 18.363281 13.091797 18.363281 C 11.886797 18.363281 10.910156 19.339922 10.910156 20.544922 C 10.910156 21.749922 11.886797 22.726562 13.091797 22.726562 C 13.899397 22.726562 14.603269 22.288919 14.980469 21.636719 L 16.363281 21.636719 C 18.396581 21.636719 20.105444 20.245381 20.589844 18.363281 L 21.818359 18.363281 C 23.023359 18.363281 24 17.386641 24 16.181641 L 24 11.818359 C 24 10.613359 23.023359 9.6367187 21.818359 9.6367188 L 20.726562 9.6367188 C 20.726562 5.4192787 17.309197 2 13.091797 2 L 10.908203 2 z M 2.1816406 11.818359 L 3.2734375 11.818359 L 3.2734375 16.181641 L 2.1816406 16.181641 L 2.1816406 11.818359 z M 20.726562 11.818359 L 21.818359 11.818359 L 21.818359 16.181641 L 20.726562 16.181641 L 20.726562 11.818359 z " />
</svg>
