<svg width="24" height="24" viewBox="0 0 24 24" fill="none" xmlns="http://www.w3.org/2000/svg">
<path d="M12 15.06C10.2529 15.0686 8.53937 14.5795 7.06 13.65C6.97424 13.5952 6.90019 13.5239 6.84215 13.4403C6.7841 13.3568 6.7432 13.2625 6.72181 13.163C6.70042 13.0635 6.69897 12.9607 6.71754 12.8607C6.73611 12.7606 6.77433 12.6652 6.83 12.58C6.88305 12.4938 6.95279 12.419 7.03513 12.3601C7.11747 12.3012 7.21076 12.2593 7.3095 12.237C7.40825 12.2146 7.51046 12.2122 7.61015 12.2299C7.70984 12.2476 7.80498 12.285 7.89 12.34C9.12783 13.0954 10.5499 13.495 12 13.495C13.4501 13.495 14.8722 13.0954 16.11 12.34C16.195 12.285 16.2902 12.2476 16.3899 12.2299C16.4895 12.2122 16.5918 12.2146 16.6905 12.237C16.7892 12.2593 16.8825 12.3012 16.9649 12.3601C17.0472 12.419 17.117 12.4938 17.17 12.58C17.2257 12.6652 17.2639 12.7606 17.2825 12.8607C17.301 12.9607 17.2996 13.0635 17.2782 13.163C17.2568 13.2625 17.2159 13.3568 17.1579 13.4403C17.0998 13.5239 17.0258 13.5952 16.94 13.65C15.4606 14.5795 13.7471 15.0686 12 15.06ZM14 17L19 19L21 20V20.38C21.0012 20.5513 20.9584 20.7201 20.8756 20.8701C20.7928 21.0201 20.6729 21.1463 20.5274 21.2366C20.3818 21.327 20.2155 21.3784 20.0444 21.386C19.8732 21.3936 19.703 21.3571 19.55 21.28L13 19H5.89C5.12352 19 4.38844 18.6955 3.84646 18.1535C3.30448 17.6116 3 16.8765 3 16.11V4.89C3 4.12352 3.30448 3.38844 3.84646 2.84646C4.38844 2.30448 5.12352 2 5.89 2H18.11C19.71 2 21 3.29 21 3.89V20L19 19V5.22C19 5.05979 18.9684 4.90114 18.9071 4.75313C18.8458 4.60511 18.756 4.47062 18.6427 4.35733C18.5294 4.24404 18.3949 4.15418 18.2469 4.09287C18.0989 4.03156 17.9402 4 17.78 4H6.22C6.05979 4 5.90114 4.03156 5.75313 4.09287C5.60511 4.15418 5.47062 4.24404 5.35733 4.35733C5.24404 4.47062 5.15418 4.60511 5.09287 4.75313C5.03156 4.90114 5 5.05979 5 5.22V15.78C5 16.454 5.546 17 6.22 17H14Z" fill="black"/>
</svg>
