<svg width="24" height="24" viewBox="0 0 24 24" fill="none" xmlns="http://www.w3.org/2000/svg">
<path d="M7.75 5.125V2.625C7.75 2.45924 7.68415 2.30027 7.56694 2.18306C7.44973 2.06585 7.29076 2 7.125 2L4.625 2C4.45924 2 4.30027 2.06585 4.18306 2.18306C4.06585 2.30027 4 2.45924 4 2.625V5.125C4 5.29076 4.06585 5.44973 4.18306 5.56694C4.30027 5.68415 4.45924 5.75 4.625 5.75L7.125 5.75C7.29076 5.75 7.44973 5.68415 7.56694 5.56694C7.68415 5.44973 7.75 5.29076 7.75 5.125ZM20.25 5.125V2.625C20.25 2.45924 20.1842 2.30027 20.0669 2.18306C19.9497 2.06585 19.7908 2 19.625 2L17.125 2C16.9592 2 16.8003 2.06585 16.6831 2.18306C16.5658 2.30027 16.5 2.45924 16.5 2.625V5.125C16.5 5.29076 16.5658 5.44973 16.6831 5.56694C16.8003 5.68415 16.9592 5.75 17.125 5.75H19.625C19.7908 5.75 19.9497 5.68415 20.0669 5.56694C20.1842 5.44973 20.25 5.29076 20.25 5.125ZM14 5.125V2.625C14 2.45924 13.9342 2.30027 13.8169 2.18306C13.6997 2.06585 13.5408 2 13.375 2L10.875 2C10.7092 2 10.5503 2.06585 10.4331 2.18306C10.3158 2.30027 10.25 2.45924 10.25 2.625V5.125C10.25 5.29076 10.3158 5.44973 10.4331 5.56694C10.5503 5.68415 10.7092 5.75 10.875 5.75H13.375C13.5408 5.75 13.6997 5.68415 13.8169 5.56694C13.9342 5.44973 14 5.29076 14 5.125ZM7.125 18.0417L7.125 8.875C7.125 8.70924 7.05915 8.55027 6.94194 8.43306C6.82473 8.31585 6.66576 8.25 6.5 8.25H5.25C5.08424 8.25 4.92527 8.31585 4.80806 8.43306C4.69085 8.55027 4.625 8.70924 4.625 8.875L4.625 18.0417C4.625 18.2074 4.69085 18.3664 4.80806 18.4836C4.92527 18.6008 5.08424 18.6667 5.25 18.6667H6.5C6.66576 18.6667 6.82473 18.6008 6.94194 18.4836C7.05915 18.3664 7.125 18.2074 7.125 18.0417ZM19.625 15.5417L19.625 8.875C19.625 8.70924 19.5592 8.55027 19.4419 8.43306C19.3247 8.31585 19.1658 8.25 19 8.25H17.75C17.5842 8.25 17.4253 8.31585 17.3081 8.43306C17.1908 8.55027 17.125 8.70924 17.125 8.875L17.125 15.5417C17.125 15.7074 17.1908 15.8664 17.3081 15.9836C17.4253 16.1008 17.5842 16.1667 17.75 16.1667H19C19.1658 16.1667 19.3247 16.1008 19.4419 15.9836C19.5592 15.8664 19.625 15.7074 19.625 15.5417ZM13.375 21.375L13.375 8.875C13.375 8.70924 13.3092 8.55027 13.1919 8.43306C13.0747 8.31585 12.9158 8.25 12.75 8.25H11.5C11.3342 8.25 11.1753 8.31585 11.0581 8.43306C10.9408 8.55027 10.875 8.70924 10.875 8.875L10.875 21.375C10.875 21.5408 10.9408 21.6997 11.0581 21.8169C11.1753 21.9342 11.3342 22 11.5 22H12.75C12.9158 22 13.0747 21.9342 13.1919 21.8169C13.3092 21.6997 13.375 21.5408 13.375 21.375Z" fill="black"/>
</svg>
