<?xml version="1.0" encoding="UTF-8" standalone="no"?>
<svg
   xmlns:dc="http://purl.org/dc/elements/1.1/"
   xmlns:cc="http://creativecommons.org/ns#"
   xmlns:rdf="http://www.w3.org/1999/02/22-rdf-syntax-ns#"
   xmlns:svg="http://www.w3.org/2000/svg"
   xmlns="http://www.w3.org/2000/svg"
   xmlns:sodipodi="http://sodipodi.sourceforge.net/DTD/sodipodi-0.dtd"
   xmlns:inkscape="http://www.inkscape.org/namespaces/inkscape"
   width="24"
   height="24"
   viewBox="0 0 24 24"
   fill="none"
   version="1.1"
   id="svg8"
   sodipodi:docname="in-link-externo.svg"
   inkscape:version="1.0.2 (e86c870879, 2021-01-15)">
  <metadata
     id="metadata14">
    <rdf:RDF>
      <cc:Work
         rdf:about="">
        <dc:format>image/svg+xml</dc:format>
        <dc:type
           rdf:resource="http://purl.org/dc/dcmitype/StillImage" />
      </cc:Work>
    </rdf:RDF>
  </metadata>
  <defs
     id="defs12" />
  <sodipodi:namedview
     pagecolor="#ffffff"
     bordercolor="#666666"
     borderopacity="1"
     objecttolerance="10"
     gridtolerance="10"
     guidetolerance="10"
     inkscape:pageopacity="0"
     inkscape:pageshadow="2"
     inkscape:window-width="1920"
     inkscape:window-height="1016"
     id="namedview10"
     showgrid="false"
     inkscape:zoom="2.9462783"
     inkscape:cx="-64.250943"
     inkscape:cy="10.009265"
     inkscape:window-x="0"
     inkscape:window-y="0"
     inkscape:window-maximized="1"
     inkscape:current-layer="svg8" />
  <path
     id="path2"
     d="M 15 2 C 14.4477 2 14 2.44772 14 3 C 14 3.55228 14.4477 4 15 4 L 18.585938 4 L 9.2929688 13.292969 C 8.9024487 13.683469 8.9024487 14.316531 9.2929688 14.707031 C 9.6834988 15.097531 10.316531 15.097531 10.707031 14.707031 L 20 5.4140625 L 20 9 C 20 9.55228 20.4477 10 21 10 C 21.5523 10 22 9.55228 22 9 L 22 3 C 22 2.8706379 21.973715 2.7406688 21.923828 2.6191406 C 21.873139 2.4965846 21.799348 2.3852872 21.707031 2.2929688 C 21.615676 2.2016122 21.505792 2.1287752 21.384766 2.078125 C 21.261818 2.0268829 21.131105 2 21 2 L 15 2 z M 5 5 C 4.20435 5 3.4415162 5.3162962 2.8789062 5.8789062 C 2.3162962 6.4415162 2 7.20435 2 8 L 2 19 C 2 19.7957 2.3162962 20.558494 2.8789062 21.121094 C 3.4415162 21.683694 4.20435 22 5 22 L 16 22 C 16.7957 22 17.558494 21.683694 18.121094 21.121094 C 18.683694 20.558494 19 19.7957 19 19 L 19 13 C 19 12.4477 18.5523 12 18 12 C 17.4477 12 17 12.4477 17 13 L 17 19 C 17 19.2652 16.894531 19.519531 16.707031 19.707031 C 16.519531 19.894531 16.2652 20 16 20 L 5 20 C 4.73478 20 4.4805088 19.894531 4.2929688 19.707031 C 4.1054388 19.519531 4 19.2652 4 19 L 4 8 C 4 7.73478 4.1054388 7.4805088 4.2929688 7.2929688 C 4.4805088 7.1054388 4.73478 7 5 7 L 11 7 C 11.5523 7 12 6.55228 12 6 C 12 5.44772 11.5523 5 11 5 L 5 5 z "
     style="fill:#000000" />
</svg>
