<?xml version="1.0" encoding="UTF-8" standalone="no"?>
<svg
   width="24"
   height="24"
   viewBox="0 0 24 24"
   fill="none"
   version="1.1"
   id="svg8"
   sodipodi:docname="in-lote final.svg"
   inkscape:version="1.1 (1:1.1+202105261517+ce6663b3b7)"
   xmlns:inkscape="http://www.inkscape.org/namespaces/inkscape"
   xmlns:sodipodi="http://sodipodi.sourceforge.net/DTD/sodipodi-0.dtd"
   xmlns="http://www.w3.org/2000/svg"
   xmlns:svg="http://www.w3.org/2000/svg">
  <defs
     id="defs12" />
  <sodipodi:namedview
     id="namedview10"
     pagecolor="#ffffff"
     bordercolor="#666666"
     borderopacity="1.0"
     inkscape:pageshadow="2"
     inkscape:pageopacity="0.0"
     inkscape:pagecheckerboard="0"
     showgrid="false"
     inkscape:zoom="24.306796"
     inkscape:cx="11.087434"
     inkscape:cy="12.074813"
     inkscape:window-width="1920"
     inkscape:window-height="1014"
     inkscape:window-x="0"
     inkscape:window-y="0"
     inkscape:window-maximized="1"
     inkscape:current-layer="svg8" />
  <path
     id="path2"
     style="fill:#000000"
     d="M 12.599609 1.5292969 L 0.84960938 7 L 12.599609 13.560547 L 18.083984 10.486328 L 20.480469 11.589844 L 12.599609 16 L 4.2402344 11.289062 L 2.2402344 12.199219 L 5.1992188 13.873047 L 0.84960938 15.890625 L 12.490234 22.460938 L 12.599609 22.529297 L 22.199219 17.140625 C 22.403319 17.030425 22.5726 16.865562 22.6875 16.664062 C 22.8024 16.462562 22.858709 16.2318 22.849609 16 C 22.857409 15.7546 22.792109 15.512987 22.662109 15.304688 C 22.532209 15.096387 22.342941 14.930878 22.119141 14.830078 L 20.023438 13.855469 L 22.199219 12.640625 C 22.404119 12.528825 22.574553 12.361403 22.689453 12.158203 C 22.804353 11.954903 22.859509 11.723534 22.849609 11.490234 C 22.839009 11.260534 22.765519 11.038256 22.636719 10.847656 C 22.507919 10.657156 22.328441 10.505556 22.119141 10.410156 L 19.988281 9.4199219 L 22.199219 8.1796875 C 22.404419 8.0690275 22.575506 7.9034819 22.691406 7.7011719 C 22.807306 7.4988619 22.863769 7.2681763 22.855469 7.0351562 C 22.847169 6.8021462 22.774631 6.5763425 22.644531 6.3828125 C 22.514531 6.1892825 22.331741 6.0351931 22.119141 5.9394531 L 12.599609 1.5292969 z M 12.599609 3.4804688 L 20.480469 7.1308594 L 12.599609 11.539062 L 4.7304688 7.1308594 L 12.599609 3.4804688 z M 18.125 14.916016 L 20.480469 16 L 12.599609 20.419922 L 4.7304688 16 L 7.078125 14.9375 L 12.490234 18 L 12.599609 18 L 18.125 14.916016 z " />
</svg>
