<svg width="24" height="24" viewBox="0 0 24 24" fill="none" xmlns="http://www.w3.org/2000/svg">
<path d="M5.125 16.5H2.625C2.45924 16.5 2.30027 16.5658 2.18306 16.6831C2.06585 16.8003 2 16.9592 2 17.125V19.625C2 19.7908 2.06585 19.9497 2.18306 20.0669C2.30027 20.1842 2.45924 20.25 2.625 20.25H5.125C5.29076 20.25 5.44973 20.1842 5.56694 20.0669C5.68415 19.9497 5.75 19.7908 5.75 19.625V17.125C5.75 16.9592 5.68415 16.8003 5.56694 16.6831C5.44973 16.5658 5.29076 16.5 5.125 16.5ZM5.125 4H2.625C2.45924 4 2.30027 4.06585 2.18306 4.18306C2.06585 4.30027 2 4.45924 2 4.625V7.125C2 7.29076 2.06585 7.44973 2.18306 7.56694C2.30027 7.68415 2.45924 7.75 2.625 7.75H5.125C5.29076 7.75 5.44973 7.68415 5.56694 7.56694C5.68415 7.44973 5.75 7.29076 5.75 7.125V4.625C5.75 4.45924 5.68415 4.30027 5.56694 4.18306C5.44973 4.06585 5.29076 4 5.125 4ZM5.125 10.25H2.625C2.45924 10.25 2.30027 10.3158 2.18306 10.4331C2.06585 10.5503 2 10.7092 2 10.875V13.375C2 13.5408 2.06585 13.6997 2.18306 13.8169C2.30027 13.9342 2.45924 14 2.625 14H5.125C5.29076 14 5.44973 13.9342 5.56694 13.8169C5.68415 13.6997 5.75 13.5408 5.75 13.375V10.875C5.75 10.7092 5.68415 10.5503 5.56694 10.4331C5.44973 10.3158 5.29076 10.25 5.125 10.25ZM21.375 17.125H8.875C8.70924 17.125 8.55027 17.1908 8.43306 17.3081C8.31585 17.4253 8.25 17.5842 8.25 17.75V19C8.25 19.1658 8.31585 19.3247 8.43306 19.4419C8.55027 19.5592 8.70924 19.625 8.875 19.625H21.375C21.5408 19.625 21.6997 19.5592 21.8169 19.4419C21.9342 19.3247 22 19.1658 22 19V17.75C22 17.5842 21.9342 17.4253 21.8169 17.3081C21.6997 17.1908 21.5408 17.125 21.375 17.125ZM21.375 4.625H8.875C8.70924 4.625 8.55027 4.69085 8.43306 4.80806C8.31585 4.92527 8.25 5.08424 8.25 5.25V6.5C8.25 6.66576 8.31585 6.82473 8.43306 6.94194C8.55027 7.05915 8.70924 7.125 8.875 7.125H21.375C21.5408 7.125 21.6997 7.05915 21.8169 6.94194C21.9342 6.82473 22 6.66576 22 6.5V5.25C22 5.08424 21.9342 4.92527 21.8169 4.80806C21.6997 4.69085 21.5408 4.625 21.375 4.625ZM21.375 10.875H8.875C8.70924 10.875 8.55027 10.9408 8.43306 11.0581C8.31585 11.1753 8.25 11.3342 8.25 11.5V12.75C8.25 12.9158 8.31585 13.0747 8.43306 13.1919C8.55027 13.3092 8.70924 13.375 8.875 13.375H21.375C21.5408 13.375 21.6997 13.3092 21.8169 13.1919C21.9342 13.0747 22 12.9158 22 12.75V11.5C22 11.3342 21.9342 11.1753 21.8169 11.0581C21.6997 10.9408 21.5408 10.875 21.375 10.875Z" fill="black"/>
</svg>
