<svg width="24" height="24" viewBox="0 0 24 24" fill="none" xmlns="http://www.w3.org/2000/svg">
<path fill-rule="evenodd" clip-rule="evenodd" d="M4.63636 12C4.63636 7.93318 7.93318 4.63636 12 4.63636C16.0668 4.63636 19.3636 7.93318 19.3636 12C19.3636 16.0668 16.0668 19.3636 12 19.3636C7.93318 19.3636 4.63636 16.0668 4.63636 12ZM12 3C7.02944 3 3 7.02944 3 12C3 16.9706 7.02944 21 12 21C16.9706 21 21 16.9706 21 12C21 7.02944 16.9706 3 12 3ZM8.72734 11.1817C8.27547 11.1817 7.90915 11.548 7.90915 11.9999C7.90915 12.4517 8.27547 12.8181 8.72734 12.8181H15.2728C15.7247 12.8181 16.091 12.4517 16.091 11.9999C16.091 11.548 15.7247 11.1817 15.2728 11.1817H8.72734Z" fill="black"/>
</svg>
