<svg width="24" height="24" viewBox="0 0 24 24" fill="none" xmlns="http://www.w3.org/2000/svg">
<path fill-rule="evenodd" clip-rule="evenodd" d="M13.0028 3.81807C13.0028 3.36626 12.6365 3 12.1847 3C11.7329 3 11.3666 3.36626 11.3666 3.81807V11.9988C11.3666 12.4506 11.7329 12.8169 12.1847 12.8169C12.6365 12.8169 13.0028 12.4506 13.0028 11.9988V3.81807ZM7.55226 8.19216C7.87168 7.87263 7.8716 7.35466 7.55207 7.03523C7.23254 6.71581 6.71456 6.71589 6.39514 7.03542C5.25131 8.17962 4.47244 9.63729 4.157 11.2241C3.84156 12.811 4.00372 14.4557 4.62298 15.9504C5.24224 17.445 6.29078 18.7225 7.63604 19.6213C8.9813 20.5201 10.5628 20.9998 12.1807 20.9998C13.7986 20.9998 15.3802 20.5201 16.7254 19.6213C18.0707 18.7225 19.1192 17.445 19.7385 15.9504C20.3577 14.4557 20.5199 12.811 20.2045 11.2241C19.889 9.63729 19.1101 8.17962 17.9663 7.03542C17.6469 6.71589 17.1289 6.71581 16.8094 7.03523C16.4899 7.35466 16.4898 7.87263 16.8092 8.19216C17.7243 9.10752 18.3474 10.2737 18.5997 11.5431C18.8521 12.8126 18.7223 14.1284 18.2269 15.3241C17.7315 16.5199 16.8927 17.5419 15.8165 18.2609C14.7403 18.9799 13.475 19.3637 12.1807 19.3637C10.8864 19.3637 9.62118 18.9799 8.54498 18.2609C7.46877 17.5419 6.62994 16.5199 6.13453 15.3241C5.63912 14.1284 5.50939 12.8126 5.76174 11.5431C6.0141 10.2737 6.63719 9.10752 7.55226 8.19216Z" fill="black"/>
</svg>
