<?xml version="1.0" encoding="UTF-8" standalone="no"?>
<svg
   xmlns:dc="http://purl.org/dc/elements/1.1/"
   xmlns:cc="http://creativecommons.org/ns#"
   xmlns:rdf="http://www.w3.org/1999/02/22-rdf-syntax-ns#"
   xmlns:svg="http://www.w3.org/2000/svg"
   xmlns="http://www.w3.org/2000/svg"
   xmlns:sodipodi="http://sodipodi.sourceforge.net/DTD/sodipodi-0.dtd"
   xmlns:inkscape="http://www.inkscape.org/namespaces/inkscape"
   width="24"
   height="24"
   viewBox="0 0 24 24"
   fill="none"
   version="1.1"
   id="svg12"
   sodipodi:docname="in-protesto-color.svg"
   inkscape:version="1.0.2 (e86c870879, 2021-01-15)">
  <metadata
     id="metadata18">
    <rdf:RDF>
      <cc:Work
         rdf:about="">
        <dc:format>image/svg+xml</dc:format>
        <dc:type
           rdf:resource="http://purl.org/dc/dcmitype/StillImage" />
      </cc:Work>
    </rdf:RDF>
  </metadata>
  <defs
     id="defs16" />
  <sodipodi:namedview
     pagecolor="#ffffff"
     bordercolor="#666666"
     borderopacity="1"
     objecttolerance="10"
     gridtolerance="10"
     guidetolerance="10"
     inkscape:pageopacity="0"
     inkscape:pageshadow="2"
     inkscape:window-width="1920"
     inkscape:window-height="1016"
     id="namedview14"
     showgrid="false"
     inkscape:zoom="33.333333"
     inkscape:cx="12"
     inkscape:cy="12"
     inkscape:window-x="0"
     inkscape:window-y="0"
     inkscape:window-maximized="1"
     inkscape:current-layer="svg12" />
  <path
     id="path2"
     d="M 14.160156 1 C 13.962256 0.999804 13.766084 1.0398675 13.583984 1.1171875 C 13.401884 1.1945175 13.236909 1.3067287 13.099609 1.4492188 L 12.75 1.8007812 L 17.869141 6.9296875 L 18.230469 6.5800781 C 18.509569 6.2958581 18.666016 5.913975 18.666016 5.515625 C 18.666016 5.117275 18.509569 4.7334387 18.230469 4.4492188 L 15.230469 1.4492188 C 14.947369 1.1635788 14.562356 1.00254 14.160156 1 z M 5 9.5507812 L 4.3300781 10.230469 C 4.2265581 10.330369 4.1445606 10.449831 4.0878906 10.582031 C 4.0312206 10.714331 4.00095 10.8562 4 11 C 4.00713 11.1388 4.0414825 11.275091 4.1015625 11.400391 C 4.1616425 11.525691 4.2458594 11.638069 4.3496094 11.730469 L 7.9394531 15.330078 C 8.1462931 15.529378 8.4237675 15.640625 8.7109375 15.640625 C 8.9981075 15.640625 9.2736288 15.529378 9.4804688 15.330078 L 10.130859 14.679688 L 5 9.5507812 z M 3.8007812 17.410156 C 3.4638213 17.411456 3.1306225 17.480028 2.8203125 17.611328 C 2.5100025 17.742728 2.2276475 17.934781 1.9921875 18.175781 C 1.7567175 18.416881 1.5713156 18.702225 1.4472656 19.015625 C 1.3232156 19.328925 1.2629012 19.6631 1.2695312 20 L 1.2695312 23 L 16.460938 23 L 16.460938 20 C 16.467637 19.6623 16.40595 19.325719 16.28125 19.011719 C 16.15665 18.697819 15.970875 18.412975 15.734375 18.171875 C 15.497875 17.930675 15.215797 17.738222 14.904297 17.607422 C 14.592897 17.476722 14.257722 17.410056 13.919922 17.410156 L 3.8007812 17.410156 z M 3.2695312 19.410156 L 14.449219 19.410156 L 14.449219 21 L 3.2695312 21 L 3.2695312 19.410156 z "
     style="fill:#07272d;fill-opacity:1" />
  <path
     id="path6"
     d="M 12.130859 3.0800781 L 6.1308594 9.0800781 L 10.589844 13.541016 L 16.589844 7.5410156 L 12.130859 3.0800781 z M 12.140625 5.9101562 L 13.779297 7.5410156 L 13.679688 7.640625 L 10.619141 10.679688 L 9 9.0605469 L 12.140625 5.9101562 z M 15.099609 10.599609 L 13.679688 12 L 21.830078 20.179688 L 22.349609 19.650391 C 22.467809 19.533191 22.562853 19.393834 22.626953 19.240234 C 22.690953 19.086634 22.722656 18.922259 22.722656 18.755859 C 22.722656 18.589459 22.690953 18.423131 22.626953 18.269531 C 22.562853 18.115931 22.467809 17.976475 22.349609 17.859375 L 15.099609 10.599609 z "
     style="fill:#00c65e;fill-opacity:1" />
</svg>
