<svg width="24" height="24" viewBox="0 0 24 24" fill="none" xmlns="http://www.w3.org/2000/svg">
<g clip-path="url(#clip0)">
<path d="M9.34711 2.87423L8.57648 2.87423L8.57648 9.39729L9.34712 9.39729L8.95185 8.73852C8.91208 8.76338 8.42981 9.05672 7.84562 9.63594C7.4081 10.0735 6.91588 10.6751 6.52808 11.4507C6.14028 12.2263 5.85937 13.1834 5.86185 14.2896L5.86185 15.0602L18.2716 15.0602L18.2716 14.2896C18.2716 13.1809 17.9932 12.2263 17.6054 11.4507C17.2175 10.6751 16.7253 10.0735 16.2878 9.63594C15.7061 9.05423 15.2214 8.76338 15.1816 8.73852L14.7863 9.39729L15.557 9.39729L15.5569 2.1036L8.57896 2.10608L8.57648 2.87423L9.34711 2.87423L9.34711 3.64487L14.0157 3.64487L14.0132 9.83233L14.3861 10.0561L14.5129 9.84476L14.3811 10.0561L14.3836 10.0585L14.5104 9.84724L14.3786 10.0585C14.3911 10.066 14.759 10.2947 15.1915 10.7273C15.5371 11.0728 15.9249 11.5501 16.2232 12.1417C16.519 12.7359 16.7278 13.4419 16.7278 14.2921L17.4985 14.2921L17.4985 13.5214L6.63 13.5214L6.63 14.2921L7.40064 14.2921C7.40064 13.4419 7.60946 12.7359 7.90528 12.1417C8.20111 11.5476 8.58891 11.0753 8.93694 10.7273C9.16813 10.4961 9.37943 10.3245 9.52859 10.2102C9.60317 10.1555 9.66034 10.1132 9.70012 10.0884L9.73989 10.0635L9.74735 10.061L9.61808 9.85221L9.74486 10.0635L9.74735 10.061L9.61808 9.85221L9.74486 10.0635L10.1178 9.83979L10.1177 2.87921L9.34711 2.87423L9.34711 3.64487L9.34711 2.87423ZM12.8324 21.9015L12.8324 14.2896L11.2961 14.2896L11.2961 21.9015L12.8324 21.9015ZM7.17193 3.64238L16.9565 3.64238L16.9565 2.10608L7.17193 2.10608L7.17193 3.64238Z" fill="black"/>
</g>
<defs>
<clipPath id="clip0">
<rect width="24" height="24" fill="white"/>
</clipPath>
</defs>
</svg>
