<svg width="24" height="24" viewBox="0 0 24 24" fill="none" xmlns="http://www.w3.org/2000/svg">
<path d="M11.8916 2C8.77362 2 6.75413 3.27746 5.16862 5.5557C4.88101 5.96898 4.96968 6.53562 5.37089 6.83984L7.05597 8.11754C7.46116 8.42477 8.03769 8.35293 8.35491 7.95551C9.33339 6.72969 10.0592 6.02391 11.5876 6.02391C12.7893 6.02391 14.2757 6.7973 14.2757 7.96262C14.2757 8.84355 13.5485 9.29598 12.3619 9.96121C10.9782 10.737 9.14714 11.7025 9.14714 14.1177V14.5C9.14714 15.0178 9.56687 15.4375 10.0846 15.4375H12.9155C13.4333 15.4375 13.853 15.0178 13.853 14.5V14.2745C13.853 12.6003 18.7463 12.5305 18.7463 8C18.7464 4.58812 15.2072 2 11.8916 2ZM11.5001 16.5882C10.0081 16.5882 8.79421 17.8021 8.79421 19.2941C8.79421 20.7861 10.0081 22 11.5001 22C12.9921 22 14.206 20.7861 14.206 19.2941C14.206 17.8021 12.9921 16.5882 11.5001 16.5882Z" fill="black"/>
</svg>
