<?xml version="1.0" encoding="UTF-8" standalone="no"?>
<svg
   xmlns:dc="http://purl.org/dc/elements/1.1/"
   xmlns:cc="http://creativecommons.org/ns#"
   xmlns:rdf="http://www.w3.org/1999/02/22-rdf-syntax-ns#"
   xmlns:svg="http://www.w3.org/2000/svg"
   xmlns="http://www.w3.org/2000/svg"
   xmlns:sodipodi="http://sodipodi.sourceforge.net/DTD/sodipodi-0.dtd"
   xmlns:inkscape="http://www.inkscape.org/namespaces/inkscape"
   width="24"
   height="24"
   viewBox="0 0 24 24"
   fill="none"
   version="1.1"
   id="svg6"
   sodipodi:docname="in-relogio.svg"
   inkscape:version="1.0.2 (e86c870879, 2021-01-15)">
  <metadata
     id="metadata12">
    <rdf:RDF>
      <cc:Work
         rdf:about="">
        <dc:format>image/svg+xml</dc:format>
        <dc:type
           rdf:resource="http://purl.org/dc/dcmitype/StillImage" />
      </cc:Work>
    </rdf:RDF>
  </metadata>
  <defs
     id="defs10" />
  <sodipodi:namedview
     pagecolor="#ffffff"
     bordercolor="#666666"
     borderopacity="1"
     objecttolerance="10"
     gridtolerance="10"
     guidetolerance="10"
     inkscape:pageopacity="0"
     inkscape:pageshadow="2"
     inkscape:window-width="1920"
     inkscape:window-height="1016"
     id="namedview8"
     showgrid="false"
     inkscape:zoom="33.333333"
     inkscape:cx="12"
     inkscape:cy="12.011304"
     inkscape:window-x="0"
     inkscape:window-y="0"
     inkscape:window-maximized="1"
     inkscape:current-layer="svg6" />
  <path
     id="path2"
     d="M 12 3 C 7.02944 3 3 7.02944 3 12 C 3 16.9706 7.02944 21 12 21 C 16.9706 21 21 16.9706 21 12 C 21 7.02944 16.9706 3 12 3 z M 12 4.6367188 C 16.0668 4.6367187 19.363281 7.93318 19.363281 12 C 19.363281 16.0668 16.0668 19.363281 12 19.363281 C 7.93318 19.363281 4.6367188 16.0668 4.6367188 12 C 4.6367187 7.93318 7.93318 4.6367188 12 4.6367188 z M 12 6.2734375 C 11.5481 6.2734375 11.181641 6.6399269 11.181641 7.0917969 L 11.181641 12 C 11.181641 12.3099 11.357566 12.593822 11.634766 12.732422 L 14.90625 14.369141 C 15.31045 14.571141 15.801806 14.406053 16.003906 14.001953 C 16.206006 13.597753 16.042872 13.106297 15.638672 12.904297 L 12.818359 11.494141 L 12.818359 7.0917969 C 12.818359 6.6399269 12.4519 6.2734375 12 6.2734375 z "
     style="fill:#000000" />
</svg>
