<svg width="24" height="24" viewBox="0 0 24 24" fill="none" xmlns="http://www.w3.org/2000/svg">
<path fill-rule="evenodd" clip-rule="evenodd" d="M17.4092 11.7678C17.3062 11.8103 17.1959 11.832 17.0845 11.8316C16.9731 11.832 16.8627 11.8103 16.7598 11.7678C16.6568 11.7253 16.5632 11.6629 16.4845 11.5841C16.3267 11.4243 16.2383 11.2087 16.2383 10.9841C16.2383 10.7595 16.3267 10.544 16.4845 10.3841L19.1149 7.76393H6.2373C6.01254 7.76393 5.79698 7.67464 5.63805 7.51571C5.47912 7.35678 5.38984 7.14123 5.38984 6.91647C5.38984 6.69171 5.47912 6.47615 5.63805 6.31722C5.79698 6.1583 6.01254 6.06901 6.2373 6.06901H19.1152L16.4845 3.44853C16.3254 3.2894 16.236 3.07357 16.236 2.84853C16.236 2.62348 16.3254 2.40766 16.4845 2.24853C16.6436 2.0894 16.8594 2 17.0845 2C17.3095 2 17.5254 2.0894 17.6845 2.24853L21.7523 6.31632C21.7892 6.35371 21.8223 6.39414 21.8513 6.43703C21.9475 6.57717 22 6.74411 22 6.91647C22 7.09889 21.9412 7.27524 21.8341 7.42018C21.8094 7.454 21.7821 7.48615 21.7523 7.51632L17.6845 11.5841C17.6058 11.6629 17.5122 11.7253 17.4092 11.7678ZM4.88473 17.9332H17.7627C17.9875 17.9332 18.203 17.8439 18.362 17.685C18.5209 17.5261 18.6102 17.3105 18.6102 17.0857C18.6102 16.861 18.5209 16.6454 18.362 16.4865C18.203 16.3276 17.9875 16.2383 17.7627 16.2383H4.88443L7.51517 13.6178C7.6743 13.4587 7.76369 13.2428 7.76369 13.0178C7.76369 12.7928 7.6743 12.5769 7.51517 12.4178C7.35604 12.2587 7.14021 12.1693 6.91517 12.1693C6.69012 12.1693 6.4743 12.2587 6.31517 12.4178L2.24737 16.4856C2.19723 16.5364 2.15409 16.5928 2.11857 16.6534C2.04161 16.7832 2 16.9323 2 17.0857C2 17.2498 2.04758 17.409 2.13509 17.5448C2.16721 17.5952 2.20476 17.6424 2.24737 17.6856L6.31517 21.7534C6.3939 21.8322 6.48745 21.8946 6.59043 21.9371C6.69341 21.9796 6.80377 22.0012 6.91517 22.0008C7.02656 22.0012 7.13692 21.9796 7.2399 21.9371C7.34288 21.8946 7.43643 21.8322 7.51517 21.7534C7.67291 21.5935 7.76136 21.378 7.76136 21.1534C7.76136 20.9288 7.67291 20.7132 7.51517 20.5534L4.88473 17.9332Z" fill="black"/>
</svg>
