<?xml version="1.0" encoding="UTF-8" standalone="no"?>
<svg
   xmlns:dc="http://purl.org/dc/elements/1.1/"
   xmlns:cc="http://creativecommons.org/ns#"
   xmlns:rdf="http://www.w3.org/1999/02/22-rdf-syntax-ns#"
   xmlns:svg="http://www.w3.org/2000/svg"
   xmlns="http://www.w3.org/2000/svg"
   xmlns:sodipodi="http://sodipodi.sourceforge.net/DTD/sodipodi-0.dtd"
   xmlns:inkscape="http://www.inkscape.org/namespaces/inkscape"
   width="24"
   height="24"
   viewBox="0 0 24 24"
   fill="none"
   version="1.1"
   id="svg10"
   sodipodi:docname="in-sms-color.svg"
   inkscape:version="1.0.2 (e86c870879, 2021-01-15)">
  <metadata
     id="metadata16">
    <rdf:RDF>
      <cc:Work
         rdf:about="">
        <dc:format>image/svg+xml</dc:format>
        <dc:type
           rdf:resource="http://purl.org/dc/dcmitype/StillImage" />
      </cc:Work>
    </rdf:RDF>
  </metadata>
  <defs
     id="defs14" />
  <sodipodi:namedview
     pagecolor="#ffffff"
     bordercolor="#666666"
     borderopacity="1"
     objecttolerance="10"
     gridtolerance="10"
     guidetolerance="10"
     inkscape:pageopacity="0"
     inkscape:pageshadow="2"
     inkscape:window-width="1920"
     inkscape:window-height="1016"
     id="namedview12"
     showgrid="false"
     inkscape:zoom="16.666667"
     inkscape:cx="-4.8623248"
     inkscape:cy="14.356255"
     inkscape:window-x="0"
     inkscape:window-y="0"
     inkscape:window-maximized="1"
     inkscape:current-layer="svg10" />
  <path
     d="m 23,10.9999 c -0.0037,1.0355 -0.2944,2.0498 -0.84,2.93 -0.5496,0.916 -1.2855,1.7064 -2.16,2.32 -2.0686,1.3835 -4.5118,2.0991 -7,2.05 -0.4543,0.0021 -0.9083,-0.0212 -1.36,-0.07 l -5.74997,2.07 0.11,-4.05 c -0.35023,-0.2376 -0.6843,-0.4981 -1,-0.78 l -0.47,-0.47 h 0.66 2.11 0.24 v 3 l 3.92997,-1.41 h 0.13 c 0.32,0 0.66,0.06 1,0.07 H 13 c 2.1412,0.0706 4.2537,-0.5081 6.06,-1.66 0.6913,-0.4238 1.2692,-1.0093 1.6839,-1.7062 0.4146,-0.6968 0.6535,-1.484 0.6961,-2.2938 C 21.3974,10.1902 21.1585,9.40292 20.7439,8.70608 20.3292,8.00923 19.7513,7.42368 19.06,6.9999 17.2619,5.82278 15.1486,5.2195 13,5.2699 11.5502,5.24617 10.1088,5.49376 8.75003,5.9999 h -0.09 -3.13 l 0.67,-0.4 C 8.23516,4.32207 10.5973,3.66206 13,3.6999 c 2.4885,-0.04098 4.9304,0.67763 7,2.06 0.8875,0.6028 1.6372,1.38665 2.2,2.3 0.5309,0.88825 0.8076,1.90523 0.8,2.94 z"
     fill="#07272d"
     id="path2" />
  <path
     id="path4"
     d="M 2.3808594 7 L 2.3808594 8.5097656 L 7.109375 8.5097656 C 7.316245 8.5097656 7.5158294 8.42753 7.6621094 8.28125 C 7.8083894 8.13497 7.890625 7.9373388 7.890625 7.7304688 C 7.880305 7.5315187 7.7919344 7.3431513 7.6464844 7.2070312 C 7.5010344 7.0709013 7.308575 6.99714 7.109375 7 L 2.3808594 7 z M 1 9.5996094 L 1 11.160156 L 5.6894531 11.160156 C 5.7841231 11.152556 5.8764375 11.125331 5.9609375 11.082031 C 6.0454375 11.038631 6.1202906 10.980703 6.1816406 10.908203 C 6.2429806 10.835703 6.2895794 10.750656 6.3183594 10.660156 C 6.3471294 10.569656 6.3578294 10.475459 6.3496094 10.380859 C 6.3578294 10.286259 6.3471294 10.190109 6.3183594 10.099609 C 6.2895794 10.009109 6.2429806 9.9260156 6.1816406 9.8535156 C 6.1202906 9.7810056 6.0454375 9.7210944 5.9609375 9.6777344 C 5.8764375 9.6343744 5.7841231 9.6071694 5.6894531 9.5996094 L 1 9.5996094 z M 2.3808594 12.410156 L 2.3808594 13.970703 L 7.109375 13.970703 C 7.316245 13.970703 7.5158294 13.888388 7.6621094 13.742188 C 7.8083894 13.595887 7.890625 13.396353 7.890625 13.189453 C 7.890625 12.982553 7.8083894 12.784872 7.6621094 12.638672 C 7.5158294 12.492372 7.316245 12.410156 7.109375 12.410156 L 2.3808594 12.410156 z "
     style="fill:#00c65e;fill-opacity:1" />
</svg>
