<svg width="24" height="24" viewBox="0 0 24 24" fill="none" xmlns="http://www.w3.org/2000/svg">
<path fill-rule="evenodd" clip-rule="evenodd" d="M22.16 13.9299C22.7056 13.0497 22.9963 12.0354 23 10.9999C23.0076 9.96513 22.7309 8.94815 22.2 8.0599C21.6372 7.14655 20.8875 6.3627 20 5.7599C17.9304 4.37753 15.4885 3.65892 13 3.6999C10.5973 3.66206 8.23516 4.32207 6.20003 5.5999L5.53003 5.9999H8.66003H8.75003C10.1088 5.49376 11.5502 5.24617 13 5.2699C15.1486 5.2195 17.2619 5.82278 19.06 6.9999C19.7513 7.42368 20.3292 8.00923 20.7439 8.70608C21.1585 9.40292 21.3974 10.1902 21.44 10.9999C21.3974 11.8097 21.1585 12.5969 20.7439 13.2937C20.3292 13.9906 19.7513 14.5761 19.06 14.9999C17.2537 16.1518 15.1412 16.7305 13 16.6599H12.6C12.4427 16.6553 12.2854 16.6399 12.13 16.6248L12.13 16.6248C11.9496 16.6072 11.772 16.5899 11.6 16.5899H11.47L7.54003 17.9999V14.9999H7.30003H5.19003H4.53003L5.00003 15.4699C5.31573 15.7518 5.6498 16.0123 6.00003 16.2499L5.89003 20.2999L11.64 18.2299C12.0917 18.2787 12.5457 18.302 13 18.2999C15.4882 18.349 17.9314 17.6334 20 16.2499C20.8745 15.6363 21.6104 14.8459 22.16 13.9299ZM7.66155 13.7415C7.80783 13.5952 7.89 13.3968 7.89 13.1899C7.89 12.983 7.80783 12.7846 7.66155 12.6384C7.51527 12.4921 7.31687 12.4099 7.11 12.4099H2.38V13.9699H7.11C7.31687 13.9699 7.51527 13.8877 7.66155 13.7415ZM7.89 7.73008C7.89 7.93695 7.80783 8.13534 7.66155 8.28162C7.51527 8.4279 7.31687 8.51008 7.11 8.51008H2.38V7.00008H7.11C7.3092 6.99722 7.50175 7.07168 7.6472 7.20781C7.79265 7.34393 7.87968 7.53113 7.89 7.73008ZM6.31886 10.6605C6.34763 10.57 6.35822 10.4747 6.35 10.3801C6.35822 10.2855 6.34763 10.1902 6.31886 10.0997C6.29008 10.0092 6.24368 9.92524 6.18234 9.85274C6.12099 9.78023 6.04591 9.72059 5.96141 9.67723C5.87691 9.63387 5.78467 9.60766 5.69 9.6001H1V11.1601H5.69C5.78467 11.1525 5.87691 11.1263 5.96141 11.083C6.04591 11.0396 6.12099 10.98 6.18234 10.9075C6.24368 10.835 6.29008 10.751 6.31886 10.6605Z" fill="black"/>
</svg>
