<?xml version="1.0" encoding="UTF-8" standalone="no"?>
<svg
   xmlns:dc="http://purl.org/dc/elements/1.1/"
   xmlns:cc="http://creativecommons.org/ns#"
   xmlns:rdf="http://www.w3.org/1999/02/22-rdf-syntax-ns#"
   xmlns:svg="http://www.w3.org/2000/svg"
   xmlns="http://www.w3.org/2000/svg"
   xmlns:sodipodi="http://sodipodi.sourceforge.net/DTD/sodipodi-0.dtd"
   xmlns:inkscape="http://www.inkscape.org/namespaces/inkscape"
   width="24"
   height="24"
   viewBox="0 0 24 24"
   fill="none"
   version="1.1"
   id="svg6"
   sodipodi:docname="in-tv.svg"
   inkscape:version="1.0.2 (e86c870879, 2021-01-15)">
  <metadata
     id="metadata12">
    <rdf:RDF>
      <cc:Work
         rdf:about="">
        <dc:format>image/svg+xml</dc:format>
        <dc:type
           rdf:resource="http://purl.org/dc/dcmitype/StillImage" />
      </cc:Work>
    </rdf:RDF>
  </metadata>
  <defs
     id="defs10" />
  <sodipodi:namedview
     pagecolor="#ffffff"
     bordercolor="#666666"
     borderopacity="1"
     objecttolerance="10"
     gridtolerance="10"
     guidetolerance="10"
     inkscape:pageopacity="0"
     inkscape:pageshadow="2"
     inkscape:window-width="1920"
     inkscape:window-height="1016"
     id="namedview8"
     showgrid="false"
     inkscape:zoom="33.333333"
     inkscape:cx="12"
     inkscape:cy="12"
     inkscape:window-x="0"
     inkscape:window-y="0"
     inkscape:window-maximized="1"
     inkscape:current-layer="svg6" />
  <path
     id="path2"
     d="M 7.4550781 2 C 7.2224206 2 6.99001 2.08811 6.8125 2.265625 C 6.45748 2.620645 6.45748 3.1977044 6.8125 3.5527344 L 9.8046875 6.5449219 L 4.7265625 6.5449219 C 3.2203325 6.5449219 2 7.7672075 2 9.2734375 L 2 19.273438 C 2 20.779737 3.2203325 22 4.7265625 22 L 19.273438 22 C 20.779737 22 22 20.779737 22 19.273438 L 22 9.2734375 C 22 7.7672075 20.779737 6.5449219 19.273438 6.5449219 L 14.195312 6.5449219 L 17.1875 3.5527344 C 17.5425 3.1977044 17.5425 2.620645 17.1875 2.265625 C 16.8325 1.910595 16.257444 1.910595 15.902344 2.265625 L 12 6.1679688 L 8.0976562 2.265625 C 7.9201462 2.08811 7.6877356 2 7.4550781 2 z M 4.7265625 8.3632812 L 12 8.3632812 L 19.273438 8.3632812 C 19.775538 8.3632812 20.181641 8.7713575 20.181641 9.2734375 L 20.181641 19.273438 C 20.181641 19.775538 19.775537 20.181641 19.273438 20.181641 L 4.7265625 20.181641 C 4.2244925 20.181641 3.8183594 19.775537 3.8183594 19.273438 L 3.8183594 9.2734375 C 3.8183594 8.7713575 4.2244925 8.3632812 4.7265625 8.3632812 z "
     style="fill:#000000" />
</svg>
