<?xml version="1.0" encoding="UTF-8" standalone="no"?>
<svg
   xmlns:dc="http://purl.org/dc/elements/1.1/"
   xmlns:cc="http://creativecommons.org/ns#"
   xmlns:rdf="http://www.w3.org/1999/02/22-rdf-syntax-ns#"
   xmlns:svg="http://www.w3.org/2000/svg"
   xmlns="http://www.w3.org/2000/svg"
   xmlns:sodipodi="http://sodipodi.sourceforge.net/DTD/sodipodi-0.dtd"
   xmlns:inkscape="http://www.inkscape.org/namespaces/inkscape"
   width="24"
   height="24"
   viewBox="0 0 24 24"
   fill="none"
   version="1.1"
   id="svg12"
   sodipodi:docname="in-titulo-color.svg"
   inkscape:version="1.0.2 (e86c870879, 2021-01-15)">
  <metadata
     id="metadata18">
    <rdf:RDF>
      <cc:Work
         rdf:about="">
        <dc:format>image/svg+xml</dc:format>
        <dc:type
           rdf:resource="http://purl.org/dc/dcmitype/StillImage" />
      </cc:Work>
    </rdf:RDF>
  </metadata>
  <defs
     id="defs16" />
  <sodipodi:namedview
     pagecolor="#ffffff"
     bordercolor="#666666"
     borderopacity="1"
     objecttolerance="10"
     gridtolerance="10"
     guidetolerance="10"
     inkscape:pageopacity="0"
     inkscape:pageshadow="2"
     inkscape:window-width="1920"
     inkscape:window-height="1016"
     id="namedview14"
     showgrid="false"
     inkscape:zoom="33.333333"
     inkscape:cx="12"
     inkscape:cy="12"
     inkscape:window-x="0"
     inkscape:window-y="0"
     inkscape:window-maximized="1"
     inkscape:current-layer="svg12" />
  <path
     id="path2"
     d="M 3.6503906 7.5097656 L 3.6503906 8.7109375 C 3.2851506 8.7401475 2.9250581 8.8179562 2.5800781 8.9414062 C 2.1610281 9.0677163 1.78641 9.309695 1.5 9.640625 C 1.23057 9.954325 1.0875394 10.356231 1.0996094 10.769531 C 1.0906594 11.078831 1.1709481 11.385091 1.3300781 11.650391 C 1.4840881 11.901091 1.6979919 12.109866 1.9511719 12.259766 C 2.2263719 12.427366 2.5210881 12.559091 2.8300781 12.650391 C 3.0988181 12.734691 3.3730406 12.800709 3.6503906 12.849609 L 3.6503906 14.791016 C 3.3878406 14.770516 3.1324406 14.694912 2.9003906 14.570312 C 2.7603906 14.507413 2.6423769 14.405291 2.5605469 14.275391 C 2.4787269 14.145591 2.4357931 13.993344 2.4394531 13.839844 L 2.4394531 13.701172 L 1 13.701172 L 1 13.880859 C 0.993779 14.206959 1.0770044 14.528247 1.2402344 14.810547 C 1.4038444 15.083247 1.6302606 15.312769 1.9003906 15.480469 C 2.2077906 15.673369 2.5460406 15.812225 2.9003906 15.890625 C 3.1475206 15.963125 3.4027162 16.002566 3.6601562 16.009766 L 3.6601562 17.400391 L 4.4902344 17.400391 L 4.4902344 16.009766 C 4.7499544 15.999166 5.0074556 15.962891 5.2597656 15.900391 C 5.6123556 15.826591 5.9502656 15.694166 6.2597656 15.509766 C 6.5360256 15.347466 6.7689231 15.120909 6.9394531 14.849609 C 7.1236431 14.549609 7.2158919 14.201409 7.2011719 13.849609 C 7.2148919 13.550009 7.14451 13.253034 7 12.990234 C 6.82763 12.738634 6.5937825 12.535591 6.3203125 12.400391 C 6.0405925 12.234791 5.7410975 12.103166 5.4296875 12.009766 C 5.1096775 11.929766 4.8004687 11.851016 4.4804688 11.791016 L 4.4804688 9.9199219 L 4.8300781 10 C 5.0440981 10.0689 5.2416463 10.181278 5.4101562 10.330078 C 5.5505362 10.486278 5.6266437 10.690591 5.6210938 10.900391 L 5.6210938 11 L 7.0605469 11 L 7.0605469 10.880859 C 7.0724369 10.447659 6.9266006 10.025366 6.6503906 9.6914062 C 6.3508906 9.3595062 5.9729613 9.1079675 5.5507812 8.9609375 C 5.2084513 8.8250975 4.8475388 8.7408475 4.4804688 8.7109375 L 4.4804688 7.5097656 L 3.6503906 7.5097656 z M 10.710938 9.140625 L 10.710938 10.691406 L 18.880859 10.691406 C 18.982859 10.692806 19.083134 10.672866 19.177734 10.634766 C 19.272234 10.596666 19.359041 10.54035 19.431641 10.46875 C 19.504141 10.39705 19.562262 10.310897 19.601562 10.216797 C 19.640863 10.122797 19.660156 10.021882 19.660156 9.9199219 C 19.660156 9.7130519 19.577841 9.5154206 19.431641 9.3691406 C 19.285341 9.2228606 19.087759 9.140625 18.880859 9.140625 L 10.710938 9.140625 z M 3.7011719 9.9199219 L 3.7011719 11.611328 L 3.4609375 11.550781 C 3.2262275 11.490581 3.0050769 11.384734 2.8105469 11.240234 C 2.7316769 11.179234 2.6687331 11.100266 2.6269531 11.009766 C 2.5851731 10.919266 2.5655525 10.820303 2.5703125 10.720703 C 2.5669325 10.627003 2.5869762 10.533119 2.6289062 10.449219 C 2.6708462 10.365419 2.7335469 10.293834 2.8105469 10.240234 C 2.9858469 10.103234 3.1913062 10.011063 3.4101562 9.9707031 L 3.7011719 9.9199219 z M 12.810547 11.730469 L 12.810547 13.269531 L 18.890625 13.269531 C 19.094825 13.269531 19.291147 13.189322 19.435547 13.044922 C 19.579947 12.900522 19.660156 12.7043 19.660156 12.5 C 19.657556 12.2966 19.575541 12.102884 19.431641 11.958984 C 19.287841 11.815184 19.094025 11.733069 18.890625 11.730469 L 12.810547 11.730469 z M 4.53125 13.009766 C 4.80948 13.071966 5.0817494 13.1524 5.3496094 13.25 C 5.4907294 13.3038 5.6130956 13.400091 5.6972656 13.525391 C 5.7814456 13.650791 5.8239925 13.800272 5.8203125 13.951172 C 5.8181625 14.051072 5.7910175 14.149128 5.7421875 14.236328 C 5.6933675 14.323528 5.6250656 14.397172 5.5410156 14.451172 L 5.5898438 14.451172 C 5.4177938 14.589472 5.21586 14.684669 5 14.730469 C 4.84633 14.772469 4.69016 14.799347 4.53125 14.810547 L 4.53125 13.009766 z M 14.201172 14.310547 L 14.201172 15.861328 L 18.880859 15.861328 C 18.982859 15.862728 19.083134 15.842788 19.177734 15.804688 C 19.272234 15.766588 19.359041 15.710272 19.431641 15.638672 C 19.504141 15.566972 19.562162 15.480819 19.601562 15.386719 C 19.640863 15.292719 19.660156 15.191844 19.660156 15.089844 C 19.660156 14.987444 19.640763 14.887669 19.601562 14.792969 C 19.562362 14.698369 19.504041 14.611463 19.431641 14.539062 C 19.359141 14.466662 19.274287 14.408341 19.179688 14.369141 C 19.085087 14.329941 18.983259 14.310547 18.880859 14.310547 L 14.201172 14.310547 z "
     style="fill:#00c65e;fill-opacity:1" />
  <path
     d="M23.0004 7.31054V17.4905C23.0004 17.7947 22.9403 18.0959 22.8236 18.3769C22.7069 18.6578 22.5358 18.9129 22.3203 19.1275C22.1047 19.3421 21.8489 19.5121 21.5675 19.6276C21.286 19.7431 20.9846 19.8019 20.6804 19.8005H3.68038V18.2605H21.4504V6.55054H3.64038V5.00054H20.6404C20.9479 4.99388 21.2537 5.04871 21.5397 5.16182C21.8258 5.27492 22.0864 5.44402 22.3062 5.65919C22.526 5.87436 22.7007 6.13127 22.8199 6.41484C22.9391 6.69841 23.0005 7.00293 23.0004 7.31054Z"
     fill="#07272D"
     id="path8" />
</svg>
