<svg width="24" height="24" viewBox="0 0 24 24" fill="none" xmlns="http://www.w3.org/2000/svg">
<path d="M22.52 3.68005C22.4866 3.14028 22.2565 2.63148 21.8731 2.25C21.4898 1.86851 20.9799 1.64083 20.44 1.61005L11.77 1.14005C11.4606 1.12114 11.1507 1.16844 10.861 1.2788C10.5713 1.38917 10.3084 1.56005 10.09 1.78005L1 10.61L2.49 12.1L11.62 3.24005L20.4 3.73005L20.88 12.5L13.25 19.87L11.72 21.34L13.25 22.87L22.35 14C22.5659 13.7845 22.7351 13.5267 22.8469 13.2428C22.9587 12.9589 23.0109 12.655 23 12.35L22.52 3.68005Z" fill="#07272D"/>
<path d="M17.92 8.20001C17.92 8.57011 17.8106 8.93196 17.6058 9.2402C17.4009 9.54844 17.1096 9.78935 16.7684 9.93275C16.4272 10.0761 16.0513 10.1156 15.6877 10.0463C15.3242 9.97692 14.9892 9.8018 14.7247 9.54286C14.4603 9.28392 14.2782 8.95269 14.2012 8.59068C14.1242 8.22867 14.1557 7.85199 14.2919 7.50785C14.4281 7.1637 14.6628 6.86741 14.9667 6.6561C15.2705 6.4448 15.63 6.32788 16 6.32001C16.2503 6.31468 16.499 6.35937 16.7318 6.45147C16.9645 6.54356 17.1765 6.68119 17.3553 6.8563C17.5342 7.03141 17.6762 7.24046 17.7732 7.4712C17.8702 7.70194 17.9201 7.94972 17.92 8.20001Z" fill="#00C65E"/>
</svg>
