<?xml version="1.0" encoding="UTF-8" standalone="no"?>
<svg
   width="24"
   height="24"
   viewBox="0 0 24 24"
   fill="none"
   version="1.1"
   id="svg420"
   sodipodi:docname="in-volume-on.svg"
   inkscape:version="1.1 (1:1.1+202105261517+ce6663b3b7)"
   xmlns:inkscape="http://www.inkscape.org/namespaces/inkscape"
   xmlns:sodipodi="http://sodipodi.sourceforge.net/DTD/sodipodi-0.dtd"
   xmlns="http://www.w3.org/2000/svg"
   xmlns:svg="http://www.w3.org/2000/svg">
  <sodipodi:namedview
     id="namedview422"
     pagecolor="#ffffff"
     bordercolor="#666666"
     borderopacity="1.0"
     inkscape:pageshadow="2"
     inkscape:pageopacity="0.0"
     inkscape:pagecheckerboard="0"
     showgrid="false"
     inkscape:zoom="24.306796"
     inkscape:cx="22.606847"
     inkscape:cy="10.017775"
     inkscape:window-width="1920"
     inkscape:window-height="1014"
     inkscape:window-x="0"
     inkscape:window-y="0"
     inkscape:window-maximized="1"
     inkscape:current-layer="svg420" />
  <g
     clip-path="url(#clip0)"
     id="g413">
    <path
       id="path411"
       style="fill:#000000"
       d="M 14.763672 0.001953125 C 14.714642 0.0030861328 14.663959 0.0073774 14.615234 0.015625 C 14.420234 0.0486153 14.240703 0.13765735 14.095703 0.27148438 L 5.6386719 8.0683594 L 2.65625 8.0683594 C 1.95209 8.0694294 1.2772149 8.34827 0.77929688 8.84375 C 0.28138287 9.33923 0.00107587 10.010236 0 10.710938 L 0 13.289062 C 0.00107587 13.989764 0.28138288 14.66085 0.77929688 15.15625 C 1.2772149 15.65175 1.95209 15.930641 2.65625 15.931641 L 5.6386719 15.931641 L 14.095703 23.728516 C 14.283103 23.903216 14.530309 24.0005 14.787109 24 C 15.056909 24 15.315159 23.892925 15.505859 23.703125 C 15.696559 23.513325 15.802734 23.256681 15.802734 22.988281 L 15.802734 1.0117188 C 15.802534 0.81491565 15.745119 0.62354438 15.636719 0.45898438 C 15.528219 0.29442535 15.374659 0.1645489 15.193359 0.0859375 C 15.057309 0.026978665 14.910761 -0.0014458984 14.763672 0.001953125 z M 13.769531 3.3320312 L 13.769531 20.652344 L 7.0527344 14.474609 L 7.0527344 9.5078125 L 13.769531 3.3320312 z M 20.525391 5.0878906 C 20.258691 5.0905606 20.004706 5.1988188 19.816406 5.3867188 C 19.628106 5.5746187 19.521431 5.8284 19.519531 6.09375 C 19.517631 6.3591 19.621141 6.6140975 19.806641 6.8046875 C 21.189941 8.1816875 21.966797 10.048994 21.966797 11.996094 C 21.966797 13.943194 21.189941 15.8105 19.806641 17.1875 C 19.711941 17.2815 19.637137 17.392725 19.585938 17.515625 C 19.534637 17.638625 19.507812 17.771197 19.507812 17.904297 C 19.507812 18.037397 19.534637 18.168016 19.585938 18.291016 C 19.637138 18.413916 19.711941 18.527094 19.806641 18.621094 C 19.899741 18.716094 20.009812 18.790297 20.132812 18.841797 C 20.255812 18.893297 20.388084 18.920222 20.521484 18.919922 C 20.655484 18.919822 20.788509 18.893197 20.912109 18.841797 C 21.035709 18.790397 21.148087 18.715894 21.242188 18.621094 C 22.116588 17.751194 22.810003 16.718631 23.283203 15.582031 C 23.756503 14.445431 24 13.226394 24 11.996094 C 24 10.765794 23.756503 9.5467865 23.283203 8.4101562 C 22.810003 7.2735264 22.116587 6.2409236 21.242188 5.3710938 C 21.050187 5.1870037 20.791991 5.0852206 20.525391 5.0878906 z M 18.3125 9.0097656 C 18.0417 9.0090056 17.781844 9.1166206 17.589844 9.3066406 C 17.397844 9.4966606 17.289863 9.7538965 17.289062 10.023438 C 17.288262 10.292836 17.395036 10.551087 17.585938 10.742188 C 17.752137 10.906287 17.882656 11.101406 17.972656 11.316406 C 18.062656 11.531506 18.109375 11.763194 18.109375 11.996094 C 18.109375 12.228994 18.062656 12.458828 17.972656 12.673828 C 17.882656 12.888828 17.752137 13.084047 17.585938 13.248047 C 17.396638 13.438947 17.289062 13.696644 17.289062 13.964844 C 17.289062 14.233044 17.396636 14.490741 17.585938 14.681641 C 17.680438 14.775741 17.792516 14.849691 17.916016 14.900391 C 18.039616 14.951091 18.171087 14.977064 18.304688 14.976562 C 18.439788 14.978065 18.574119 14.953144 18.699219 14.902344 C 18.824219 14.851644 18.937703 14.776741 19.033203 14.681641 C 19.387803 14.329041 19.669428 13.910019 19.861328 13.449219 C 20.053228 12.988319 20.152344 12.494994 20.152344 11.996094 C 20.152344 11.497294 20.053228 11.003769 19.861328 10.542969 C 19.669428 10.082069 19.387803 9.6631569 19.033203 9.3105469 C 18.842203 9.1194469 18.5833 9.0105256 18.3125 9.0097656 z M 5.0195312 10.080078 L 5.0195312 13.908203 L 2.65625 13.908203 C 2.49152 13.907103 2.3332769 13.842464 2.2167969 13.726562 C 2.1003069 13.610664 2.0342631 13.452962 2.0332031 13.289062 L 2.0332031 10.710938 C 2.0342631 10.547038 2.1003069 10.389337 2.2167969 10.273438 C 2.3332769 10.157538 2.49152 10.092897 2.65625 10.091797 L 5.0195312 10.080078 z " />
  </g>
  <defs
     id="defs418">
    <clipPath
       id="clip0">
      <rect
         width="24"
         height="24"
         fill="white"
         id="rect415" />
    </clipPath>
  </defs>
</svg>
