<?xml version="1.0" encoding="UTF-8" standalone="no"?>
<svg
   width="24"
   height="24"
   viewBox="0 0 24 24"
   fill="none"
   version="1.1"
   id="svg407"
   sodipodi:docname="in-volume-off.svg"
   inkscape:version="1.1 (1:1.1+202105261517+ce6663b3b7)"
   xmlns:inkscape="http://www.inkscape.org/namespaces/inkscape"
   xmlns:sodipodi="http://sodipodi.sourceforge.net/DTD/sodipodi-0.dtd"
   xmlns="http://www.w3.org/2000/svg"
   xmlns:svg="http://www.w3.org/2000/svg">
  <sodipodi:namedview
     id="namedview409"
     pagecolor="#ffffff"
     bordercolor="#666666"
     borderopacity="1.0"
     inkscape:pageshadow="2"
     inkscape:pageopacity="0.0"
     inkscape:pagecheckerboard="0"
     showgrid="false"
     inkscape:zoom="32"
     inkscape:cx="15.620048"
     inkscape:cy="12.510111"
     inkscape:window-width="1920"
     inkscape:window-height="1014"
     inkscape:window-x="0"
     inkscape:window-y="0"
     inkscape:window-maximized="1"
     inkscape:current-layer="g400" />
  <g
     clip-path="url(#clip0)"
     id="g400">
    <path
       id="path398"
       style="fill:#000000"
       d="M 14.763672 0.001953125 C 14.71463 0.0030861328 14.663984 0.0073774 14.615234 0.015625 C 14.420334 0.0486153 14.240703 0.13765736 14.095703 0.27148438 L 9.9042969 4.1367188 C 9.7999669 4.2253087 9.7153169 4.3348013 9.6542969 4.4570312 C 9.5932669 4.5792513 9.5587213 4.7114062 9.5507812 4.8476562 C 9.5428514 4.9839163 9.5609919 5.12157 9.6074219 5.25 C 9.6538519 5.37843 9.7269625 5.4957031 9.8203125 5.5957031 C 9.9136625 5.6956931 10.027044 5.7765012 10.152344 5.8320312 C 10.277544 5.8875512 10.411628 5.9158188 10.548828 5.9179688 C 10.685928 5.9201188 10.822219 5.89533 10.949219 5.84375 C 11.076119 5.79218 11.192563 5.7161606 11.289062 5.6191406 L 13.769531 3.3320312 L 13.769531 9.046875 C 13.769531 9.315265 13.875706 9.5719287 14.066406 9.7617188 C 14.257106 9.9514987 14.517409 10.058594 14.787109 10.058594 C 15.056809 10.058594 15.315159 9.9514987 15.505859 9.7617188 C 15.696559 9.5719287 15.802734 9.315265 15.802734 9.046875 L 15.802734 1.0117188 C 15.802534 0.8149157 15.745219 0.62354438 15.636719 0.45898438 C 15.528319 0.29442536 15.374659 0.1645489 15.193359 0.0859375 C 15.057384 0.026978665 14.910798 -0.0014458984 14.763672 0.001953125 z M 0.96484375 0.046875 C 0.84694427 0.051420812 0.730509 0.076725475 0.62109375 0.12109375 C 0.49604775 0.17180075 0.38272536 0.24691787 0.28710938 0.34179688 C 0.19149436 0.43667586 0.11576243 0.54953713 0.064453125 0.67382812 C 0.013143325 0.79811813 -0.01269715 0.9320453 -0.01171875 1.0664062 C -0.01074025 1.2007762 0.0171981 1.3334912 0.0703125 1.4570312 C 0.1234269 1.5805613 0.199888 1.6916662 0.296875 1.7851562 L 6.140625 7.5996094 L 5.6386719 8.0664062 L 2.65625 8.0664062 C 1.95209 8.0674763 1.2772149 8.3463169 0.77929688 8.8417969 C 0.28138287 9.3372769 0.00107587 10.010137 0 10.710938 L 0 13.289062 C 0.00107587 13.989764 0.28138288 14.66075 0.77929688 15.15625 C 1.2772149 15.65165 1.95209 15.930641 2.65625 15.931641 L 5.6386719 15.931641 L 14.095703 23.728516 C 14.283103 23.903216 14.530309 24.0005 14.787109 24 C 15.056909 24 15.315159 23.892925 15.505859 23.703125 C 15.696559 23.513325 15.802734 23.256681 15.802734 22.988281 L 15.802734 17.214844 L 22.263672 23.644531 C 22.357972 23.739131 22.47025 23.813834 22.59375 23.865234 C 22.71735 23.916634 22.848522 23.943059 22.982422 23.943359 C 23.183022 23.941859 23.378622 23.881031 23.544922 23.769531 C 23.711322 23.658031 23.841169 23.500806 23.917969 23.316406 C 23.994769 23.132006 24.014762 22.930275 23.976562 22.734375 C 23.938263 22.538475 23.843825 22.357144 23.703125 22.214844 L 15.546875 14.097656 C 15.533775 14.082956 15.519959 14.068686 15.505859 14.054688 C 15.491859 14.040687 15.477591 14.026772 15.462891 14.013672 L 8.3847656 6.9726562 C 8.3743356 6.9603263 8.3645756 6.9474269 8.3535156 6.9355469 C 8.3247156 6.9046069 8.2938086 6.8764694 8.2617188 6.8496094 L 1.7363281 0.35546875 C 1.6426481 0.25869175 1.53025 0.18211025 1.40625 0.12890625 C 1.28226 0.07570265 1.150655 0.0482287 1.015625 0.046875 C 0.99874763 0.046705775 0.98168653 0.046225598 0.96484375 0.046875 z M 20.509766 5.0917969 C 20.243166 5.0944669 19.989081 5.202725 19.800781 5.390625 C 19.612481 5.578525 19.505906 5.8323062 19.503906 6.0976562 C 19.502006 6.3630062 19.603562 6.6179938 19.789062 6.8085938 C 20.930963 7.9436837 21.668272 9.4186552 21.888672 11.009766 C 22.108972 12.600866 21.800666 14.220994 21.009766 15.621094 C 20.921166 15.774694 20.8745 15.9479 20.875 16.125 C 20.8755 16.3021 20.924172 16.475806 21.013672 16.628906 C 21.103172 16.782006 21.230266 16.910147 21.384766 16.998047 C 21.539266 17.086047 21.714578 17.131559 21.892578 17.130859 C 22.072478 17.131459 22.25045 17.083741 22.40625 16.994141 C 22.56205 16.904541 22.690097 16.776594 22.779297 16.621094 C 23.788197 14.834594 24.182944 12.768381 23.902344 10.738281 C 23.621844 8.7080915 22.682563 6.82424 21.226562 5.375 C 21.034562 5.19091 20.776366 5.0891269 20.509766 5.0917969 z M 18.308594 9.0078125 C 18.173894 9.0072525 18.040716 9.0332244 17.916016 9.0839844 C 17.791416 9.1347444 17.677731 9.2103275 17.582031 9.3046875 C 17.486431 9.3990375 17.411375 9.5111756 17.359375 9.6347656 C 17.307275 9.7583456 17.279797 9.889457 17.279297 10.023438 C 17.278697 10.157438 17.304369 10.292016 17.355469 10.416016 C 17.406469 10.540116 17.481372 10.652947 17.576172 10.748047 C 17.827872 10.992347 18.001819 11.304084 18.074219 11.646484 C 18.146619 11.988784 18.115775 12.345422 17.984375 12.669922 C 17.884975 12.918522 17.887087 13.197059 17.992188 13.443359 C 18.097288 13.689659 18.296122 13.884828 18.544922 13.986328 C 18.666222 14.035828 18.796734 14.059994 18.927734 14.058594 C 19.131034 14.059094 19.329747 13.998166 19.498047 13.884766 C 19.666347 13.771466 19.795994 13.611728 19.871094 13.423828 C 20.153594 12.732328 20.225272 11.971834 20.076172 11.240234 C 19.927172 10.508734 19.564103 9.8379369 19.033203 9.3105469 C 18.938403 9.2153869 18.825372 9.1396906 18.701172 9.0878906 C 18.576972 9.0360906 18.443194 9.0083725 18.308594 9.0078125 z M 7.578125 9.03125 L 13.769531 15.191406 L 13.769531 20.652344 L 7.0527344 14.474609 L 7.0527344 9.5136719 L 7.578125 9.03125 z M 2.6191406 10.083984 L 5.0195312 10.083984 L 5.0195312 13.908203 L 2.6191406 13.910156 C 2.2933906 13.910156 2.03125 13.648016 2.03125 13.322266 L 2.03125 10.671875 C 2.03125 10.346125 2.2933906 10.083984 2.6191406 10.083984 z " />
  </g>
  <defs
     id="defs405">
    <clipPath
       id="clip0">
      <rect
         width="24"
         height="24"
         fill="white"
         id="rect402" />
    </clipPath>
  </defs>
</svg>
