<svg width="24" height="24" viewBox="0 0 24 24" fill="none" xmlns="http://www.w3.org/2000/svg">
<path d="M17.5 8C15.019 8 13 10.019 13 12.5C13 13.425 13.281 14.284 13.762 15H10.239C10.719 14.284 11 13.425 11 12.5C11 10.019 8.981 8 6.5 8C4.019 8 2 10.019 2 12.5C2 14.981 4.019 17 6.5 17C6.671 17 6.834 16.968 7 16.949V17H18V16.949C20.244 16.697 22 14.81 22 12.5C22 10.019 19.981 8 17.5 8ZM4 12.5C4 11.121 5.121 10 6.5 10C7.879 10 9 11.121 9 12.5C9 13.879 7.879 15 6.5 15C5.121 15 4 13.879 4 12.5ZM17.5 15C16.121 15 15 13.879 15 12.5C15 11.121 16.121 10 17.5 10C18.879 10 20 11.121 20 12.5C20 13.879 18.879 15 17.5 15Z" fill="black"/>
</svg>
