<?xml version="1.0" encoding="UTF-8" standalone="no"?>
<svg
   xmlns:dc="http://purl.org/dc/elements/1.1/"
   xmlns:cc="http://creativecommons.org/ns#"
   xmlns:rdf="http://www.w3.org/1999/02/22-rdf-syntax-ns#"
   xmlns:svg="http://www.w3.org/2000/svg"
   xmlns="http://www.w3.org/2000/svg"
   xmlns:sodipodi="http://sodipodi.sourceforge.net/DTD/sodipodi-0.dtd"
   xmlns:inkscape="http://www.inkscape.org/namespaces/inkscape"
   width="24"
   height="24"
   viewBox="0 0 24 24"
   fill="none"
   version="1.1"
   id="svg8"
   sodipodi:docname="in-x-circulo.svg"
   inkscape:version="1.0.2 (e86c870879, 2021-01-15)">
  <metadata
     id="metadata14">
    <rdf:RDF>
      <cc:Work
         rdf:about="">
        <dc:format>image/svg+xml</dc:format>
        <dc:type
           rdf:resource="http://purl.org/dc/dcmitype/StillImage" />
      </cc:Work>
    </rdf:RDF>
  </metadata>
  <defs
     id="defs12" />
  <sodipodi:namedview
     pagecolor="#ffffff"
     bordercolor="#666666"
     borderopacity="1"
     objecttolerance="10"
     gridtolerance="10"
     guidetolerance="10"
     inkscape:pageopacity="0"
     inkscape:pageshadow="2"
     inkscape:window-width="1920"
     inkscape:window-height="1016"
     id="namedview10"
     showgrid="false"
     inkscape:zoom="8.3333333"
     inkscape:cx="34.25745"
     inkscape:cy="26.700805"
     inkscape:window-x="0"
     inkscape:window-y="0"
     inkscape:window-maximized="1"
     inkscape:current-layer="svg8" />
  <path
     id="path2"
     d="M 12 3 C 7.02944 3 3 7.02944 3 12 C 3 16.9706 7.02944 21 12 21 C 16.9706 21 21 16.9706 21 12 C 21 7.02944 16.9706 3 12 3 z M 12 4.6367188 C 16.0668 4.6367187 19.363281 7.93318 19.363281 12 C 19.363281 16.0668 16.0668 19.363281 12 19.363281 C 7.93318 19.363281 4.6367188 16.0668 4.6367188 12 C 4.6367187 7.93318 7.93318 4.6367188 12 4.6367188 z M 9.5449219 8.7265625 C 9.3355294 8.7265625 9.1265569 8.8070369 8.9667969 8.9667969 C 8.6472769 9.2863169 8.6472769 9.8035269 8.9667969 10.123047 L 10.84375 12 L 8.9667969 13.876953 C 8.6472769 14.196453 8.6472769 14.713703 8.9667969 15.033203 C 9.2863169 15.352703 9.8035269 15.352703 10.123047 15.033203 L 12 13.15625 L 13.876953 15.033203 C 14.196453 15.352703 14.713703 15.352703 15.033203 15.033203 C 15.352703 14.713703 15.352703 14.196453 15.033203 13.876953 L 13.15625 12 L 15.033203 10.123047 C 15.352703 9.8035269 15.352703 9.2863169 15.033203 8.9667969 C 14.713703 8.6472769 14.196453 8.6472769 13.876953 8.9667969 L 12 10.84375 L 10.123047 8.9667969 C 9.9632869 8.8070369 9.7543144 8.7265625 9.5449219 8.7265625 z "
     style="fill:#000000" />
</svg>
