<?xml version="1.0" encoding="UTF-8" standalone="no"?>
<svg
   xmlns:dc="http://purl.org/dc/elements/1.1/"
   xmlns:cc="http://creativecommons.org/ns#"
   xmlns:rdf="http://www.w3.org/1999/02/22-rdf-syntax-ns#"
   xmlns:svg="http://www.w3.org/2000/svg"
   xmlns="http://www.w3.org/2000/svg"
   xmlns:sodipodi="http://sodipodi.sourceforge.net/DTD/sodipodi-0.dtd"
   xmlns:inkscape="http://www.inkscape.org/namespaces/inkscape"
   width="24"
   height="24"
   viewBox="0 0 24 24"
   fill="none"
   version="1.1"
   id="svg12"
   sodipodi:docname="in-arquivo.svg"
   inkscape:version="1.0.2 (e86c870879, 2021-01-15)">
  <metadata
     id="metadata18">
    <rdf:RDF>
      <cc:Work
         rdf:about="">
        <dc:format>image/svg+xml</dc:format>
        <dc:type
           rdf:resource="http://purl.org/dc/dcmitype/StillImage" />
      </cc:Work>
    </rdf:RDF>
  </metadata>
  <defs
     id="defs16" />
  <sodipodi:namedview
     pagecolor="#ffffff"
     bordercolor="#666666"
     borderopacity="1"
     objecttolerance="10"
     gridtolerance="10"
     guidetolerance="10"
     inkscape:pageopacity="0"
     inkscape:pageshadow="2"
     inkscape:window-width="1920"
     inkscape:window-height="1016"
     id="namedview14"
     showgrid="false"
     inkscape:zoom="11.785113"
     inkscape:cx="33.468922"
     inkscape:cy="26.510134"
     inkscape:window-x="0"
     inkscape:window-y="0"
     inkscape:window-maximized="1"
     inkscape:current-layer="svg12" />
  <path
     id="path2"
     d="M 6.7265625 2 C 6.0032525 2 5.3102881 2.2873681 4.7988281 2.7988281 C 4.2873681 3.3102881 4 4.0032525 4 4.7265625 L 4 19.273438 C 4 19.996737 4.2873681 20.689672 4.7988281 21.201172 C 5.3102881 21.712672 6.0032425 22 6.7265625 22 L 17.636719 22 C 18.360019 22 19.053053 21.712672 19.564453 21.201172 C 20.075953 20.689672 20.363281 19.996737 20.363281 19.273438 L 20.363281 8.3632812 C 20.363281 8.2427262 20.338206 8.1229294 20.292969 8.0136719 C 20.246921 7.9035218 20.180787 7.8038337 20.097656 7.7207031 L 14.642578 2.265625 C 14.472078 2.095135 14.2411 2 14 2 L 6.7265625 2 z M 6.7265625 3.8183594 L 13.091797 3.8183594 L 13.091797 8.3632812 C 13.091797 8.8653512 13.4979 9.2734375 14 9.2734375 L 18.544922 9.2734375 L 18.544922 19.273438 C 18.544922 19.514537 18.449797 19.745516 18.279297 19.916016 C 18.108797 20.086416 17.877819 20.181641 17.636719 20.181641 L 6.7265625 20.181641 C 6.4854625 20.181641 6.2544744 20.086416 6.0839844 19.916016 C 5.9134944 19.745516 5.8183594 19.514537 5.8183594 19.273438 L 5.8183594 4.7265625 C 5.8183594 4.4854625 5.9134944 4.2544744 6.0839844 4.0839844 C 6.2544744 3.9134944 6.4854625 3.8183594 6.7265625 3.8183594 z M 14.908203 5.1035156 L 17.259766 7.4550781 L 14.908203 7.4550781 L 14.908203 5.1035156 z M 8.5449219 8.3632812 C 8.0428519 8.3632812 7.6367188 8.7713575 7.6367188 9.2734375 C 7.6367187 9.7755075 8.0428519 10.181641 8.5449219 10.181641 L 10.363281 10.181641 C 10.865381 10.181641 11.273438 9.7755075 11.273438 9.2734375 C 11.273438 8.7713575 10.865381 8.3632812 10.363281 8.3632812 L 8.5449219 8.3632812 z M 8.5449219 12 C 8.0428519 12 7.6367188 12.406103 7.6367188 12.908203 C 7.6367187 13.410303 8.0428519 13.818359 8.5449219 13.818359 L 15.818359 13.818359 C 16.320459 13.818359 16.726562 13.410303 16.726562 12.908203 C 16.726563 12.406103 16.320459 12 15.818359 12 L 8.5449219 12 z M 8.5449219 15.636719 C 8.0428519 15.636719 7.6367188 16.042822 7.6367188 16.544922 C 7.6367187 17.046922 8.0428519 17.455078 8.5449219 17.455078 L 15.818359 17.455078 C 16.320459 17.455078 16.726562 17.046922 16.726562 16.544922 C 16.726563 16.042822 16.320459 15.636719 15.818359 15.636719 L 8.5449219 15.636719 z "
     style="fill:#000000" />
</svg>
