<svg width="24" height="24" viewBox="0 0 24 24" fill="none" xmlns="http://www.w3.org/2000/svg">
<g clip-path="url(#clip0)">
<path fill-rule="evenodd" clip-rule="evenodd" d="M0.893395 6.59927C1.05219 6.69464 1.23401 6.74482 1.41924 6.74441C1.58547 6.74433 1.74915 6.70349 1.89595 6.62549C2.04275 6.54748 2.16818 6.43467 2.26127 6.29695C3.67564 4.22927 5.75828 2.71109 8.15958 1.99729C8.29005 1.9613 8.41202 1.89963 8.51835 1.8159C8.62468 1.73216 8.71323 1.62804 8.7788 1.50964C8.84437 1.39125 8.88565 1.26095 8.90021 1.12639C8.91478 0.991836 8.90234 0.855725 8.86362 0.726038C8.8249 0.596351 8.76069 0.475697 8.67474 0.371147C8.58879 0.266597 8.48284 0.180255 8.36309 0.117182C8.24335 0.0541087 8.11221 0.0155729 7.97738 0.00383307C7.84255 -0.00790673 7.70673 0.00738573 7.57788 0.0488141C4.7282 0.89787 2.2567 2.70015 0.577205 5.1539C0.472735 5.30686 0.412026 5.48544 0.401628 5.67038C0.391231 5.85531 0.43154 6.03958 0.518206 6.20328C0.604873 6.36698 0.734603 6.50391 0.893395 6.59927ZM22.5514 6.78105C22.3851 6.78168 22.2211 6.74116 22.0742 6.66309C21.9273 6.58502 21.802 6.47183 21.7094 6.33359C20.31 4.25755 18.2272 2.7376 15.8233 2.038C15.6948 2.00141 15.5748 1.93987 15.4701 1.8569C15.3654 1.77393 15.2781 1.67115 15.2131 1.55443C15.0819 1.31871 15.0497 1.04051 15.1236 0.781052C15.1975 0.521589 15.3715 0.302111 15.6072 0.170899C15.8429 0.0396869 16.1211 0.00749002 16.3806 0.081391C19.2447 0.912191 21.7266 2.72173 23.3935 5.19461C23.4968 5.34753 23.5566 5.5257 23.5664 5.71001C23.5763 5.89433 23.5357 6.07784 23.4492 6.24087C23.3627 6.40391 23.2334 6.54032 23.0752 6.63548C22.9171 6.73064 22.736 6.78096 22.5514 6.78105ZM6.14767 22.2338C7.87498 23.3881 9.9058 24.0042 11.9833 24.0042C14.7675 24.002 17.4371 22.8953 19.4062 20.9269C21.3754 18.9586 22.4831 16.2894 22.4863 13.5052C22.4871 11.4277 21.8718 9.39663 20.7182 7.66888C19.5646 5.94113 17.9246 4.59429 16.0054 3.79872C14.0863 3.00314 11.9744 2.79457 9.93673 3.19937C7.89907 3.60417 6.02723 4.60417 4.55794 6.07289C3.08866 7.5416 2.08793 9.41306 1.68234 11.4506C1.27675 13.4881 1.48451 15.6001 2.27934 17.5195C3.07417 19.4389 4.42037 21.0795 6.14767 22.2338ZM7.27807 6.46333C8.67082 5.53272 10.3082 5.03602 11.9833 5.03602C14.2288 5.03817 16.3817 5.93115 17.9695 7.51895C19.5573 9.10676 20.4503 11.2597 20.4524 13.5052C20.4524 15.1802 19.9557 16.8176 19.0251 18.2104C18.0945 19.6031 16.7718 20.6886 15.2243 21.3296C13.6767 21.9707 11.9739 22.1384 10.331 21.8116C8.68818 21.4848 7.17912 20.6782 5.99468 19.4938C4.81025 18.3093 4.00364 16.8003 3.67686 15.1574C3.35008 13.5146 3.51779 11.8117 4.1588 10.2642C4.79981 8.71663 5.88533 7.39393 7.27807 6.46333ZM14.2328 17.8087C14.3811 17.8951 14.5493 17.9414 14.721 17.943C14.9456 17.9458 15.1648 17.8742 15.3444 17.7393C15.5241 17.6045 15.654 17.4139 15.7139 17.1974C15.7738 16.9809 15.7604 16.7507 15.6757 16.5427C15.591 16.3346 15.4398 16.1605 15.2457 16.0474L13.0125 14.762V10.0799C13.0125 9.81023 12.9053 9.55156 12.7146 9.36085C12.5239 9.17013 12.2652 9.06299 11.9955 9.06299C11.7258 9.06299 11.4671 9.17013 11.2764 9.36085C11.0857 9.55156 10.9786 9.81023 10.9786 10.0799V15.3477C10.9793 15.5263 11.0271 15.7015 11.1171 15.8557C11.2071 16.01 11.3361 16.1378 11.4911 16.2264L14.2328 17.8087Z" fill="black"/>
</g>
<defs>
<clipPath id="clip0">
<rect width="24" height="24" fill="white"/>
</clipPath>
</defs>
</svg>
