<svg width="24" height="24" viewBox="0 0 24 24" fill="none" xmlns="http://www.w3.org/2000/svg">
<path d="M15.7006 8.04129C14.6922 7.09703 13.3835 6.57942 11.9951 6.58065C9.49645 6.58284 7.33935 8.29606 6.74377 10.6726C6.70042 10.8456 6.54629 10.9677 6.36794 10.9677H4.51945C4.27758 10.9677 4.09384 10.7482 4.13858 10.5105C4.83655 6.804 8.09074 4 12 4C14.1435 4 16.09 4.8431 17.5263 6.21565L18.6784 5.06355C19.1661 4.57584 20 4.92126 20 5.611V9.93548C20 10.3631 19.6534 10.7097 19.2258 10.7097H14.9013C14.2116 10.7097 13.8662 9.87577 14.3539 9.38803L15.7006 8.04129ZM4.77419 13.2903H9.09868C9.78842 13.2903 10.1338 14.1242 9.64613 14.612L8.29935 15.9587C9.30781 16.903 10.6166 17.4206 12.005 17.4194C14.5024 17.4171 16.6604 15.7051 17.2562 13.3275C17.2996 13.1545 17.4537 13.0323 17.6321 13.0323H19.4806C19.7225 13.0323 19.9062 13.2519 19.8615 13.4896C19.1635 17.196 15.9093 20 12 20C9.85652 20 7.90997 19.1569 6.47371 17.7844L5.32161 18.9365C4.8339 19.4242 4 19.0787 4 18.389V14.0645C4 13.6369 4.34661 13.2903 4.77419 13.2903Z" fill="black"/>
</svg>
