<?xml version="1.0" encoding="UTF-8" standalone="no"?>
<svg
   width="24"
   height="24"
   viewBox="0 0 24 24"
>
  <g
     id="g881">
    <path
       d="m 14.721,17.943 c -0.1717,-0.0016 -0.3399,-0.0479 -0.4882,-0.1343 l -2.7417,-1.5823 c -0.155,-0.0886 -0.284,-0.2164 -0.374,-0.3707 -0.09,-0.1542 -0.1378,-0.3294 -0.1385,-0.508 v -5.2678 c 0,-0.26967 0.1071,-0.52834 0.2978,-0.71905 0.1907,-0.19072 0.4494,-0.29786 0.7191,-0.29786 0.2697,0 0.5284,0.10714 0.7191,0.29786 0.1907,0.19071 0.2979,0.44938 0.2979,0.71905 v 4.6821 l 2.2332,1.2854 c 0.1941,0.1131 0.3453,0.2872 0.43,0.4953 0.0847,0.208 0.0981,0.4382 0.0382,0.6547 -0.0599,0.2165 -0.1898,0.4071 -0.3695,0.5419 -0.1796,0.1349 -0.3988,0.2065 -0.6234,0.2037 z"
       fill="#00c65e"
       id="path4" />
    <g
       id="g52">
      <path
         id="path8"
         d="M 1.41924,6.74441 C 1.23401,6.74482 1.05219,6.69464 0.893395,6.59927 0.734603,6.50391 0.604872,6.36698 0.518206,6.20328 0.43154,6.03958 0.391231,5.85531 0.401628,5.67038 0.412026,5.48544 0.472735,5.30686 0.577205,5.1539 2.2567,2.70015 4.7282,0.89787 7.57788,0.0488141 7.70673,0.00738573 7.84255,-0.00790673 7.97738,0.00383307 8.11221,0.0155729 8.24335,0.0541087 8.36309,0.117182 8.48284,0.180255 8.58879,0.266597 8.67474,0.371147 8.76069,0.475697 8.8249,0.596351 8.86362,0.726038 8.90234,0.855725 8.91478,0.991836 8.90021,1.12639 8.88565,1.26095 8.84437,1.39125 8.7788,1.50964 8.71323,1.62804 8.62468,1.73216 8.51835,1.8159 8.41202,1.89963 8.29005,1.9613 8.15958,1.99729 5.75828,2.71109 3.67564,4.22927 2.26127,6.29695 2.16818,6.43467 2.04275,6.54748 1.89595,6.62549 1.74915,6.70349 1.58547,6.74433 1.41924,6.74441 Z M 22.5514,6.78105 C 22.3851,6.78168 22.2211,6.74116 22.0742,6.66309 21.9273,6.58502 21.802,6.47183 21.7094,6.33359 20.31,4.25755 18.2272,2.7376 15.8233,2.038 15.6948,2.00141 15.5748,1.93987 15.4701,1.8569 15.3654,1.77393 15.2781,1.67115 15.2131,1.55443 15.0819,1.31871 15.0497,1.04051 15.1236,0.781052 c 0.0739,-0.259463 0.2479,-0.478941 0.4836,-0.610153 0.2357,-0.1312121 0.5139,-0.16340898 0.7734,-0.089508 2.8641,0.8308 5.346,2.640339 7.0129,5.113219 0.1033,0.15292 0.1631,0.33109 0.1729,0.5154 0.0099,0.18432 -0.0307,0.36783 -0.1172,0.53086 -0.0865,0.16304 -0.2158,0.29945 -0.374,0.39461 -0.1581,0.09516 -0.3392,0.14548 -0.5238,0.14557 z M 11.9833,24.0042 c -2.0775,0 -4.10832,-0.6161 -5.83563,-1.7704 C 4.42037,21.0795 3.07417,19.4389 2.27934,17.5195 1.48451,15.6001 1.27675,13.4881 1.68234,11.4506 2.08793,9.41306 3.08866,7.5416 4.55794,6.07289 6.02723,4.60417 7.89907,3.60417 9.93673,3.19937 11.9744,2.79457 14.0863,3.00314 16.0054,3.79872 c 1.9192,0.79557 3.5592,2.14241 4.7128,3.87016 1.1536,1.72775 1.7689,3.75882 1.7681,5.83632 -0.0032,2.7842 -1.1109,5.4534 -3.0801,7.4217 -1.9691,1.9684 -4.6387,3.0751 -7.4229,3.0773 z m 0,-18.96818 c -1.6751,0 -3.31248,0.4967 -4.70523,1.42731 -1.39274,0.9306 -2.47826,2.2533 -3.11927,3.80087 -0.64101,1.5475 -0.80872,3.2504 -0.48194,4.8932 0.32678,1.6429 1.13339,3.1519 2.31782,4.3364 1.18444,1.1844 2.6935,1.991 4.33632,2.3178 1.6429,0.3268 3.3457,0.1591 4.8933,-0.482 1.5475,-0.641 2.8702,-1.7265 3.8008,-3.1192 0.9306,-1.3928 1.4273,-3.0302 1.4273,-4.7052 C 20.4503,11.2597 19.5573,9.10676 17.9695,7.51895 16.3817,5.93115 14.2288,5.03817 11.9833,5.03602 Z"
         style="fill:#07272d;fill-opacity:1" />
    </g>
  </g>
</svg>
