<svg width="24" height="24" viewBox="0 0 24 24" fill="none" xmlns="http://www.w3.org/2000/svg">
<path d="M5 6.996C5 6.998 5 6.999 5 7V7.001L5 15C5 16.838 5.737 18.586 7.076 19.924C8.415 21.263 10.163 22 12 22C13.838 22 15.586 21.263 16.924 19.924C18.263 18.586 19 16.838 19 15V7H17V15C17 16.303 16.471 17.55 15.51 18.51C14.55 19.471 13.303 20 12 20C10.698 20 9.451 19.471 8.49 18.51C7.529 17.55 7 16.303 7 15L7 7H6L7 6.999C7 6.998 7 6.997 7 6.996C7 6.206 7.314 5.457 7.886 4.887C8.457 4.316 9.208 4.001 10.002 4C10.791 3.999 11.541 4.313 12.112 4.884C12.684 5.457 12.999 6.209 13 7L13 15C13 15.256 12.893 15.505 12.7 15.698C12.505 15.893 12.256 16 12 16C11.748 16 11.493 15.89 11.302 15.699C11.107 15.505 11 15.256 11 15V7H9V15C9 15.79 9.315 16.541 9.889 17.114C10.461 17.686 11.211 18 12 18C12.789 18 13.54 17.686 14.114 17.112C14.686 16.54 15 15.789 15 15L15 6.999C14.999 5.675 14.477 4.422 13.527 3.471C12.577 2.52 11.323 1.998 9.999 2C8.673 2.001 7.42 2.524 6.472 3.472C5.522 4.42 5 5.672 5 6.996Z" fill="black"/>
</svg>
