<svg width="24" height="24" viewBox="0 0 24 24" fill="none" xmlns="http://www.w3.org/2000/svg">
<path fill-rule="evenodd" clip-rule="evenodd" d="M19.61 16H16.61L16.64 16.01C15.4477 16.8223 14.0085 17.191 12.5725 17.0521C11.1365 16.9133 9.7946 16.2756 8.78 15.25C8.20632 14.6693 7.75359 13.9804 7.44804 13.2234C7.14249 12.4664 6.99021 11.6563 7 10.84C7.02255 10.0117 7.21119 9.19628 7.55474 8.44219C7.89829 7.68809 8.38976 7.01065 9 6.45004C9.60557 5.90108 10.3147 5.47856 11.0857 5.20725C11.8567 4.93593 12.6741 4.82129 13.49 4.87004C14.6249 4.9374 15.7173 5.32581 16.64 5.99004H16.7H19.7L19.34 5.58004C17.996 4.04557 16.1301 3.06486 14.1041 2.82811C12.0781 2.59135 10.0363 3.11541 8.3748 4.29867C6.71326 5.48193 5.55033 7.24006 5.11155 9.23211C4.67276 11.2242 4.98938 13.3082 6 15.08L1 19.08L2.81 21.34L7.81 17.27C9.44936 18.6523 11.5649 19.3374 13.7034 19.1785C15.8418 19.0196 17.8329 18.0294 19.25 16.42L19.61 16ZM22.725 8.68988C22.9019 8.50372 23.0003 8.25665 23 7.99988C22.9987 7.87643 22.9731 7.75445 22.9247 7.64091C22.8762 7.52736 22.8059 7.42447 22.7176 7.33811C22.6294 7.25175 22.5251 7.18361 22.4105 7.13759C22.296 7.09157 22.1735 7.06856 22.05 7.06988H15.77V8.99988H22.05C22.3065 8.98704 22.5482 8.87604 22.725 8.68988ZM22.7051 14.3019C22.8805 14.1284 22.9855 13.8962 23 13.6499C22.9903 13.4001 22.8874 13.163 22.7116 12.9853C22.5357 12.8076 22.2997 12.7023 22.05 12.6899H15.77V14.5899H22.05C22.2964 14.578 22.5297 14.4755 22.7051 14.3019ZM23 10.8299C22.9879 11.0779 22.8839 11.3126 22.7083 11.4882C22.5327 11.6638 22.2981 11.7678 22.05 11.7799H14.05V9.87988H22.05C22.2981 9.892 22.5327 9.99598 22.7083 10.1716C22.8839 10.3472 22.9879 10.5818 23 10.8299Z" fill="black"/>
</svg>
