<svg width="24" height="24" viewBox="0 0 24 24" fill="none" xmlns="http://www.w3.org/2000/svg">
<path fill-rule="evenodd" clip-rule="evenodd" d="M22.5425 3.57292V20.4738C22.54 21.0104 22.3257 21.5244 21.9463 21.9038C21.5668 22.2833 21.0529 22.4975 20.5162 22.5H2V20.7352H20.8337V3.2181H2V1.5H20.5162C20.7859 1.50119 21.0527 1.55597 21.3011 1.66114C21.5494 1.76632 21.7744 1.9198 21.9629 2.11267C22.1514 2.30554 22.2997 2.53395 22.3992 2.78463C22.4987 3.03531 22.5474 3.30326 22.5425 3.57292ZM10.2357 7.50384C10.2332 7.73005 10.1416 7.94616 9.98081 8.10525C9.81997 8.26434 9.60287 8.35356 9.37665 8.35355H7.79861V9.94092C7.77651 10.1521 7.67696 10.3476 7.51918 10.4898C7.36141 10.6319 7.15658 10.7105 6.94423 10.7105C6.73189 10.7105 6.52706 10.6319 6.36929 10.4898C6.21151 10.3476 6.11196 10.1521 6.08986 9.94092V8.35355H3.66211V6.65412H6.08986V4.21704H7.79861V6.65412H9.37665C9.48902 6.65289 9.60052 6.67396 9.70469 6.7161C9.80886 6.75825 9.90364 6.82065 9.98353 6.89967C10.0634 6.9787 10.1269 7.07279 10.1701 7.17649C10.2134 7.2802 10.2357 7.39146 10.2357 7.50384ZM8.66691 18.8021C8.88947 18.8021 9.10472 18.7227 9.27385 18.578C9.43522 18.4153 9.52577 18.1955 9.52577 17.9664C9.52577 17.7373 9.43522 17.5174 9.27385 17.3548L8.15335 16.253L9.27385 15.1325C9.43464 14.9714 9.52496 14.7531 9.52496 14.5255C9.52496 14.2979 9.43464 14.0796 9.27385 13.9186C9.10472 13.7739 8.88947 13.6944 8.66691 13.6944C8.44435 13.6944 8.22911 13.7739 8.05998 13.9186L6.94882 15.0391L5.23072 13.3303L4.01685 14.5255L5.73494 16.253L4.01685 17.9617L5.23072 19.1756L6.94882 17.4482L8.05998 18.578C8.22911 18.7227 8.44435 18.8021 8.66691 18.8021ZM19.069 7.50406C19.0665 7.73027 18.9749 7.94638 18.8141 8.10547C18.6532 8.26456 18.4361 8.35378 18.2099 8.35377H12.4954V6.65435H18.2099C18.3223 6.65311 18.4338 6.67418 18.5379 6.71633C18.6421 6.75848 18.7369 6.82087 18.8168 6.8999C18.8967 6.97892 18.9601 7.07301 19.0034 7.17672C19.0467 7.28042 19.069 7.39168 19.069 7.50406ZM18.8173 16.7299C18.9784 16.5688 19.069 16.3503 19.069 16.1225C19.069 15.8946 18.9784 15.6761 18.8173 15.515C18.6562 15.3539 18.4377 15.2634 18.2099 15.2634H12.4954V16.9815H18.2099C18.4377 16.9815 18.6562 16.891 18.8173 16.7299ZM16.8746 13.7786C16.8493 14.0521 16.7228 14.3063 16.5199 14.4914C16.3169 14.6765 16.0521 14.7791 15.7775 14.7791C15.5028 14.7791 15.238 14.6765 15.035 14.4914C14.8321 14.3063 14.7056 14.0521 14.6803 13.7786C14.7056 13.5051 14.8321 13.2508 15.035 13.0658C15.238 12.8807 15.5028 12.7781 15.7775 12.7781C16.0521 12.7781 16.3169 12.8807 16.5199 13.0658C16.7228 13.2508 16.8493 13.5051 16.8746 13.7786ZM16.6928 19.0727C16.8132 18.89 16.8765 18.6757 16.8746 18.457C16.8746 18.1673 16.7595 17.8894 16.5546 17.6845C16.3498 17.4796 16.0719 17.3645 15.7821 17.3645C15.5634 17.3627 15.3491 17.426 15.1665 17.5463C14.9839 17.6667 14.8412 17.8387 14.7567 18.0404C14.6721 18.2421 14.6495 18.4644 14.6917 18.679C14.734 18.8936 14.8391 19.0908 14.9937 19.2454C15.1484 19.4001 15.3456 19.5052 15.5602 19.5474C15.7748 19.5896 15.9971 19.567 16.1988 19.4825C16.4005 19.3979 16.5725 19.2553 16.6928 19.0727Z" fill="black"/>
</svg>
