<svg width="24" height="24" viewBox="0 0 24 24" fill="none" xmlns="http://www.w3.org/2000/svg">
<path d="M2 19V4H2.70312V19H2ZM3.0491 18.9893V4H3.40625V18.9893H3.0491ZM4.10938 18.9893V4H4.45535V18.9893H4.10938ZM5.8616 18.9893V4H6.20758V18.9893H5.8616ZM7.26785 18.9893V4H7.9598V18.9893H7.26785ZM9.02008 18.9893V4H9.36605V18.9893H9.02008ZM9.7232 18.9893V4H10.0692V18.9893H9.7232ZM10.4263 18.9893V4H10.7723V18.9893H10.4263ZM11.8214 18.9893V4H12.5246V18.9893H11.8214ZM13.5737 18.9893V4H14.2768V18.9893H13.5737ZM14.9799 18.9893V4H15.683V18.9893H14.9799ZM16.3862 18.9893V4H17.0893V18.9893H16.3862ZM17.4353 18.9893V4H18.1384V18.9893H17.4353ZM19.1987 18.9893V4H20.2478V18.9893H19.1987ZM20.5938 18.9893V4H20.9509V18.9893H20.5938ZM21.2969 19V4H22V19H21.2969Z" fill="black"/>
</svg>
