<svg width="24" height="24" viewBox="0 0 24 24" fill="none" xmlns="http://www.w3.org/2000/svg">
<path d="M11.31 1.30009C9.94107 1.28737 8.60297 1.70652 7.48595 2.49796C6.36892 3.2894 5.52982 4.41284 5.08795 5.70855C4.64608 7.00427 4.62393 8.40631 5.02464 9.71533C5.42535 11.0244 6.22854 12.1737 7.32 13.0001C5.45467 13.7801 3.86046 15.0924 2.73648 16.7731C1.61249 18.4537 1.00852 20.4282 1 22.4501V22.7001H3.19V22.4501C3.19265 20.2973 4.04899 18.2335 5.57122 16.7113C7.09344 15.1891 9.15726 14.3327 11.31 14.3301H11.56C13.2238 14.2114 14.7785 13.4586 15.9034 12.227C17.0283 10.9955 17.6376 9.3791 17.6055 7.71142C17.5734 6.04374 16.9025 4.452 15.731 3.26459C14.5596 2.07719 12.9771 1.38473 11.31 1.33009V1.30009ZM7 7.81009C7 6.95369 7.25395 6.11653 7.72974 5.40447C8.20552 4.6924 8.88178 4.13741 9.67298 3.80969C10.4642 3.48196 11.3348 3.39621 12.1747 3.56329C13.0147 3.73036 13.7862 4.14275 14.3918 4.74831C14.9973 5.35387 15.4097 6.12541 15.5768 6.96534C15.7439 7.80528 15.6581 8.6759 15.3304 9.4671C15.0027 10.2583 14.4477 10.9346 13.7356 11.4103C13.0236 11.8861 12.1864 12.1401 11.33 12.1401C10.1824 12.1374 9.08261 11.6804 8.27114 10.8689C7.45968 10.0575 7.00264 8.95766 7 7.81009Z" fill="#07272D"/>
<path d="M23 16.0001L19.07 15.4201L17.3 11.8701L15.55 15.4301L11.61 16.0001L14.46 18.7701L13.78 22.6901L17.3 20.8401L20.82 22.6901L20.15 18.7701L23 16.0001ZM17.3 14.3301L18.3 16.4301L20.61 16.7601L19 18.4001L19.39 20.7101L17.78 19.8601L17.32 19.6201L15.26 20.7101L15.65 18.4001L14 16.7701L16.32 16.4401L17.3 14.3301Z" fill="#00C65E"/>
</svg>
