<svg width="24" height="24" viewBox="0 0 24 24" fill="none" xmlns="http://www.w3.org/2000/svg">
<path fill-rule="evenodd" clip-rule="evenodd" d="M22.2099 21.36V2.64C22.2073 2.20413 22.0323 1.78701 21.7232 1.47973C21.414 1.17246 20.9958 0.999992 20.5599 1H1.81995V23H3.81995V3H20.1799V23H20.5599C20.9958 23 21.414 22.8275 21.7232 22.5203C22.0323 22.213 22.2073 21.7959 22.2099 21.36ZM13.22 18.74H10.78C10.536 18.74 10.302 18.8369 10.1294 19.0095C9.95691 19.182 9.85999 19.416 9.85999 19.66V23H14.14V19.66C14.14 19.416 14.0431 19.182 13.8705 19.0095C13.698 18.8369 13.464 18.74 13.22 18.74ZM10.18 13.2601V15.6901C10.18 15.9341 10.0831 16.1681 9.91058 16.3406C9.73805 16.5132 9.50404 16.6101 9.26004 16.6101H5.92004V12.3401H9.26004C9.50324 12.3427 9.73573 12.4405 9.90771 12.6124C10.0797 12.7844 10.1774 13.0169 10.18 13.2601ZM17.87 15.7101V13.2401C17.8701 13.0065 17.7794 12.782 17.6171 12.6141C17.4547 12.4461 17.2335 12.3479 17 12.3401H13.62V16.6101H16.97C17.2087 16.6101 17.4376 16.5153 17.6064 16.3465C17.7752 16.1777 17.87 15.9488 17.87 15.7101ZM10.18 5.82991V8.25991C10.18 8.50391 10.0831 8.73792 9.91058 8.91045C9.73805 9.08298 9.50404 9.17991 9.26004 9.17991H5.92004V4.90991H9.26004C9.50404 4.90991 9.73805 5.00684 9.91058 5.17937C10.0831 5.35191 10.18 5.58591 10.18 5.82991ZM17.87 8.24991V5.82991C17.8703 5.59433 17.7803 5.3676 17.6184 5.19643C17.4566 5.02527 17.2352 4.92272 17 4.90991H13.62V9.17991H16.95C17.1949 9.17728 17.4289 9.07813 17.6012 8.90401C17.7734 8.72989 17.87 8.49484 17.87 8.24991Z" fill="black"/>
</svg>
