<?xml version="1.0" encoding="UTF-8" standalone="no"?>
<svg
   xmlns:dc="http://purl.org/dc/elements/1.1/"
   xmlns:cc="http://creativecommons.org/ns#"
   xmlns:rdf="http://www.w3.org/1999/02/22-rdf-syntax-ns#"
   xmlns:svg="http://www.w3.org/2000/svg"
   xmlns="http://www.w3.org/2000/svg"
   xmlns:sodipodi="http://sodipodi.sourceforge.net/DTD/sodipodi-0.dtd"
   xmlns:inkscape="http://www.inkscape.org/namespaces/inkscape"
   width="24"
   height="24"
   viewBox="0 0 24 24"
   fill="none"
   version="1.1"
   id="svg16"
   sodipodi:docname="in-calculadora-color.svg"
   inkscape:version="1.0.2 (e86c870879, 2021-01-15)">
  <metadata
     id="metadata22">
    <rdf:RDF>
      <cc:Work
         rdf:about="">
        <dc:format>image/svg+xml</dc:format>
        <dc:type
           rdf:resource="http://purl.org/dc/dcmitype/StillImage" />
      </cc:Work>
    </rdf:RDF>
  </metadata>
  <defs
     id="defs20" />
  <sodipodi:namedview
     pagecolor="#ffffff"
     bordercolor="#666666"
     borderopacity="1"
     objecttolerance="10"
     gridtolerance="10"
     guidetolerance="10"
     inkscape:pageopacity="0"
     inkscape:pageshadow="2"
     inkscape:window-width="1920"
     inkscape:window-height="1016"
     id="namedview18"
     showgrid="false"
     inkscape:zoom="33.333333"
     inkscape:cx="12"
     inkscape:cy="12"
     inkscape:window-x="0"
     inkscape:window-y="0"
     inkscape:window-maximized="1"
     inkscape:current-layer="svg16" />
  <path
     d="M22.5425 3.57292V20.4738C22.54 21.0104 22.3257 21.5244 21.9463 21.9038C21.5668 22.2833 21.0529 22.4975 20.5162 22.5H2V20.7352H20.8337V3.2181H2V1.5H20.5162C20.7859 1.50119 21.0527 1.55597 21.3011 1.66114C21.5494 1.76632 21.7744 1.9198 21.9629 2.11267C22.1514 2.30554 22.2997 2.53395 22.3992 2.78463C22.4987 3.03531 22.5474 3.30326 22.5425 3.57292Z"
     fill="#07272D"
     id="path2" />
  <path
     id="path4"
     d="M 6.0898438 4.2167969 L 6.0898438 6.6542969 L 3.6621094 6.6542969 L 3.6621094 8.3535156 L 6.0898438 8.3535156 L 6.0898438 9.9414062 C 6.1119438 10.152586 6.2113606 10.348034 6.3691406 10.490234 C 6.5269106 10.632334 6.7310094 10.710938 6.9433594 10.710938 C 7.1556994 10.710937 7.3617612 10.632334 7.5195312 10.490234 C 7.6773112 10.348034 7.7767281 10.152586 7.7988281 9.9414062 L 7.7988281 8.3535156 L 9.3769531 8.3535156 C 9.6031731 8.3535256 9.8196287 8.2645588 9.9804688 8.1054688 C 10.141259 7.9463787 10.233828 7.7301163 10.236328 7.5039062 C 10.236328 7.3915263 10.213222 7.2794912 10.169922 7.1757812 C 10.126722 7.0720813 10.064245 6.9794206 9.984375 6.9003906 C 9.904485 6.8213706 9.8092481 6.7589469 9.7050781 6.7167969 C 9.6009081 6.6746569 9.4893231 6.6530669 9.3769531 6.6542969 L 7.7988281 6.6542969 L 7.7988281 4.2167969 L 6.0898438 4.2167969 z M 12.496094 6.6542969 L 12.496094 8.3535156 L 18.208984 8.3535156 C 18.435184 8.3535256 18.653553 8.2645587 18.814453 8.1054688 C 18.975253 7.9463788 19.065859 7.7301163 19.068359 7.5039062 C 19.068359 7.3915262 19.047206 7.2794812 19.003906 7.1757812 C 18.960606 7.0720713 18.896306 6.9794106 18.816406 6.9003906 C 18.736506 6.8213606 18.641309 6.7589469 18.537109 6.7167969 C 18.433009 6.6746469 18.321384 6.6530569 18.208984 6.6542969 L 12.496094 6.6542969 z M 15.777344 12.777344 C 15.502644 12.777344 15.238156 12.881306 15.035156 13.066406 C 14.832256 13.251406 14.704987 13.505797 14.679688 13.779297 C 14.704988 14.052797 14.832256 14.307087 15.035156 14.492188 C 15.238156 14.677287 15.502644 14.779297 15.777344 14.779297 C 16.051944 14.779297 16.316531 14.677288 16.519531 14.492188 C 16.722431 14.307088 16.8497 14.052797 16.875 13.779297 C 16.8497 13.505797 16.722431 13.251406 16.519531 13.066406 C 16.316531 12.881306 16.051944 12.777344 15.777344 12.777344 z M 5.2304688 13.330078 L 4.0175781 14.525391 L 5.734375 16.253906 L 4.0175781 17.960938 L 5.2304688 19.175781 L 6.9492188 17.447266 L 8.0605469 18.578125 C 8.2296769 18.722825 8.4434556 18.802734 8.6660156 18.802734 C 8.8885756 18.802734 9.1043075 18.722825 9.2734375 18.578125 C 9.4348075 18.415425 9.5253906 18.195897 9.5253906 17.966797 C 9.5253906 17.737697 9.4348075 17.518069 9.2734375 17.355469 L 8.1542969 16.253906 L 9.2734375 15.132812 C 9.4342275 14.971712 9.5253906 14.752991 9.5253906 14.525391 C 9.5253906 14.297791 9.4342275 14.078969 9.2734375 13.917969 C 9.1043075 13.773269 8.8885756 13.695312 8.6660156 13.695312 C 8.4434556 13.695313 8.2296769 13.773269 8.0605469 13.917969 L 6.9492188 15.039062 L 5.2304688 13.330078 z M 12.496094 15.263672 L 12.496094 16.982422 L 18.208984 16.982422 C 18.436784 16.982422 18.655306 16.891569 18.816406 16.730469 C 18.977506 16.569369 19.068359 16.350847 19.068359 16.123047 C 19.068359 15.895147 18.977506 15.676725 18.816406 15.515625 C 18.655306 15.354525 18.436784 15.263672 18.208984 15.263672 L 12.496094 15.263672 z M 15.78125 17.365234 C 15.56255 17.363434 15.348616 17.426575 15.166016 17.546875 C 14.983416 17.667275 14.840359 17.839316 14.755859 18.041016 C 14.671259 18.242716 14.649206 18.465088 14.691406 18.679688 C 14.733706 18.894288 14.839541 19.091494 14.994141 19.246094 C 15.148841 19.400794 15.345947 19.504675 15.560547 19.546875 C 15.775147 19.589075 15.997519 19.566922 16.199219 19.482422 C 16.400919 19.397822 16.573059 19.254866 16.693359 19.072266 C 16.813759 18.889566 16.8769 18.675731 16.875 18.457031 C 16.875 18.167331 16.759587 17.888494 16.554688 17.683594 C 16.349888 17.478694 16.07105 17.365234 15.78125 17.365234 z "
     style="fill:#00c65e;fill-opacity:1" />
</svg>
