<?xml version="1.0" encoding="UTF-8" standalone="no"?>
<svg
   xmlns:dc="http://purl.org/dc/elements/1.1/"
   xmlns:cc="http://creativecommons.org/ns#"
   xmlns:rdf="http://www.w3.org/1999/02/22-rdf-syntax-ns#"
   xmlns:svg="http://www.w3.org/2000/svg"
   xmlns="http://www.w3.org/2000/svg"
   xmlns:sodipodi="http://sodipodi.sourceforge.net/DTD/sodipodi-0.dtd"
   xmlns:inkscape="http://www.inkscape.org/namespaces/inkscape"
   width="24"
   height="24"
   viewBox="0 0 24 24"
   fill="none"
   version="1.1"
   id="svg10"
   sodipodi:docname="in-calendario.svg"
   inkscape:version="1.0.2 (e86c870879, 2021-01-15)">
  <metadata
     id="metadata16">
    <rdf:RDF>
      <cc:Work
         rdf:about="">
        <dc:format>image/svg+xml</dc:format>
        <dc:type
           rdf:resource="http://purl.org/dc/dcmitype/StillImage" />
      </cc:Work>
    </rdf:RDF>
  </metadata>
  <defs
     id="defs14" />
  <sodipodi:namedview
     pagecolor="#ffffff"
     bordercolor="#666666"
     borderopacity="1"
     objecttolerance="10"
     gridtolerance="10"
     guidetolerance="10"
     inkscape:pageopacity="0"
     inkscape:pageshadow="2"
     inkscape:window-width="1920"
     inkscape:window-height="1016"
     id="namedview12"
     showgrid="false"
     inkscape:zoom="8.3333333"
     inkscape:cx="-5.3182815"
     inkscape:cy="1.6408614"
     inkscape:window-x="0"
     inkscape:window-y="0"
     inkscape:window-maximized="1"
     inkscape:current-layer="svg10" />
  <path
     id="path2"
     d="M 8.4550781 2 C 7.9529981 2 7.5449219 2.4061231 7.5449219 2.9082031 L 7.5449219 3.8183594 L 5.7265625 3.8183594 C 4.2203325 3.8183594 3 5.0386919 3 6.5449219 L 3 10.181641 L 3 19.273438 C 3 20.779737 4.2203325 22 5.7265625 22 L 18.455078 22 C 19.961378 22 21.181641 20.779737 21.181641 19.273438 L 21.181641 10.181641 L 21.181641 6.5449219 C 21.181641 5.0386919 19.961378 3.8183594 18.455078 3.8183594 L 16.636719 3.8183594 L 16.636719 2.9082031 C 16.636719 2.4061231 16.228662 2 15.726562 2 C 15.224462 2 14.818359 2.4061231 14.818359 2.9082031 L 14.818359 3.8183594 L 9.3632812 3.8183594 L 9.3632812 2.9082031 C 9.3632813 2.4061231 8.9571481 2 8.4550781 2 z M 5.7265625 5.6367188 L 7.5449219 5.6367188 L 7.5449219 6.5449219 C 7.5449219 7.0470019 7.9529981 7.4550781 8.4550781 7.4550781 C 8.9571481 7.4550781 9.3632812 7.0470019 9.3632812 6.5449219 L 9.3632812 5.6367188 L 14.818359 5.6367188 L 14.818359 6.5449219 C 14.818359 7.0470019 15.224462 7.4550781 15.726562 7.4550781 C 16.228663 7.4550781 16.636719 7.0470019 16.636719 6.5449219 L 16.636719 5.6367188 L 18.455078 5.6367188 C 18.957178 5.6367188 19.363281 6.0428519 19.363281 6.5449219 L 19.363281 9.2734375 L 4.8183594 9.2734375 L 4.8183594 6.5449219 C 4.8183594 6.0428519 5.2244925 5.6367188 5.7265625 5.6367188 z M 4.8183594 11.091797 L 19.363281 11.091797 L 19.363281 19.273438 C 19.363281 19.775538 18.957178 20.181641 18.455078 20.181641 L 5.7265625 20.181641 C 5.2244925 20.181641 4.8183594 19.775537 4.8183594 19.273438 L 4.8183594 11.091797 z "
     style="fill:#000000" />
</svg>
