<svg width="24" height="24" viewBox="0 0 24 24" fill="none" xmlns="http://www.w3.org/2000/svg">
<path fill-rule="evenodd" clip-rule="evenodd" d="M12.88 1H11.12V3.03115C10.2962 3.09758 9.48299 3.26826 8.69998 3.53996C7.77308 3.85027 6.93799 4.38639 6.26998 5.09996C5.63764 5.82757 5.30209 6.76639 5.32998 7.72996C5.31236 8.45186 5.48479 9.1657 5.82998 9.79996C6.17235 10.3895 6.65279 10.8871 7.22998 11.25C7.87169 11.6487 8.56472 11.9583 9.28998 12.17L10.21 12.41L10.51 12.49V10.66L10.33 10.6C10.1464 10.5541 9.97138 10.4996 9.80498 10.4477L9.80495 10.4477C9.71759 10.4205 9.6326 10.3941 9.54998 10.37C8.89029 10.1787 8.28427 9.83629 7.77998 9.36996C7.57572 9.15038 7.41742 8.89218 7.31438 8.61055C7.21134 8.32891 7.16565 8.02951 7.17998 7.72996C7.16818 7.42879 7.21896 7.12843 7.32912 6.84788C7.43927 6.56732 7.60641 6.31265 7.81998 6.09996C8.3112 5.62124 8.91728 5.27688 9.57998 5.09996C10.086 4.95869 10.6013 4.86258 11.12 4.81162V19.2118C10.1151 19.1391 9.1348 18.8463 8.25004 18.35C7.84899 18.1038 7.51674 17.7601 7.2842 17.351C7.05166 16.9419 6.92639 16.4806 6.92004 16.01V15.72V15.11H5.04004V16.11C5.06683 16.8336 5.25835 17.5416 5.60004 18.18C5.93868 18.7993 6.41827 19.3303 7.00004 19.73C7.66465 20.1712 8.40301 20.4896 9.18004 20.67C9.81684 20.8299 10.4661 20.9322 11.12 20.9762V23H12.88V20.9754C13.5234 20.9321 14.1625 20.8334 14.79 20.68C15.5701 20.5 16.314 20.1889 16.99 19.76C17.5941 19.3702 18.1005 18.8467 18.47 18.23C18.8347 17.595 19.018 16.8721 19 16.14C18.9983 15.4452 18.8157 14.7628 18.47 14.16C18.1364 13.5851 17.6701 13.0982 17.11 12.74C16.4625 12.3364 15.7626 12.0235 15.03 11.81C14.64 11.69 14.22 11.57 13.79 11.46L13.49 11.4V13.2H13.67C14.4223 13.3806 15.1506 13.6492 15.84 14C16.2337 14.2004 16.5601 14.5118 16.7787 14.8957C16.9973 15.2796 17.0986 15.7192 17.07 16.16C17.0864 16.7476 16.8791 17.3194 16.49 17.76C16.012 18.2636 15.4077 18.6296 14.74 18.82C14.1349 19.013 13.511 19.1373 12.88 19.1911V4.81163C13.3986 4.86258 13.914 4.95869 14.42 5.09996C15.0827 5.28187 15.6796 5.64969 16.14 6.15996C16.3637 6.37522 16.5364 6.63783 16.6454 6.92854C16.7545 7.21924 16.797 7.53067 16.77 7.83996C16.7701 7.96311 16.7949 8.08499 16.843 8.19836C16.8911 8.31173 16.9615 8.41429 17.05 8.49996C17.2325 8.66028 17.4671 8.7487 17.71 8.7487C17.9529 8.7487 18.1875 8.66028 18.37 8.49996C18.4588 8.40723 18.5278 8.29728 18.5725 8.17689C18.6172 8.05649 18.6368 7.92821 18.63 7.79996C18.6767 6.8383 18.3425 5.89698 17.7 5.17996C17.0682 4.41609 16.2376 3.84162 15.3 3.51996C14.515 3.25969 13.7023 3.09582 12.88 3.03117V1Z" fill="black"/>
</svg>
