<?xml version="1.0" encoding="UTF-8" standalone="no"?>
<svg
   xmlns:dc="http://purl.org/dc/elements/1.1/"
   xmlns:cc="http://creativecommons.org/ns#"
   xmlns:rdf="http://www.w3.org/1999/02/22-rdf-syntax-ns#"
   xmlns:svg="http://www.w3.org/2000/svg"
   xmlns="http://www.w3.org/2000/svg"
   xmlns:sodipodi="http://sodipodi.sourceforge.net/DTD/sodipodi-0.dtd"
   xmlns:inkscape="http://www.inkscape.org/namespaces/inkscape"
   width="24"
   height="24"
   viewBox="0 0 24 24"
   fill="none"
   version="1.1"
   id="svg10"
   sodipodi:docname="in-dashboard-color.svg"
   inkscape:version="1.0.2 (e86c870879, 2021-01-15)">
  <metadata
     id="metadata16">
    <rdf:RDF>
      <cc:Work
         rdf:about="">
        <dc:format>image/svg+xml</dc:format>
        <dc:type
           rdf:resource="http://purl.org/dc/dcmitype/StillImage" />
      </cc:Work>
    </rdf:RDF>
  </metadata>
  <defs
     id="defs14" />
  <sodipodi:namedview
     pagecolor="#ffffff"
     bordercolor="#666666"
     borderopacity="1"
     objecttolerance="10"
     gridtolerance="10"
     guidetolerance="10"
     inkscape:pageopacity="0"
     inkscape:pageshadow="2"
     inkscape:window-width="1920"
     inkscape:window-height="1016"
     id="namedview12"
     showgrid="false"
     inkscape:zoom="33.333333"
     inkscape:cx="12"
     inkscape:cy="12"
     inkscape:window-x="0"
     inkscape:window-y="0"
     inkscape:window-maximized="1"
     inkscape:current-layer="svg10" />
  <path
     id="path2"
     d="M 1 1 L 1 14.429688 L 11.669922 14.429688 L 11.669922 1 L 1 1 z M 2.390625 2.390625 L 10.269531 2.390625 L 10.269531 13 L 2.390625 13 L 2.390625 2.390625 z M 13.650391 9.5703125 C 13.296691 9.5755825 12.958237 9.7197662 12.710938 9.9726562 C 12.463738 10.225516 12.327378 10.566222 12.330078 10.919922 L 12.330078 21.650391 C 12.330078 22.008391 12.471409 22.352269 12.724609 22.605469 C 12.977809 22.858669 13.321688 23 13.679688 23 L 21.679688 23 C 22.031688 22.9897 22.367081 22.843597 22.613281 22.591797 C 22.859481 22.339997 22.9976 22.002491 23 21.650391 L 23 10.919922 C 23 10.561922 22.858669 10.218034 22.605469 9.9648438 C 22.352269 9.7116737 22.008391 9.5703125 21.650391 9.5703125 L 13.650391 9.5703125 z M 13.730469 11 L 21.609375 11 L 21.609375 21.609375 L 13.730469 21.609375 L 13.730469 11 z "
     style="fill:#07272d;fill-opacity:1" />
  <path
     id="path4"
     d="M 12.359375 1 L 12.359375 7.0898438 C 12.359375 7.4399337 12.498594 7.7758875 12.746094 8.0234375 C 12.993694 8.2709875 13.329588 8.4101562 13.679688 8.4101562 L 21.679688 8.4101562 C 22.029788 8.4101562 22.365681 8.2709875 22.613281 8.0234375 C 22.860781 7.7758875 23 7.4399337 23 7.0898438 L 23 1 L 21.640625 1 L 21.640625 7 L 13.759766 7 L 13.759766 1 L 12.359375 1 z M 1 15.589844 L 1 23 L 2.4003906 23 L 2.4003906 16.990234 L 10.269531 16.990234 L 10.269531 23 L 11.669922 23 L 11.669922 15.589844 L 1 15.589844 z "
     style="fill:#00c65e;fill-opacity:1" />
</svg>
