<svg width="24" height="24" viewBox="0 0 24 24" fill="none" xmlns="http://www.w3.org/2000/svg">
<path d="M8.625 11.125C8.625 10.8489 8.84886 10.625 9.125 10.625H15.375C17.2358 10.625 18.75 12.1392 18.75 14C18.75 15.8608 17.2358 17.375 15.375 17.375H12.5C12.2239 17.375 12 17.5989 12 17.875V19.125C12 19.4011 12.2239 19.625 12.5 19.625H15.375C18.4766 19.625 21 17.1016 21 14C21 10.8984 18.4766 8.375 15.375 8.375H9.125C8.84886 8.375 8.625 8.15114 8.625 7.875V6.04031C8.625 5.62106 8.14003 5.38797 7.81265 5.64988L3.48804 9.10957C3.23784 9.30973 3.23784 9.69027 3.48804 9.89043L7.81265 13.3501C8.14004 13.612 8.625 13.3789 8.625 12.9597V11.125Z" fill="black"/>
</svg>
