<svg width="24" height="24" viewBox="0 0 24 24" fill="none" xmlns="http://www.w3.org/2000/svg">
<path fill-rule="evenodd" clip-rule="evenodd" d="M11.1636 2H12.8364V21.7545H11.1636V2ZM3.67273 18.3366L10.1455 16.482V18.282L2 20.5548V3.02748L10.1364 5.46385L10.1455 7.06385L3.67273 5.25476V18.3366ZM22 4.66385V18.9457C21.9997 19.1352 21.9561 19.3221 21.8726 19.4923C21.7891 19.6624 21.6679 19.8113 21.5182 19.9275C21.3034 20.0824 21.0465 20.168 20.7818 20.1729C20.6683 20.1712 20.5553 20.156 20.4454 20.1275L13.8545 18.3093V16.4911L20.3363 18.3548V5.25476L13.8182 7.06385V5.5093L20.4 3.53658C20.5806 3.47688 20.7728 3.46034 20.961 3.48827C21.1492 3.5162 21.3282 3.58783 21.4838 3.69741C21.6393 3.807 21.767 3.95149 21.8566 4.11932C21.9463 4.28715 21.9954 4.47364 22 4.66385Z" fill="black"/>
</svg>
