<svg width="24" height="24" viewBox="0 0 24 24" fill="none" xmlns="http://www.w3.org/2000/svg">
<path d="M20.1233 22C20.0274 22 19.9315 22 19.8356 22C16.7671 21.6164 13.6986 20.5616 11.1096 18.9315C8.71233 17.3973 6.60274 15.2877 5.06849 12.8904C3.34247 10.3014 2.28767 7.23288 2 4.16438C2 3.39726 2.19178 2.63014 2.67123 2.05479C3.15068 1.47945 3.82192 1.09589 4.58904 1C4.68493 1 4.78082 1 4.87671 1H7.75342C9.19178 1 10.4384 2.05479 10.6301 3.49315C10.726 4.35616 10.9178 5.21918 11.2055 5.9863C11.589 7.0411 11.3014 8.19178 10.5342 9.05479L9.86301 9.72603C11.0137 11.4521 12.4521 12.9863 14.274 14.137L14.9452 13.4658C15.7123 12.6986 16.9589 12.411 18.0137 12.7945C18.7808 13.0822 19.6438 13.274 20.5068 13.3699C21.9452 13.5616 23 14.8082 23 16.2466V19.1233C23 19.8904 22.7123 20.6575 22.137 21.137C21.5616 21.6164 20.8904 22 20.1233 22ZM7.75342 2.91781H4.87671C4.58904 2.91781 4.30137 3.10959 4.10959 3.30137C4.0137 3.49315 3.91781 3.68493 3.91781 3.9726C4.20548 6.75342 5.16438 9.43836 6.69863 11.8356C8.13699 14.0411 9.9589 15.9589 12.1644 17.3014C14.5616 18.8356 17.2466 19.7945 20.0274 20.0822C20.411 20.0822 20.6027 19.9863 20.7945 19.7945C20.9863 19.6027 21.0822 19.411 21.0822 19.1233V16.2466C21.0822 15.7671 20.6986 15.3836 20.2192 15.2877C19.2603 15.1918 18.3014 14.9041 17.3425 14.5205C16.9589 14.4247 16.5753 14.4247 16.2877 14.7123L15.0411 15.9589C14.7534 16.2466 14.274 16.3425 13.8904 16.1507C11.3014 14.7123 9.19178 12.6027 7.75342 10.0137C7.65753 9.63014 7.75342 9.15069 8.0411 8.86301L9.28767 7.61644C9.47945 7.42466 9.57534 6.94521 9.47945 6.65753C9.09589 5.69863 8.90411 4.73973 8.71233 3.78082C8.71233 3.30137 8.23288 2.91781 7.75342 2.91781Z" fill="black"/>
</svg>
