<?xml version="1.0" encoding="UTF-8" standalone="no"?>
<svg
   xmlns:dc="http://purl.org/dc/elements/1.1/"
   xmlns:cc="http://creativecommons.org/ns#"
   xmlns:rdf="http://www.w3.org/1999/02/22-rdf-syntax-ns#"
   xmlns:svg="http://www.w3.org/2000/svg"
   xmlns="http://www.w3.org/2000/svg"
   xmlns:sodipodi="http://sodipodi.sourceforge.net/DTD/sodipodi-0.dtd"
   xmlns:inkscape="http://www.inkscape.org/namespaces/inkscape"
   width="24"
   height="24"
   viewBox="0 0 24 24"
   fill="none"
   version="1.1"
   id="svg6"
   sodipodi:docname="in-fone-entrando.svg"
   inkscape:version="1.0.2 (e86c870879, 2021-01-15)">
  <metadata
     id="metadata12">
    <rdf:RDF>
      <cc:Work
         rdf:about="">
        <dc:format>image/svg+xml</dc:format>
        <dc:type
           rdf:resource="http://purl.org/dc/dcmitype/StillImage" />
      </cc:Work>
    </rdf:RDF>
  </metadata>
  <defs
     id="defs10" />
  <sodipodi:namedview
     pagecolor="#ffffff"
     bordercolor="#666666"
     borderopacity="1"
     objecttolerance="10"
     gridtolerance="10"
     guidetolerance="10"
     inkscape:pageopacity="0"
     inkscape:pageshadow="2"
     inkscape:window-width="1920"
     inkscape:window-height="1016"
     id="namedview8"
     showgrid="false"
     inkscape:zoom="8.3333333"
     inkscape:cx="35.803926"
     inkscape:cy="32.289208"
     inkscape:window-x="0"
     inkscape:window-y="0"
     inkscape:window-maximized="1"
     inkscape:current-layer="svg6" />
  <path
     id="path2"
     d="M 21.183594 0 C 20.954319 0 20.724416 0.091984625 20.541016 0.27539062 L 15.681641 5.1347656 L 15.681641 1.8339844 C 15.681641 1.2837644 15.313872 0.91796875 14.763672 0.91796875 C 14.213472 0.91796875 13.847656 1.2837644 13.847656 1.8339844 L 13.847656 7.3359375 C 13.847656 7.4276475 13.8458 7.611415 13.9375 7.703125 C 14.0292 7.886525 14.213084 8.0704094 14.396484 8.1621094 C 14.488184 8.2538094 14.671972 8.2539063 14.763672 8.2539062 L 20.265625 8.2539062 C 20.815825 8.2539062 21.183594 7.8861575 21.183594 7.3359375 C 21.183594 6.7857275 20.815825 6.4199219 20.265625 6.4199219 L 16.964844 6.4199219 L 21.824219 1.5585938 C 22.191019 1.1917837 22.191019 0.64220262 21.824219 0.27539062 C 21.640819 0.091984625 21.412869 0 21.183594 0 z M 3.5761719 0.91796875 C 2.8425419 1.0096677 2.2006975 1.3755713 1.7421875 1.9257812 C 1.2836675 2.4760012 1.0996094 3.2097394 1.0996094 3.9433594 C 1.3747094 6.8778594 2.3845063 9.8130925 4.0351562 12.289062 C 5.5024062 14.581663 7.51992 16.599206 9.8125 18.066406 C 12.28843 19.625406 15.22175 20.6332 18.15625 21 L 18.431641 21 C 19.165241 21 19.807222 20.632328 20.357422 20.173828 C 20.907622 19.715328 21.183594 18.981647 21.183594 18.248047 L 21.183594 15.498047 C 21.183594 14.122547 20.174328 12.929494 18.798828 12.746094 C 17.973428 12.654394 17.147662 12.472366 16.414062 12.197266 C 15.405362 11.830466 14.214069 12.104291 13.480469 12.837891 L 12.837891 13.480469 C 11.095491 12.380069 9.7195706 10.912409 8.6191406 9.2617188 L 9.2617188 8.6191406 C 9.9953388 7.7938106 10.271127 6.6942769 9.9042969 5.6855469 C 9.6291869 4.9519169 9.4452156 4.1261113 9.3535156 3.3007812 C 9.1701056 1.9252313 7.9771025 0.91796875 6.6015625 0.91796875 L 3.8515625 0.91796875 L 3.5761719 0.91796875 z M 3.8515625 2.7519531 L 6.6015625 2.7519531 C 7.0600725 2.7519531 7.5195312 3.1176519 7.5195312 3.5761719 C 7.7029413 4.4932019 7.8851431 5.411095 8.2519531 6.328125 C 8.3436631 6.603235 8.2537125 7.0607306 8.0703125 7.2441406 L 6.8769531 8.4375 C 6.6018431 8.71261 6.5098625 9.1702994 6.6015625 9.5371094 C 7.9771025 12.013089 9.9946731 14.03075 12.470703 15.40625 C 12.837503 15.58965 13.297166 15.497756 13.572266 15.222656 L 14.763672 14.03125 C 15.038772 13.75615 15.406637 13.755956 15.773438 13.847656 C 16.690437 14.214456 17.606338 14.488378 18.523438 14.580078 C 18.981938 14.671778 19.349609 15.039547 19.349609 15.498047 L 19.349609 18.248047 C 19.349609 18.523147 19.257619 18.707225 19.074219 18.890625 C 18.890819 19.074025 18.706744 19.166016 18.339844 19.166016 C 15.680544 18.890916 13.112913 17.973159 10.820312 16.505859 C 8.7111425 15.222059 6.96929 13.388397 5.59375 11.279297 C 4.1265 8.9866969 3.2087038 6.4191556 2.9335938 3.7597656 C 2.9335937 3.4846656 3.0254875 3.3005975 3.1171875 3.1171875 C 3.3005975 2.9337875 3.5764525 2.7519531 3.8515625 2.7519531 z "
     style="fill:#000000" />
</svg>
