<?xml version="1.0" encoding="UTF-8" standalone="no"?>
<svg
   width="20"
   height="19"
   viewBox="0 0 20 19"
   fill="none"
   version="1.1"
   id="svg6"
   sodipodi:docname="in-grupo-trabalho.svg"
   inkscape:version="1.1.1 (3bf5ae0d25, 2021-09-20)"
   xmlns:inkscape="http://www.inkscape.org/namespaces/inkscape"
   xmlns:sodipodi="http://sodipodi.sourceforge.net/DTD/sodipodi-0.dtd"
   xmlns="http://www.w3.org/2000/svg"
   xmlns:svg="http://www.w3.org/2000/svg">
  <defs
     id="defs10" />
  <sodipodi:namedview
     id="namedview8"
     pagecolor="#ffffff"
     bordercolor="#666666"
     borderopacity="1.0"
     inkscape:pageshadow="2"
     inkscape:pageopacity="0.0"
     inkscape:pagecheckerboard="0"
     showgrid="false"
     inkscape:zoom="6.1356973"
     inkscape:cx="8.2305234"
     inkscape:cy="7.4971104"
     inkscape:window-width="1920"
     inkscape:window-height="1016"
     inkscape:window-x="0"
     inkscape:window-y="27"
     inkscape:window-maximized="1"
     inkscape:current-layer="svg6" />
  <path
     id="path2"
     d="M 8.1816406 0 C 7.4583206 0 6.7653662 0.28736512 6.2539062 0.79882812 C 5.7424363 1.3102881 5.4550781 2.0032425 5.4550781 2.7265625 L 5.4550781 3.6367188 L 2.7265625 3.6367188 C 1.2203325 3.6367188 0 4.8570512 0 6.3632812 L 0 15.455078 C -5.9211895e-16 16.961378 1.2203325 18.181641 2.7265625 18.181641 L 6.3632812 18.181641 L 13.636719 18.181641 L 17.273438 18.181641 C 18.779737 18.181641 20 16.961378 20 15.455078 L 20 6.3632812 C 20 4.8570512 18.779737 3.6367188 17.273438 3.6367188 L 14.544922 3.6367188 L 14.544922 2.7265625 C 14.544922 2.0032425 14.257494 1.3102881 13.746094 0.79882812 C 13.234594 0.28736512 12.541659 0 11.818359 0 L 8.1816406 0 z M 8.1816406 1.8183594 L 11.818359 1.8183594 C 12.059459 1.8183594 12.290437 1.9134944 12.460938 2.0839844 C 12.631437 2.2544744 12.726562 2.4854625 12.726562 2.7265625 L 12.726562 3.6367188 L 7.2734375 3.6367188 L 7.2734375 2.7265625 C 7.2734375 2.4854625 7.3685825 2.2544744 7.5390625 2.0839844 C 7.7095525 1.9134944 7.9405306 1.8183594 8.1816406 1.8183594 z M 2.7265625 5.4550781 L 5.4550781 5.4550781 L 5.4550781 16.363281 L 2.7265625 16.363281 C 2.2244925 16.363281 1.8183594 15.957178 1.8183594 15.455078 L 1.8183594 6.3632812 C 1.8183594 5.8612012 2.2244925 5.4550781 2.7265625 5.4550781 z M 7.2734375 5.4550781 L 12.726562 5.4550781 L 12.726562 16.363281 L 7.2734375 16.363281 L 7.2734375 5.4550781 z M 14.544922 5.4550781 L 17.273438 5.4550781 C 17.775538 5.4550781 18.181641 5.8612012 18.181641 6.3632812 L 18.181641 15.455078 C 18.181641 15.957178 17.775537 16.363281 17.273438 16.363281 L 14.544922 16.363281 L 14.544922 5.4550781 z "
     style="fill:#000000" />
</svg>
