<svg width="24" height="24" viewBox="0 0 24 24" fill="none" xmlns="http://www.w3.org/2000/svg">
<path fill-rule="evenodd" clip-rule="evenodd" d="M23.0098 20.28V3.94C23.0098 3.68524 22.9596 3.43297 22.8622 3.19759C22.7647 2.96222 22.6218 2.74836 22.4416 2.56821C22.2615 2.38807 22.0476 2.24517 21.8122 2.14767C21.5769 2.05018 21.3246 2 21.0698 2H4.94983V3.79H21.2198V20.43H4.94983V22.22H21.0698C21.5843 22.22 22.0778 22.0156 22.4416 21.6518C22.8054 21.288 23.0098 20.7945 23.0098 20.28ZM3.4001 9.6546C4.29062 9.05836 5.33816 8.74003 6.40985 8.74C7.83777 8.73996 9.2078 9.30445 10.2212 10.3104C11.2347 11.3163 11.8093 12.6821 11.8199 14.11C11.8278 15.1817 11.5172 16.2315 10.9276 17.1265C10.338 18.0214 9.49586 18.721 8.50804 19.1366C7.52021 19.5522 6.43121 19.6651 5.37915 19.4609C4.32709 19.2567 3.35938 18.7446 2.59878 17.9896C1.83817 17.2346 1.31893 16.2708 1.10692 15.2202C0.89491 14.1697 0.999685 13.0799 1.40795 12.089C1.81622 11.0981 2.50959 10.2508 3.4001 9.6546ZM4.24735 17.3954C4.8878 17.8222 5.64022 18.05 6.40985 18.05C6.92539 18.05 7.43582 17.9478 7.91162 17.7494C8.38741 17.5509 8.81913 17.26 9.18181 16.8936C9.54449 16.5272 9.83092 16.0925 10.0245 15.6148C10.2182 15.137 10.3151 14.6255 10.3099 14.11C10.302 13.3404 10.0665 12.5904 9.63323 11.9543C9.19992 11.3182 8.5881 10.8246 7.87481 10.5355C7.16152 10.2465 6.37865 10.1749 5.62478 10.3299C4.87091 10.4848 4.17974 10.8594 3.63831 11.4064C3.09688 11.9534 2.72939 12.6483 2.58212 13.4037C2.43485 14.1592 2.51439 14.9413 2.81071 15.6516C3.10703 16.3619 3.60689 16.9686 4.24735 17.3954ZM8.66982 14.65C8.66982 15.02 8.45982 15.31 8.18982 15.31H5.18982V11.84H5.61982C6.10982 11.84 6.49982 12.48 6.49982 13.27V14H8.18982C8.45982 14 8.66982 14.29 8.66982 14.65ZM19.8705 6.97824C19.9163 6.86784 19.9398 6.7495 19.9398 6.63C19.9385 6.51009 19.9133 6.39164 19.8656 6.28161C19.8179 6.17158 19.7487 6.07218 19.6621 5.98927C19.5755 5.90636 19.4731 5.8416 19.3611 5.79879C19.2491 5.75598 19.1297 5.736 19.0098 5.74H10.2298V7.54H19.0298C19.1493 7.54 19.2676 7.51646 19.378 7.47073C19.4884 7.425 19.5888 7.35797 19.6733 7.27347C19.7578 7.18897 19.8248 7.08865 19.8705 6.97824ZM19.9398 9.94C19.9398 10.059 19.9162 10.1769 19.8703 10.2867C19.8245 10.3966 19.7573 10.4963 19.6727 10.58C19.588 10.6637 19.4876 10.7297 19.3773 10.7744C19.2669 10.819 19.1488 10.8413 19.0298 10.84H12.1098V9.05H19.0098C19.1297 9.046 19.2491 9.06599 19.3611 9.10879C19.4731 9.1516 19.5755 9.21636 19.6621 9.29927C19.7488 9.38218 19.8179 9.48158 19.8656 9.59161C19.9133 9.70164 19.9385 9.82009 19.9398 9.94ZM19.649 13.8684C19.8226 13.7079 19.9269 13.4861 19.9398 13.25C19.9454 13.1259 19.9253 13.002 19.8806 12.8861C19.836 12.7702 19.7679 12.6648 19.6805 12.5765C19.5932 12.4882 19.4885 12.4189 19.373 12.3731C19.2576 12.3272 19.1339 12.3057 19.0098 12.31H13.6198V14.11H19.0098C19.2462 14.1156 19.4754 14.0289 19.649 13.8684Z" fill="black"/>
</svg>
