<?xml version="1.0" encoding="UTF-8" standalone="no"?>
<svg
   xmlns:dc="http://purl.org/dc/elements/1.1/"
   xmlns:cc="http://creativecommons.org/ns#"
   xmlns:rdf="http://www.w3.org/1999/02/22-rdf-syntax-ns#"
   xmlns:svg="http://www.w3.org/2000/svg"
   xmlns="http://www.w3.org/2000/svg"
   xmlns:sodipodi="http://sodipodi.sourceforge.net/DTD/sodipodi-0.dtd"
   xmlns:inkscape="http://www.inkscape.org/namespaces/inkscape"
   width="24"
   height="24"
   viewBox="0 0 24 24"
   fill="none"
   version="1.1"
   id="svg14"
   sodipodi:docname="in-historico-color.svg"
   inkscape:version="1.0.2 (e86c870879, 2021-01-15)">
  <metadata
     id="metadata20">
    <rdf:RDF>
      <cc:Work
         rdf:about="">
        <dc:format>image/svg+xml</dc:format>
        <dc:type
           rdf:resource="http://purl.org/dc/dcmitype/StillImage" />
      </cc:Work>
    </rdf:RDF>
  </metadata>
  <defs
     id="defs18" />
  <sodipodi:namedview
     pagecolor="#ffffff"
     bordercolor="#666666"
     borderopacity="1"
     objecttolerance="10"
     gridtolerance="10"
     guidetolerance="10"
     inkscape:pageopacity="0"
     inkscape:pageshadow="2"
     inkscape:window-width="1920"
     inkscape:window-height="1016"
     id="namedview16"
     showgrid="false"
     inkscape:zoom="33.333333"
     inkscape:cx="12"
     inkscape:cy="12"
     inkscape:window-x="0"
     inkscape:window-y="0"
     inkscape:window-maximized="1"
     inkscape:current-layer="svg14" />
  <path
     id="path2"
     d="M 10.230469 5.7402344 L 10.230469 7.5390625 L 19.029297 7.5390625 C 19.148797 7.5390625 19.268506 7.5164331 19.378906 7.4707031 C 19.489306 7.4249731 19.589328 7.3579375 19.673828 7.2734375 C 19.758328 7.1889375 19.825394 7.0889256 19.871094 6.9785156 C 19.916894 6.8681156 19.939453 6.7503594 19.939453 6.6308594 C 19.938153 6.5109494 19.912934 6.39128 19.865234 6.28125 C 19.817534 6.17122 19.748709 6.0731444 19.662109 5.9902344 C 19.575509 5.9073244 19.473328 5.8416381 19.361328 5.7988281 C 19.249328 5.7560181 19.129666 5.7362344 19.009766 5.7402344 L 10.230469 5.7402344 z M 6.4101562 8.7402344 C 5.3384663 8.7402644 4.2909106 9.0580569 3.4003906 9.6542969 C 2.5098806 10.250497 1.8164731 11.098944 1.4082031 12.089844 C 0.99993813 13.080744 0.89541188 14.170203 1.1074219 15.220703 C 1.3194319 16.271303 1.8389994 17.235234 2.5996094 17.990234 C 3.3602094 18.745234 4.3268462 19.256737 5.3789062 19.460938 C 6.4309662 19.665138 7.5199825 19.552319 8.5078125 19.136719 C 9.4956325 18.721119 10.338134 18.021853 10.927734 17.126953 C 11.517334 16.231953 11.828213 15.181075 11.820312 14.109375 C 11.809712 12.681475 11.234203 11.316447 10.220703 10.310547 C 9.2073031 9.3045969 7.8380762 8.7401944 6.4101562 8.7402344 z M 12.109375 9.0507812 L 12.109375 10.839844 L 19.029297 10.839844 C 19.148297 10.841144 19.266553 10.818038 19.376953 10.773438 C 19.487253 10.728737 19.587175 10.663778 19.671875 10.580078 C 19.756475 10.496378 19.825294 10.397009 19.871094 10.287109 C 19.916994 10.177309 19.939453 10.058453 19.939453 9.9394531 C 19.938153 9.8195431 19.912934 9.7018269 19.865234 9.5917969 C 19.817534 9.4817669 19.748809 9.3817481 19.662109 9.2988281 C 19.575509 9.2159181 19.473328 9.152185 19.361328 9.109375 C 19.249328 9.066575 19.129666 9.0467812 19.009766 9.0507812 L 12.109375 9.0507812 z M 6.1933594 10.255859 C 6.7650159 10.224153 7.3400325 10.318406 7.875 10.535156 C 8.58829 10.824256 9.1995025 11.318978 9.6328125 11.955078 C 10.066083 12.591178 10.302647 13.339775 10.310547 14.109375 C 10.315747 14.624875 10.219091 15.137434 10.025391 15.615234 C 9.8318106 16.092934 9.5443206 16.528131 9.1816406 16.894531 C 8.8189606 17.260931 8.3878994 17.5515 7.9121094 17.75 C 7.4363094 17.9484 6.9256963 18.050781 6.4101562 18.050781 C 5.6405263 18.050781 4.8884969 17.821331 4.2480469 17.394531 C 3.6075869 16.967731 3.1068669 16.362644 2.8105469 15.652344 C 2.5142269 14.942044 2.4347612 14.159797 2.5820312 13.404297 C 2.7293012 12.648897 3.0972419 11.95325 3.6386719 11.40625 C 4.1801019 10.85925 4.87113 10.484978 5.625 10.330078 C 5.8134675 10.291328 6.0028072 10.266428 6.1933594 10.255859 z M 5.1894531 11.839844 L 5.1894531 15.310547 L 8.1894531 15.310547 C 8.4594531 15.310547 8.6699219 15.020391 8.6699219 14.650391 C 8.6699219 14.290391 8.4594531 14 8.1894531 14 L 6.5 14 L 6.5 13.269531 C 6.5 12.479531 6.1091406 11.839844 5.6191406 11.839844 L 5.1894531 11.839844 z M 13.619141 12.310547 L 13.619141 14.109375 L 19.009766 14.109375 C 19.246166 14.114975 19.474837 14.029641 19.648438 13.869141 C 19.822037 13.708641 19.926553 13.4861 19.939453 13.25 C 19.945053 13.1259 19.925559 13.002619 19.880859 12.886719 C 19.836259 12.770819 19.767088 12.664472 19.679688 12.576172 C 19.592387 12.487872 19.488547 12.418847 19.373047 12.373047 C 19.257647 12.327147 19.133866 12.306247 19.009766 12.310547 L 13.619141 12.310547 z "
     style="fill:#00c65e;fill-opacity:1" />
  <path
     d="M23.0098 3.94V20.28C23.0098 20.7945 22.8054 21.288 22.4416 21.6518C22.0778 22.0156 21.5843 22.22 21.0698 22.22H4.94983V20.43H21.2198V3.79H4.94983V2H21.0698C21.3246 2 21.5769 2.05018 21.8122 2.14767C22.0476 2.24517 22.2615 2.38807 22.4416 2.56821C22.6218 2.74836 22.7647 2.96222 22.8622 3.19759C22.9596 3.43297 23.0098 3.68524 23.0098 3.94Z"
     fill="#07272D"
     id="path4" />
</svg>
