<svg width="24" height="24" viewBox="0 0 24 24" fill="none" xmlns="http://www.w3.org/2000/svg">
<path d="M23 6.45002V17.55C22.9974 18.1291 22.7655 18.6836 22.355 19.0921C21.9446 19.5007 21.3891 19.73 20.81 19.73H1V18H21.3V6.00002H1V4.27002H20.81C21.3891 4.27001 21.9446 4.49937 22.355 4.90792C22.7655 5.31646 22.9974 5.87093 23 6.45002Z" fill="#07272D"/>
<path d="M19.88 8.5599C19.88 8.9312 19.7325 9.28729 19.4699 9.54985C19.2074 9.8124 18.8513 9.9599 18.48 9.9599H18.36L13.47 14.5799C13.4797 14.6429 13.4797 14.7069 13.47 14.7699C13.47 15.1412 13.3225 15.4973 13.0599 15.7598C12.7974 16.0224 12.4413 16.1699 12.07 16.1699C11.6987 16.1699 11.3426 16.0224 11.08 15.7598C10.8175 15.4973 10.67 15.1412 10.67 14.7699C10.6602 14.7069 10.6602 14.6429 10.67 14.5799L8.15999 12.1499C8.01358 12.2072 7.85714 12.2344 7.69999 12.2299H7.40999L3.99999 15.3199C4.0049 15.3597 4.0049 15.4 3.99999 15.4399C3.99018 15.712 3.90065 15.9753 3.74252 16.197C3.58439 16.4187 3.36461 16.5891 3.11049 16.687C2.85637 16.7848 2.57909 16.8059 2.31309 16.7476C2.04709 16.6892 1.80409 16.554 1.61426 16.3588C1.42443 16.1635 1.29614 15.9168 1.24531 15.6493C1.19449 15.3818 1.22336 15.1052 1.32836 14.8539C1.43336 14.6027 1.60985 14.3878 1.83592 14.2359C2.06199 14.0841 2.32767 14.002 2.59999 13.9999C2.68299 13.9894 2.76698 13.9894 2.84999 13.9999L6.30999 10.8399C6.30446 10.8169 6.30446 10.7929 6.30999 10.7699C6.30999 10.3986 6.45749 10.0425 6.72004 9.77995C6.98259 9.5174 7.33868 9.3699 7.70999 9.3699C8.05125 9.37061 8.38015 9.49774 8.63316 9.72675C8.88618 9.95576 9.04537 10.2704 9.07999 10.6099L11.94 13.3199C11.9929 13.3101 12.0471 13.3101 12.1 13.3199C12.1494 13.3094 12.2005 13.3094 12.25 13.3199L17.12 8.7099C17.1146 8.63666 17.1146 8.56313 17.12 8.4899C17.1036 8.29677 17.1275 8.10236 17.1902 7.91896C17.2529 7.73555 17.353 7.56716 17.4841 7.42445C17.6152 7.28173 17.7746 7.1678 17.952 7.08986C18.1295 7.01192 18.3212 6.97168 18.515 6.97168C18.7088 6.97168 18.9005 7.01192 19.078 7.08986C19.2554 7.1678 19.4148 7.28173 19.5459 7.42445C19.677 7.56716 19.7771 7.73555 19.8398 7.91896C19.9024 8.10236 19.9264 8.29677 19.91 8.4899L19.88 8.5599Z" fill="#00C65E"/>
</svg>
