<svg width="24" height="24" viewBox="0 0 24 24" fill="none" xmlns="http://www.w3.org/2000/svg">
<path fill-rule="evenodd" clip-rule="evenodd" d="M10.3333 2.83333C10.3333 2.3731 9.96024 2 9.5 2C9.03976 2 8.66667 2.3731 8.66667 2.83333V4.5H7C5.61929 4.5 4.5 5.61929 4.5 7V8.66667H2.83333C2.3731 8.66667 2 9.03976 2 9.5C2 9.96024 2.3731 10.3333 2.83333 10.3333H4.5V12.8331H2.83333C2.3731 12.8331 2 13.2062 2 13.6664C2 14.1267 2.3731 14.4998 2.83333 14.4998H4.5V17C4.5 18.3807 5.61929 19.5 7 19.5H8.66667V21.1667C8.66667 21.6269 9.03976 22 9.5 22C9.96024 22 10.3333 21.6269 10.3333 21.1667V19.5H13.6667V21.1667C13.6667 21.6269 14.0398 22 14.5 22C14.9602 22 15.3333 21.6269 15.3333 21.1667V19.5H17C18.3807 19.5 19.5 18.3807 19.5 17V14.5H21.1667C21.6269 14.5 22 14.1269 22 13.6667C22 13.2064 21.6269 12.8333 21.1667 12.8333H19.5V10.3333H21.1667C21.6269 10.3333 22 9.96024 22 9.5C22 9.03976 21.6269 8.66667 21.1667 8.66667H19.5V7C19.5 5.61929 18.3807 4.5 17 4.5H15.3333V2.83333C15.3333 2.3731 14.9602 2 14.5 2C14.0398 2 13.6667 2.3731 13.6667 2.83333V4.5H10.3333V2.83333ZM6.16667 13.6664L6.16667 17C6.16667 17.4602 6.53976 17.8333 7 17.8333H9.5H14.5H17C17.4602 17.8333 17.8333 17.4602 17.8333 17V13.6667V9.5V7C17.8333 6.53976 17.4602 6.16667 17 6.16667H14.5H9.5H7C6.53976 6.16667 6.16667 6.53976 6.16667 7V9.5L6.16667 13.6664ZM8.66667 9.5C8.66667 9.03976 9.03976 8.66667 9.5 8.66667H14.5C14.9602 8.66667 15.3333 9.03976 15.3333 9.5V14.5C15.3333 14.9602 14.9602 15.3333 14.5 15.3333H9.5C9.03976 15.3333 8.66667 14.9602 8.66667 14.5V9.5ZM10.3333 10.3333V13.6667H13.6667V10.3333H10.3333Z" fill="black"/>
</svg>
