<?xml version="1.0" encoding="UTF-8" standalone="no"?>
<svg
   xmlns:dc="http://purl.org/dc/elements/1.1/"
   xmlns:cc="http://creativecommons.org/ns#"
   xmlns:rdf="http://www.w3.org/1999/02/22-rdf-syntax-ns#"
   xmlns:svg="http://www.w3.org/2000/svg"
   xmlns="http://www.w3.org/2000/svg"
   xmlns:sodipodi="http://sodipodi.sourceforge.net/DTD/sodipodi-0.dtd"
   xmlns:inkscape="http://www.inkscape.org/namespaces/inkscape"
   width="24"
   height="24"
   viewBox="0 0 24 24"
   fill="none"
   version="1.1"
   id="svg8"
   sodipodi:docname="in-lote-color.svg"
   inkscape:version="1.0.2 (e86c870879, 2021-01-15)">
  <metadata
     id="metadata14">
    <rdf:RDF>
      <cc:Work
         rdf:about="">
        <dc:format>image/svg+xml</dc:format>
        <dc:type
           rdf:resource="http://purl.org/dc/dcmitype/StillImage" />
      </cc:Work>
    </rdf:RDF>
  </metadata>
  <defs
     id="defs12" />
  <sodipodi:namedview
     pagecolor="#ffffff"
     bordercolor="#666666"
     borderopacity="1"
     objecttolerance="10"
     gridtolerance="10"
     guidetolerance="10"
     inkscape:pageopacity="0"
     inkscape:pageshadow="2"
     inkscape:window-width="1920"
     inkscape:window-height="1016"
     id="namedview10"
     showgrid="false"
     inkscape:zoom="11.785113"
     inkscape:cx="4.5201149"
     inkscape:cy="1.4838796"
     inkscape:window-x="0"
     inkscape:window-y="0"
     inkscape:window-maximized="1"
     inkscape:current-layer="svg8" />
  <path
     id="path2"
     d="M 12.599609 1.5292969 L 0.84960938 7 L 12.599609 13.560547 L 22.199219 8.1796875 C 22.404419 8.0690275 22.575506 7.9034819 22.691406 7.7011719 C 22.807306 7.4988619 22.863769 7.2681763 22.855469 7.0351562 C 22.847169 6.8021462 22.774631 6.5763425 22.644531 6.3828125 C 22.514531 6.1892825 22.331741 6.0351931 22.119141 5.9394531 L 12.599609 1.5292969 z M 12.599609 3.4804688 L 20.480469 7.1308594 L 12.599609 11.539062 L 4.7304688 7.1308594 L 12.599609 3.4804688 z M 19.429688 13.580078 L 17.529297 14.640625 L 20.480469 16 L 12.599609 20.419922 L 4.7304688 16 L 7.6699219 14.669922 L 5.7695312 13.609375 L 0.84960938 15.890625 L 12.490234 22.460938 L 12.599609 22.529297 L 22.199219 17.140625 C 22.403319 17.030425 22.5726 16.865562 22.6875 16.664062 C 22.8024 16.462562 22.858709 16.2318 22.849609 16 C 22.857409 15.7546 22.792109 15.512987 22.662109 15.304688 C 22.532209 15.096387 22.342941 14.930878 22.119141 14.830078 L 19.429688 13.580078 z "
     style="fill:#07272d;fill-opacity:1" />
  <path
     d="m 22.85,11.4899 c 0.0099,0.2333 -0.0458,0.4646 -0.1607,0.6679 -0.1149,0.2032 -0.2844,0.3703 -0.4893,0.4821 l -9.6,5.36 h -0.11 l -10.25001,-5.8 2,-0.91 8.36001,4.71 7.88,-4.41 -2.571514,-1.015176 1.9,-1.0699898 L 22.12,10.4099 c 0.2093,0.0954 0.3881,0.2468 0.5169,0.4373 0.1288,0.1906 0.2025,0.413 0.2131,0.6427 z"
     fill="#00c65e"
     id="path4"
     sodipodi:nodetypes="cccccccccccccc" />
</svg>
