<svg width="24" height="24" viewBox="0 0 24 24" fill="none" xmlns="http://www.w3.org/2000/svg">
<path fill-rule="evenodd" clip-rule="evenodd" d="M14.7701 2.36016C14.3387 1.92459 13.8244 1.57984 13.2577 1.34626C12.6909 1.11268 12.0831 0.994998 11.4701 1.00016C10.2315 1.00016 9.04366 1.49218 8.16786 2.36797C7.29207 3.24377 6.80005 4.4316 6.80005 5.67016V10.8502C6.79903 11.7979 7.08513 12.7236 7.62066 13.5055C8.15619 14.2874 8.91602 14.8887 9.80005 15.2302C10.3206 15.4287 10.873 15.5303 11.4301 15.5302V13.2202C10.8006 13.2202 10.1967 12.9708 9.75066 12.5266C9.30461 12.0824 9.0527 11.4796 9.05005 10.8502V5.67016C9.05005 5.03895 9.3008 4.43359 9.74714 3.98725C10.1935 3.54091 10.7988 3.29016 11.4301 3.29016C12.0613 3.29016 12.6666 3.54091 13.113 3.98725C13.5593 4.43359 13.8101 5.03895 13.8101 5.67016V7.51016H16.1001V5.67016C16.1088 5.05783 15.9957 4.44986 15.7674 3.88162C15.5391 3.31338 15.2001 2.7962 14.7701 2.36016ZM17.92 16.0003L17.78 16.1903C16.8277 17.4027 15.5309 18.2986 14.06 18.7603C13.5835 18.9114 13.0951 19.0218 12.6 19.0903V23.0003H10.32V19.0503C9.82488 18.9818 9.33646 18.8714 8.86 18.7203C7.3891 18.2586 6.0923 17.3627 5.14 16.1503L5 16.0003L6.83 14.6003L6.97 14.7903C7.63833 15.6245 8.54 16.2407 9.56 16.5603C10.8034 16.9505 12.1366 16.9505 13.38 16.5603C13.8187 16.4185 14.2384 16.2237 14.63 15.9803C15.1433 15.6657 15.5969 15.2628 15.97 14.7903L16.11 14.6003L17.8 15.8903L17.92 16.0003ZM17.925 14.5664C18.1649 14.5664 18.3956 14.4748 18.57 14.3102C18.6568 14.2246 18.7257 14.1226 18.7728 14.0102C18.8198 13.8978 18.844 13.7771 18.844 13.6552C18.844 13.5333 18.8198 13.4127 18.7728 13.3002C18.7257 13.1878 18.6568 13.0858 18.57 13.0002L17.35 11.8502L18.54 10.6502C18.6247 10.5655 18.6919 10.465 18.7378 10.3543C18.7836 10.2436 18.8072 10.125 18.8072 10.0052C18.8072 9.88543 18.7836 9.76681 18.7378 9.65614C18.6919 9.54547 18.6247 9.44492 18.54 9.36021C18.4553 9.27551 18.3548 9.20832 18.2441 9.16248C18.1334 9.11664 18.0148 9.09305 17.895 9.09305C17.7753 9.09305 17.6566 9.11664 17.546 9.16248C17.4353 9.20832 17.3347 9.27551 17.25 9.36021L16.05 10.5502L14.21 8.72021L12.92 10.0002L14.76 11.8202L12.92 13.6502L14.24 15.0002L16.08 13.1102L17.28 14.3102C17.4545 14.4748 17.6852 14.5664 17.925 14.5664Z" fill="black"/>
</svg>
