<svg width="24" height="24" viewBox="0 0 24 24" fill="none" xmlns="http://www.w3.org/2000/svg">
<path fill-rule="evenodd" clip-rule="evenodd" d="M14.2584 1.35156C14.8251 1.58685 15.3391 1.93314 15.7699 2.37007C16.1924 2.80753 16.524 3.32444 16.7454 3.89088C16.9668 4.45732 17.0737 5.06204 17.0599 5.67007V10.8601C17.0582 11.8071 16.771 12.7317 16.2358 13.513C15.7007 14.2944 14.9424 14.8962 14.0599 15.2401C13.0076 15.6264 11.8523 15.6264 10.7999 15.2401C9.91749 14.8962 9.1592 14.2944 8.62403 13.513C8.08886 12.7317 7.80166 11.8071 7.79993 10.8601V5.67007C7.79993 4.43151 8.29194 3.24367 9.16774 2.36788C10.0435 1.49208 11.2314 1.00007 12.4699 1.00007C13.0836 0.99677 13.6916 1.11628 14.2584 1.35156ZM10.497 4.3546C10.2347 4.7434 10.093 5.20104 10.0899 5.67007V10.8701C10.0962 11.3528 10.2473 11.8225 10.5237 12.2183C10.8001 12.6141 11.1889 12.9178 11.6399 13.0901C12.177 13.2799 12.7629 13.2799 13.2999 13.0901C13.7509 12.9178 14.1398 12.6141 14.4162 12.2183C14.6925 11.8225 14.8436 11.3528 14.8499 10.8701V5.68007C14.8451 5.0501 14.5939 4.44705 14.1499 4.00007C13.8177 3.66897 13.3951 3.44343 12.9351 3.35175C12.4751 3.26007 11.9983 3.30634 11.5645 3.48477C11.1307 3.66319 10.7594 3.9658 10.497 4.3546ZM18.8 16.2001L18.94 16.0001L17.11 14.6001L16.97 14.8001C16.2988 15.6312 15.3981 16.2467 14.38 16.5701C13.1366 16.9602 11.8034 16.9602 10.56 16.5701C9.54185 16.2467 8.6412 15.6312 7.97 14.8001L7.83 14.6001L6 16.0001L6.14 16.1601C7.0923 17.3725 8.3891 18.2684 9.86 18.7301C10.338 18.873 10.826 18.98 11.32 19.0501V23.0001H13.62V19.0901C14.114 19.02 14.602 18.913 15.08 18.7701C16.5509 18.3084 17.8477 17.4125 18.8 16.2001Z" fill="black"/>
</svg>
