<?xml version="1.0" encoding="UTF-8" standalone="no"?>
<svg
   xmlns:dc="http://purl.org/dc/elements/1.1/"
   xmlns:cc="http://creativecommons.org/ns#"
   xmlns:rdf="http://www.w3.org/1999/02/22-rdf-syntax-ns#"
   xmlns:svg="http://www.w3.org/2000/svg"
   xmlns="http://www.w3.org/2000/svg"
   xmlns:sodipodi="http://sodipodi.sourceforge.net/DTD/sodipodi-0.dtd"
   xmlns:inkscape="http://www.inkscape.org/namespaces/inkscape"
   width="24"
   height="24"
   viewBox="0 0 24 24"
   fill="none"
   version="1.1"
   id="svg6"
   sodipodi:docname="in-olho-cortado.svg"
   inkscape:version="1.0.2 (e86c870879, 2021-01-15)">
  <metadata
     id="metadata12">
    <rdf:RDF>
      <cc:Work
         rdf:about="">
        <dc:format>image/svg+xml</dc:format>
        <dc:type
           rdf:resource="http://purl.org/dc/dcmitype/StillImage" />
      </cc:Work>
    </rdf:RDF>
  </metadata>
  <defs
     id="defs10" />
  <sodipodi:namedview
     pagecolor="#ffffff"
     bordercolor="#666666"
     borderopacity="1"
     objecttolerance="10"
     gridtolerance="10"
     guidetolerance="10"
     inkscape:pageopacity="0"
     inkscape:pageshadow="2"
     inkscape:window-width="1920"
     inkscape:window-height="1016"
     id="namedview8"
     showgrid="false"
     inkscape:zoom="8.3333333"
     inkscape:cx="-5.9860781"
     inkscape:cy="11.798398"
     inkscape:window-x="0"
     inkscape:window-y="0"
     inkscape:window-maximized="1"
     inkscape:current-layer="svg6" />
  <path
     id="path2"
     d="M 1.9160156 1 C 1.6868494 1 1.4587256 1.0920571 1.2753906 1.2753906 C 0.90872362 1.6420606 0.90872363 2.1919337 1.2753906 2.5585938 L 5.2207031 6.5039062 C 3.5011852 7.9371277 2.1238047 9.6357337 1.0917969 11.541016 C 1.0001269 11.816016 1.0001269 12.092187 1.0917969 12.367188 C 1.2751269 12.733787 5.125 20.25 12 20.25 C 13.931154 20.25 15.790148 19.683336 17.332031 18.615234 L 21.441406 22.724609 C 21.624706 22.907909 21.808984 23 22.083984 23 C 22.358984 23 22.541309 22.907909 22.724609 22.724609 C 23.091309 22.357909 23.091309 21.808006 22.724609 21.441406 L 18.144531 16.861328 L 18.142578 16.857422 C 18.139541 16.853374 18.133985 16.851637 18.130859 16.847656 L 14.761719 13.478516 C 14.716044 13.37655 14.6528 13.2778 14.566406 13.191406 C 14.480028 13.105028 14.383178 13.043731 14.28125 12.998047 L 10.916016 9.6328125 C 10.870258 9.5285726 10.804928 9.429942 10.716797 9.3417969 C 10.630379 9.2553864 10.531666 9.1921674 10.429688 9.1464844 L 7.3242188 6.0410156 L 2.5585938 1.2753906 C 2.3752637 1.0920571 2.1451819 1 1.9160156 1 z M 12 3.75 C 11.2667 3.75 10.534081 3.8420606 9.8007812 4.0253906 C 9.3424512 4.1170606 8.9748731 4.66667 9.1582031 5.125 C 9.3415431 5.58333 9.7995125 5.8574219 10.257812 5.8574219 C 10.807812 5.7657619 11.45 5.6757812 12 5.6757812 C 16.95 5.6757812 20.249219 10.625097 21.074219 12.091797 C 20.615919 12.916797 20.067481 13.649513 19.425781 14.382812 C 19.059081 14.749513 19.150878 15.299316 19.517578 15.666016 C 19.609178 15.757616 19.883006 15.849609 20.066406 15.849609 C 20.341406 15.849609 20.617481 15.757519 20.800781 15.574219 C 21.625781 14.565919 22.358203 13.558984 22.908203 12.458984 C 22.999903 12.183984 22.999903 11.907813 22.908203 11.632812 C 22.724903 11.266213 18.875 3.75 12 3.75 z M 6.5371094 7.8203125 L 8.8007812 10.083984 C 8.4028412 10.70407 8.2421875 11.417476 8.2421875 12.183594 C 8.3338475 13.191994 8.7002637 14.1083 9.4335938 14.75 C 10.075264 15.3917 10.991603 15.757812 11.908203 15.757812 C 12.596851 15.757812 13.275827 15.529159 13.847656 15.130859 L 15.990234 17.273438 C 14.784349 18.001407 13.393866 18.416016 12 18.416016 C 7.05 18.416016 3.7507813 13.4667 2.9257812 12 C 3.8914992 10.390499 5.0854475 9.0059325 6.5371094 7.8203125 z M 10.191406 11.474609 L 12.435547 13.71875 C 11.851951 13.882678 11.189578 13.756049 10.716797 13.283203 C 10.350097 12.916603 10.166016 12.4583 10.166016 12 C 10.130472 11.822361 10.149653 11.646927 10.191406 11.474609 z "
     style="fill:#000000" />
</svg>
