<svg width="24" height="24" viewBox="0 0 24 24" fill="none" xmlns="http://www.w3.org/2000/svg">
<path fill-rule="evenodd" clip-rule="evenodd" d="M19.61 8.49701C20.7491 9.5216 21.7719 10.6685 22.66 11.917L23 12.417L22.66 12.927C21.7649 14.1669 20.7427 15.3097 19.61 16.337C18.6042 17.2713 17.4815 18.0713 16.27 18.717C14.9582 19.4302 13.493 19.8145 12 19.837C10.507 19.8145 9.04179 19.4302 7.73 18.717C6.51853 18.0713 5.39585 17.2713 4.39 16.337C3.25712 15.3099 2.23488 14.167 1.34 12.927L1 12.417L1.39 11.917C2.26118 10.6701 3.26727 9.52321 4.39 8.49701C5.38912 7.5545 6.51295 6.75368 7.73 6.11701C9.03399 5.38466 10.5044 5 12 5C13.4956 5 14.966 5.38466 16.27 6.11701C17.4857 6.75581 18.6093 7.55643 19.61 8.49701ZM18.4 15.047C19.2787 14.2395 20.0882 13.3597 20.82 12.417C20.0934 11.4699 19.2835 10.5897 18.4 9.78701C16.88 8.42701 14.54 6.78701 12 6.78701C9.46 6.78701 7.12 8.41701 5.6 9.78701C4.71646 10.5897 3.90656 11.4699 3.18 12.417C3.91181 13.3597 4.72131 14.2395 5.6 15.047C7.12 16.407 9.46 18.047 12 18.047C14.54 18.047 16.88 16.417 18.4 15.047ZM10.2278 9.7646C10.7524 9.41408 11.3691 9.22699 12.0001 9.22699C12.8461 9.22699 13.6575 9.56308 14.2557 10.1613C14.854 10.7596 15.1901 11.5709 15.1901 12.417C15.1901 13.0479 15.003 13.6647 14.6524 14.1893C14.3019 14.7139 13.8037 15.1227 13.2208 15.3642C12.6379 15.6056 11.9965 15.6688 11.3777 15.5457C10.7589 15.4226 10.1905 15.1188 9.74439 14.6727C9.29826 14.2265 8.99444 13.6581 8.87136 13.0393C8.74827 12.4205 8.81144 11.7791 9.05288 11.1962C9.29433 10.6133 9.7032 10.1151 10.2278 9.7646ZM10.9445 13.9968C11.2569 14.2056 11.6243 14.317 12.0001 14.317C12.5032 14.3144 12.9849 14.1133 13.3407 13.7576C13.6964 13.4018 13.8974 12.9201 13.9001 12.417C13.9001 12.0412 13.7886 11.6739 13.5799 11.3614C13.3711 11.049 13.0743 10.8054 12.7272 10.6616C12.38 10.5178 11.998 10.4802 11.6294 10.5535C11.2608 10.6268 10.9223 10.8078 10.6566 11.0735C10.3908 11.3392 10.2099 11.6778 10.1366 12.0463C10.0633 12.4149 10.1009 12.7969 10.2447 13.1441C10.3885 13.4913 10.632 13.788 10.9445 13.9968Z" fill="black"/>
</svg>
