<svg width="24" height="24" viewBox="0 0 24 24" fill="none" xmlns="http://www.w3.org/2000/svg">
<path fill-rule="evenodd" clip-rule="evenodd" d="M18.23 6.58L17.87 6.93L12.75 1.8L13.1 1.45C13.2373 1.30751 13.402 1.19421 13.5841 1.11688C13.7662 1.03956 13.9621 0.999804 14.16 1C14.5622 1.00254 14.9469 1.16436 15.23 1.45L18.23 4.45C18.5091 4.73422 18.6655 5.11665 18.6655 5.515C18.6655 5.91335 18.5091 6.29578 18.23 6.58ZM10.13 14.68L9.48 15.33C9.27316 15.5293 8.99717 15.6405 8.71 15.6405C8.42283 15.6405 8.14684 15.5293 7.94 15.33L4.35 11.73C4.24625 11.6376 4.1619 11.5254 4.10182 11.4001C4.04174 11.2748 4.00713 11.1388 4 11C4.00095 10.8562 4.03063 10.714 4.0873 10.5817C4.14397 10.4495 4.22648 10.3299 4.33 10.23L5 9.55005L10.13 14.68ZM21.8301 20.1801L22.3501 19.6501C22.4683 19.5329 22.5621 19.3935 22.6262 19.2399C22.6902 19.0863 22.7232 18.9215 22.7232 18.7551C22.7232 18.5887 22.6902 18.4239 22.6262 18.2703C22.5621 18.1167 22.4683 17.9772 22.3501 17.8601L15.1001 10.6001L13.6801 12.0001L21.8301 20.1801ZM13.92 17.4099H3.80002C3.46306 17.4112 3.12971 17.4795 2.8194 17.6108C2.50909 17.7422 2.22802 17.934 1.99256 18.175C1.75709 18.4161 1.57195 18.7015 1.4479 19.0149C1.32385 19.3282 1.26339 19.663 1.27002 19.9999V22.9999H16.46V19.9999C16.4667 19.6622 16.4059 19.3265 16.2812 19.0125C16.1566 18.6986 15.9705 18.4126 15.734 18.1715C15.4975 17.9303 15.2152 17.7387 14.9037 17.6079C14.5923 17.4772 14.2578 17.4098 13.92 17.4099ZM14.45 20.9999H3.27002V19.4099H14.45V20.9999ZM6.13 9.08008L12.13 3.08008L16.59 7.54008L10.59 13.5401L6.13 9.08008ZM9 9.06008L10.62 10.6801L13.68 7.64008L13.78 7.54008L12.14 5.91008L9 9.06008Z" fill="black"/>
</svg>
