<?xml version="1.0" encoding="UTF-8" standalone="no"?>
<!-- Created with Inkscape (http://www.inkscape.org/) -->

<svg
   width="297mm"
   height="210mm"
   viewBox="0 0 297 210"
   version="1.1"
   id="svg5"
   inkscape:version="1.1 (c4e8f9e, 2021-05-24)"
   sodipodi:docname="in-presente.svg"
   xmlns:inkscape="http://www.inkscape.org/namespaces/inkscape"
   xmlns:sodipodi="http://sodipodi.sourceforge.net/DTD/sodipodi-0.dtd"
   xmlns="http://www.w3.org/2000/svg"
   xmlns:svg="http://www.w3.org/2000/svg">
  <sodipodi:namedview
     id="namedview7"
     pagecolor="#ffffff"
     bordercolor="#999999"
     borderopacity="1"
     inkscape:pageshadow="0"
     inkscape:pageopacity="0"
     inkscape:pagecheckerboard="0"
     inkscape:document-units="mm"
     showgrid="false"
     inkscape:zoom="0.7500982"
     inkscape:cx="740.5697"
     inkscape:cy="427.94397"
     inkscape:window-width="1440"
     inkscape:window-height="900"
     inkscape:window-x="0"
     inkscape:window-y="0"
     inkscape:window-maximized="0"
     inkscape:current-layer="layer1" />
  <defs
     id="defs2" />
  <g
     inkscape:label="Camada 1"
     inkscape:groupmode="layer"
     id="layer1">
    <path
       id="rect78"
       style="fill:#000000;fill-opacity:1;fill-rule:evenodd;stroke-width:2.96351"
       d="m 105.02317,5.4792535 c -8.191931,0.04649 -16.05072,2.7133735 -22.69409,9.2522325 -5.934459,5.84139 -8.741414,13.032919 -9.217083,20.824878 -0.436548,7.149983 1.58371,10.550042 2.953227,14.936035 H 55.556828 c -4.811905,0 -8.683813,3.877825 -8.683813,8.689708 v 45.493603 c 0,4.81188 3.871908,8.68974 8.683813,8.68974 h 9.533438 v 81.46542 c 0,4.84719 3.872021,8.75418 8.683926,8.75418 H 218.53456 c 4.81179,0 8.6897,-3.90699 8.6897,-8.75418 v -81.46542 h 9.37538 c 4.81179,0 8.68382,-3.87786 8.68382,-8.68974 V 59.182107 c 0,-4.811883 -3.87203,-8.689708 -8.68382,-8.689708 h -20.34443 c 1.36974,-4.385993 3.38943,-7.786052 2.95322,-14.936035 -0.4751,-7.791959 -3.28251,-14.983488 -9.21708,-20.824878 -6.64349,-6.538859 -14.50217,-9.2057311 -22.69409,-9.2522325 -11.99274,-0.069168 -19.71524,4.0602698 -26.50273,9.2815445 -7.30772,5.621301 -11.06499,12.389671 -14.6372,18.832603 -3.57189,-6.442184 -7.32462,-13.212017 -14.63132,-18.832603 -6.7876,-5.2212747 -14.5101,-9.3507235 -26.50284,-9.2815445 z m 0.24039,17.9419755 c 6.29617,0.05556 12.16679,2.88534 17.16851,7.758067 6.03969,5.883865 11.53159,19.289642 11.53159,19.289642 H 104.2909 c 0,0 -5.091971,-0.271227 -8.883149,-3.837992 -2.58165,-2.428937 -3.917716,-6.276284 -3.978606,-9.791343 -0.0567,-3.138879 1.066993,-6.567933 3.246224,-8.859645 2.63188,-2.767528 6.737261,-4.592723 10.588191,-4.558729 z m 81.79354,0 c 3.85093,-0.03402 7.95631,1.791201 10.5883,4.558729 2.17934,2.291712 3.3028,5.720766 3.24622,8.859645 -0.0566,3.515059 -1.39706,7.362406 -3.97872,9.791343 -3.79117,3.566754 -8.88303,3.837992 -8.88303,3.837992 h -29.67865 c 0,0 5.4978,-13.405777 11.53737,-19.289642 5.00161,-4.872727 10.87234,-7.702507 17.16851,-7.758067 z M 65.160795,68.469502 H 137.20988 V 95.405897 H 65.160795 Z m 89.955875,0.06464 h 72.0492 v 26.936373 h -72.0492 z M 83.161358,113.45348 h 54.118822 v 72.01984 H 83.161358 Z m 71.879122,0 h 54.12482 v 72.01984 h -54.12482 z" />
  </g>
</svg>
