<?xml version="1.0" encoding="UTF-8" standalone="no"?>
<svg
   xmlns:dc="http://purl.org/dc/elements/1.1/"
   xmlns:cc="http://creativecommons.org/ns#"
   xmlns:rdf="http://www.w3.org/1999/02/22-rdf-syntax-ns#"
   xmlns:svg="http://www.w3.org/2000/svg"
   xmlns="http://www.w3.org/2000/svg"
   xmlns:sodipodi="http://sodipodi.sourceforge.net/DTD/sodipodi-0.dtd"
   xmlns:inkscape="http://www.inkscape.org/namespaces/inkscape"
   width="24"
   height="24"
   viewBox="0 0 24 24"
   fill="none"
   version="1.1"
   id="svg6"
   sodipodi:docname="in-pause.svg"
   inkscape:version="1.0.2 (e86c870879, 2021-01-15)">
  <metadata
     id="metadata12">
    <rdf:RDF>
      <cc:Work
         rdf:about="">
        <dc:format>image/svg+xml</dc:format>
        <dc:type
           rdf:resource="http://purl.org/dc/dcmitype/StillImage" />
      </cc:Work>
    </rdf:RDF>
  </metadata>
  <defs
     id="defs10" />
  <sodipodi:namedview
     pagecolor="#ffffff"
     bordercolor="#666666"
     borderopacity="1"
     objecttolerance="10"
     gridtolerance="10"
     guidetolerance="10"
     inkscape:pageopacity="0"
     inkscape:pageshadow="2"
     inkscape:window-width="1920"
     inkscape:window-height="1016"
     id="namedview8"
     showgrid="false"
     inkscape:zoom="33.333333"
     inkscape:cx="12"
     inkscape:cy="12"
     inkscape:window-x="0"
     inkscape:window-y="0"
     inkscape:window-maximized="1"
     inkscape:current-layer="svg6" />
  <path
     id="path2"
     d="M 6.8886719 4 C 6.3977519 4 6 4.3977519 6 4.8886719 L 6 19.111328 C 6 19.602228 6.3977519 20 6.8886719 20 L 10.445312 20 C 10.936312 20 11.333984 19.602228 11.333984 19.111328 L 11.333984 4.8886719 C 11.333984 4.3977519 10.936312 4 10.445312 4 L 6.8886719 4 z M 14 4 C 13.5091 4 13.111328 4.3977519 13.111328 4.8886719 L 13.111328 19.111328 C 13.111328 19.602228 13.5091 20 14 20 L 17.554688 20 C 18.045588 20 18.445312 19.602228 18.445312 19.111328 L 18.445312 4.8886719 C 18.445312 4.3977519 18.045588 4 17.554688 4 L 14 4 z M 7.7773438 5.7773438 L 9.5546875 5.7773438 L 9.5546875 18.222656 L 7.7773438 18.222656 L 7.7773438 5.7773438 z M 14.888672 5.7773438 L 16.666016 5.7773438 L 16.666016 18.222656 L 14.888672 18.222656 L 14.888672 5.7773438 z "
     style="fill:#000000" />
</svg>
