<svg width="24" height="24" viewBox="0 0 24 24" fill="none" xmlns="http://www.w3.org/2000/svg">
<path fill-rule="evenodd" clip-rule="evenodd" d="M13.2376 2.00006C13.6968 2.00006 13.7682 2.4231 13.7177 2.82765L12 9H17.8296C18.1859 9 18.4471 9.23948 18.5351 9.42739C18.6863 9.7501 18.7632 10.375 18.5351 10.6488L11.6751 21.6695C11.4141 21.9827 10.9779 22.0863 10.6039 21.924C10.2299 21.7617 10.0077 21.3722 10.0583 20.9676L10.8476 13.7344H5.91843C5.56208 13.7344 5.23789 13.5283 5.08674 13.2056C4.97656 12.9704 5.08678 12.4437 5.2129 12.2281L7.72729 2C8.8541 2.00005 13.2376 2.00006 13.2376 2.00006ZM7.00003 12H11.5C11.7634 12 12.0142 12.1131 12.1885 12.3106C12.3628 12.5081 12.444 12.7709 12.4113 13.0323L11.5 19L17 10.5H11C10.7366 10.5 10.5262 10.4373 10.3519 10.2398C10.1776 10.0423 10.0964 9.77947 10.1291 9.51808L12 3.5H9.00003L7.00003 12Z" fill="black"/>
</svg>
