<?xml version="1.0" encoding="UTF-8" standalone="no"?>
<svg
   width="24"
   height="24"
   viewBox="0 0 24 24"
   fill="none"
   version="1.1"
   id="svg392"
   sodipodi:docname="in-sino.svg"
   inkscape:version="1.1 (1:1.1+202105261517+ce6663b3b7)"
   xmlns:inkscape="http://www.inkscape.org/namespaces/inkscape"
   xmlns:sodipodi="http://sodipodi.sourceforge.net/DTD/sodipodi-0.dtd"
   xmlns="http://www.w3.org/2000/svg"
   xmlns:svg="http://www.w3.org/2000/svg">
  <defs
     id="defs396" />
  <sodipodi:namedview
     id="namedview394"
     pagecolor="#ffffff"
     bordercolor="#666666"
     borderopacity="1.0"
     inkscape:pageshadow="2"
     inkscape:pageopacity="0.0"
     inkscape:pagecheckerboard="0"
     showgrid="false"
     showguides="true"
     inkscape:guide-bbox="true"
     inkscape:zoom="16"
     inkscape:cx="12.84375"
     inkscape:cy="16.40625"
     inkscape:window-width="1920"
     inkscape:window-height="1014"
     inkscape:window-x="0"
     inkscape:window-y="0"
     inkscape:window-maximized="1"
     inkscape:current-layer="svg392">
    <sodipodi:guide
       position="16.263915,19.242107"
       orientation="0,-1"
       id="guide5012" />
    <sodipodi:guide
       position="5.9927273,15.010909"
       orientation="0,-1"
       id="guide5052" />
    <sodipodi:guide
       position="5.9927273,10.007273"
       orientation="0,-1"
       id="guide5054" />
  </sodipodi:namedview>
  <path
     id="path390"
     style="fill:#000000"
     d="M 12 1 C 9.87827 1 7.84404 1.84345 6.34375 3.34375 C 4.84346 4.84404 4 6.87827 4 9 L 4 14 C 4 14.5304 3.7891425 15.038964 3.4140625 15.414062 C 3.0389925 15.789164 2.53043 16 2 16 L 2 18 L 22 18 C 22.5523 18 23 17.5523 23 17 C 23 16.4477 22.5523 16 22 16 C 21.4696 16 20.961037 15.789164 20.585938 15.414062 C 20.210838 15.038963 20 14.5304 20 14 L 20 9 C 20 6.87827 19.15645 4.84404 17.65625 3.34375 C 16.15595 1.84345 14.1217 1 12 1 z M 12 3 C 14.286617 3.038684 15.60327 4.1624141 16.263672 4.7578125 C 17.301138 5.8763549 18.021775 7.2647442 17.998047 8.9882812 L 18 13.992188 C 18.023398 14.789816 18.210198 15.451724 18.535156 16 L 5.4648438 16 C 5.7684659 15.510776 5.9781114 14.890149 5.9921875 13.992188 L 5.9921875 8.9882812 C 6.0575322 7.624951 6.312179 6.2453659 7.7578125 4.7578125 C 9.0294658 3.4761371 10.472907 3.0339105 12 3 z M 13.759766 20 C 13.405024 19.990086 13.055741 20.169628 12.865234 20.498047 C 12.777334 20.649647 12.6518 20.775881 12.5 20.863281 C 12.3482 20.950681 12.1752 20.996094 12 20.996094 C 11.8248 20.996094 11.6518 20.950681 11.5 20.863281 C 11.3482 20.775881 11.222666 20.649647 11.134766 20.498047 C 10.961578 20.199484 10.658156 20.023924 10.337891 20.001953 C 10.145732 19.988771 9.9467419 20.030853 9.7675781 20.134766 C 9.2898481 20.411866 9.1271769 21.024153 9.4042969 21.501953 C 9.6680169 21.956553 10.046453 22.333303 10.501953 22.595703 C 10.957353 22.858003 11.4744 22.996094 12 22.996094 C 12.5256 22.996094 13.042647 22.858003 13.498047 22.595703 C 13.953547 22.333303 14.332003 21.956553 14.595703 21.501953 C 14.872803 21.024153 14.710122 20.411866 14.232422 20.134766 C 14.083109 20.048172 13.921012 20.004506 13.759766 20 z " />
</svg>
