<?xml version="1.0" encoding="UTF-8" standalone="no"?>
<svg
   xmlns:dc="http://purl.org/dc/elements/1.1/"
   xmlns:cc="http://creativecommons.org/ns#"
   xmlns:rdf="http://www.w3.org/1999/02/22-rdf-syntax-ns#"
   xmlns:svg="http://www.w3.org/2000/svg"
   xmlns="http://www.w3.org/2000/svg"
   xmlns:sodipodi="http://sodipodi.sourceforge.net/DTD/sodipodi-0.dtd"
   xmlns:inkscape="http://www.inkscape.org/namespaces/inkscape"
   width="24"
   height="24"
   viewBox="0 0 24 24"
   fill="none"
   version="1.1"
   id="svg8"
   sodipodi:docname="in-ticket-color.svg"
   inkscape:version="1.0.2 (e86c870879, 2021-01-15)">
  <metadata
     id="metadata14">
    <rdf:RDF>
      <cc:Work
         rdf:about="">
        <dc:format>image/svg+xml</dc:format>
        <dc:type
           rdf:resource="http://purl.org/dc/dcmitype/StillImage" />
      </cc:Work>
    </rdf:RDF>
  </metadata>
  <defs
     id="defs12" />
  <sodipodi:namedview
     pagecolor="#ffffff"
     bordercolor="#666666"
     borderopacity="1"
     objecttolerance="10"
     gridtolerance="10"
     guidetolerance="10"
     inkscape:pageopacity="0"
     inkscape:pageshadow="2"
     inkscape:window-width="1920"
     inkscape:window-height="1016"
     id="namedview10"
     showgrid="false"
     inkscape:zoom="33.333333"
     inkscape:cx="12"
     inkscape:cy="12"
     inkscape:window-x="0"
     inkscape:window-y="0"
     inkscape:window-maximized="1"
     inkscape:current-layer="svg8" />
  <path
     d="M22.0809 7.78195C21.4619 6.78046 20.6411 5.91884 19.6709 5.25195C17.4021 3.74029 14.7267 2.95547 12.0009 3.00195C9.27503 2.95547 6.59966 3.74029 4.33089 5.25195C3.36064 5.91884 2.53988 6.78046 1.92089 7.78195C1.31903 8.74813 1 9.86365 1 11.002C1 12.1403 1.31903 13.2558 1.92089 14.222C2.53628 15.223 3.35368 16.0847 4.32089 16.752L4.24089 21.182L10.4909 18.932C10.9894 18.9804 11.49 19.0038 11.9909 19.002C14.7167 19.0484 17.3921 18.2636 19.6609 16.752C20.6335 16.0878 21.4547 15.2256 22.0709 14.222C22.6716 13.2554 22.99 12.14 22.99 11.002C22.99 9.86389 22.6716 8.74853 22.0709 7.78195H22.0809ZM6.00089 18.792V15.852L5.88089 15.782C5.66089 15.652 5.47089 15.532 5.27089 15.392C5.07089 15.252 4.91089 15.132 4.74089 14.992C4.11413 14.5246 3.60013 13.9226 3.23671 13.2304C2.87329 12.5382 2.66969 11.7733 2.64089 10.992C2.69429 10.103 2.96352 9.24055 3.42526 8.47911C3.88701 7.71767 4.52736 7.08023 5.29089 6.62195C7.27644 5.30305 9.61772 4.62264 12.0009 4.67195C14.3894 4.6374 16.7311 5.33539 18.7109 6.67195C19.472 7.13352 20.1093 7.77356 20.5675 8.53671C21.0258 9.29987 21.2912 10.1632 21.3409 11.052C21.3318 11.887 21.0931 12.7035 20.6509 13.412C20.1504 14.2063 19.4896 14.8875 18.7109 15.412C16.7209 16.7191 14.3813 17.3921 12.0009 17.342H11.5409C11.1463 17.3322 10.7524 17.3022 10.3609 17.252H10.3009L6.00089 18.792Z"
     fill="#07272D"
     id="path2" />
  <path
     id="path4"
     d="M 10.730469 5.8925781 L 11.160156 12.761719 L 12.041016 12.761719 C 12.252816 12.762119 12.457028 12.682109 12.611328 12.537109 C 12.765628 12.392109 12.858394 12.193722 12.871094 11.982422 L 13.201172 6.7714844 C 13.208072 6.6583544 13.190944 6.5459931 13.152344 6.4394531 C 13.113744 6.3329031 13.054362 6.2347937 12.976562 6.1523438 C 12.898862 6.0699037 12.805272 6.0037844 12.701172 5.9589844 C 12.596972 5.9141744 12.484494 5.8923781 12.371094 5.8925781 L 10.730469 5.8925781 z M 12 13.455078 C 11.6556 13.455078 11.325178 13.590231 11.080078 13.832031 C 10.959078 13.952831 10.864328 14.096106 10.798828 14.253906 C 10.733328 14.411806 10.699219 14.581053 10.699219 14.751953 C 10.699219 14.922853 10.733328 15.0921 10.798828 15.25 C 10.864328 15.4079 10.959078 15.551175 11.080078 15.671875 C 11.200778 15.792875 11.344053 15.889578 11.501953 15.955078 C 11.659753 16.020478 11.8291 16.052734 12 16.052734 C 12.1709 16.052734 12.340247 16.020478 12.498047 15.955078 C 12.655947 15.889578 12.801075 15.792875 12.921875 15.671875 C 13.046075 15.551575 13.143584 15.406094 13.208984 15.246094 C 13.274384 15.085994 13.305181 14.915087 13.300781 14.742188 C 13.302381 14.572688 13.270378 14.404447 13.205078 14.248047 C 13.139778 14.091547 13.043575 13.950031 12.921875 13.832031 C 12.676675 13.590231 12.3443 13.455078 12 13.455078 z "
     style="fill:#00c65e;fill-opacity:1" />
</svg>
