<svg width="24" height="24" viewBox="0 0 24 24" fill="none" xmlns="http://www.w3.org/2000/svg">
<path fill-rule="evenodd" clip-rule="evenodd" d="M22.0809 7.78195C21.4619 6.78046 20.6411 5.91884 19.6709 5.25195C17.4021 3.74029 14.7267 2.95547 12.0009 3.00195C9.27503 2.95547 6.59966 3.74029 4.33089 5.25195C3.36064 5.91884 2.53988 6.78046 1.92089 7.78195C1.31903 8.74813 1 9.86365 1 11.002C1 12.1403 1.31903 13.2558 1.92089 14.222C2.53628 15.223 3.35368 16.0847 4.32089 16.752L4.24089 21.182L10.4909 18.932C10.9894 18.9804 11.49 19.0038 11.9909 19.002C14.7167 19.0484 17.3921 18.2636 19.6609 16.752C20.6335 16.0878 21.4547 15.2256 22.0709 14.222C22.6716 13.2554 22.99 12.14 22.99 11.002C22.99 9.86389 22.6716 8.74853 22.0709 7.78195H22.0809ZM6.00089 18.792V15.852L5.88089 15.782C5.66089 15.652 5.47089 15.532 5.27089 15.392C5.07089 15.252 4.91089 15.132 4.74089 14.992C4.11413 14.5246 3.60013 13.9226 3.23671 13.2304C2.87329 12.5382 2.66969 11.7733 2.64089 10.992C2.69429 10.103 2.96352 9.24055 3.42526 8.47911C3.88701 7.71767 4.52736 7.08023 5.29089 6.62195C7.27644 5.30305 9.61772 4.62264 12.0009 4.67195C14.3894 4.6374 16.7311 5.33539 18.7109 6.67195C19.472 7.13352 20.1093 7.77356 20.5675 8.53671C21.0258 9.29987 21.2912 10.1632 21.3409 11.052C21.3318 11.887 21.0931 12.7035 20.6509 13.412C20.1504 14.2063 19.4896 14.8875 18.7109 15.412C16.7209 16.7191 14.3813 17.3921 12.0009 17.342H11.5409C11.1463 17.3322 10.7524 17.3022 10.3609 17.252H10.3009L6.00089 18.792ZM13.3009 14.742C13.3053 14.9149 13.2738 15.0868 13.2084 15.2469C13.143 15.4069 13.0451 15.5517 12.9209 15.672C12.8001 15.793 12.6567 15.8889 12.4988 15.9544C12.341 16.0198 12.1718 16.0535 12.0009 16.0535C11.83 16.0535 11.6607 16.0198 11.5029 15.9544C11.345 15.8889 11.2016 15.793 11.0809 15.672C10.9599 15.5513 10.864 15.4079 10.7985 15.25C10.733 15.0921 10.6993 14.9229 10.6993 14.752C10.6993 14.5811 10.733 14.4119 10.7985 14.254C10.864 14.0962 10.9599 13.9528 11.0809 13.832C11.326 13.5902 11.6565 13.4546 12.0009 13.4546C12.3452 13.4546 12.6757 13.5902 12.9209 13.832C13.0426 13.95 13.1391 14.0915 13.2044 14.248C13.2697 14.4044 13.3025 14.5725 13.3009 14.742ZM12.8708 11.9821L13.2008 6.77209C13.2077 6.65896 13.1912 6.54563 13.1526 6.43909C13.114 6.33254 13.0539 6.23504 12.9761 6.1526C12.8984 6.07015 12.8046 6.0045 12.7005 5.9597C12.5963 5.91489 12.4842 5.89189 12.3708 5.89209H10.7308L11.1608 12.7621H12.0408C12.2526 12.7625 12.4564 12.6819 12.6107 12.5369C12.765 12.3919 12.8581 12.1934 12.8708 11.9821Z" fill="black"/>
</svg>
