<svg width="24" height="24" viewBox="0 0 24 24" fill="none" xmlns="http://www.w3.org/2000/svg">
<path fill-rule="evenodd" clip-rule="evenodd" d="M21.8731 2.25C22.2565 2.63148 22.4866 3.14027 22.52 3.68005L23 12.35C23.0109 12.655 22.9587 12.9589 22.8469 13.2428C22.7351 13.5267 22.5659 13.7845 22.35 14L13.25 22.87L11.72 21.34L13.25 19.87L20.88 12.5L20.4 3.73005L11.62 3.24005L2.49 12.1L1 10.61L10.09 1.78005C10.3084 1.56005 10.5713 1.38917 10.861 1.2788C11.1507 1.16844 11.4606 1.12114 11.77 1.14005L20.44 1.61005C20.9799 1.64083 21.4898 1.86851 21.8731 2.25ZM17.6058 9.2402C17.8106 8.93196 17.92 8.57011 17.92 8.20001C17.9201 7.94972 17.8702 7.70194 17.7732 7.4712C17.6762 7.24046 17.5342 7.03141 17.3553 6.8563C17.1765 6.68119 16.9645 6.54356 16.7318 6.45147C16.499 6.35937 16.2503 6.31468 16 6.32001C15.63 6.32788 15.2705 6.4448 14.9667 6.6561C14.6628 6.86741 14.4281 7.1637 14.2919 7.50784C14.1557 7.85199 14.1242 8.22867 14.2012 8.59068C14.2782 8.95269 14.4603 9.28392 14.7247 9.54286C14.9892 9.8018 15.3242 9.97692 15.6877 10.0463C16.0513 10.1156 16.4272 10.0761 16.7684 9.93275C17.1096 9.78935 17.4009 9.54844 17.6058 9.2402Z" fill="black"/>
</svg>
