<svg width="24" height="24" viewBox="0 0 24 24" fill="none" xmlns="http://www.w3.org/2000/svg">
<path fill-rule="evenodd" clip-rule="evenodd" d="M23.0004 7.31054V17.4905C23.0004 17.7947 22.9403 18.0959 22.8236 18.3769C22.7069 18.6578 22.5358 18.9129 22.3203 19.1275C22.1047 19.3421 21.8489 19.5121 21.5675 19.6276C21.286 19.7431 20.9846 19.8019 20.6804 19.8005H3.68038V18.2605H21.4504V6.55054H3.64038V5.00054H20.6404C20.9479 4.99388 21.2537 5.04871 21.5397 5.16182C21.8258 5.27492 22.0864 5.44402 22.3062 5.65919C22.526 5.87436 22.7007 6.13127 22.8199 6.41484C22.9391 6.69841 23.0005 7.00293 23.0004 7.31054ZM19.6008 10.2175C19.6401 10.1235 19.6603 10.0225 19.6603 9.92054C19.6603 9.71367 19.5781 9.51528 19.4319 9.369C19.2856 9.22272 19.0872 9.14054 18.8803 9.14054H10.7103V10.6905H18.8803C18.9823 10.6919 19.0835 10.6729 19.1781 10.6348C19.2726 10.5967 19.3587 10.5402 19.4313 10.4686C19.5038 10.3969 19.5615 10.3116 19.6008 10.2175ZM19.6604 12.5005C19.6604 12.7048 19.5793 12.9006 19.4349 13.045C19.2905 13.1894 19.0946 13.2705 18.8904 13.2705H12.8104V11.7305H18.8904C19.0938 11.7331 19.2882 11.8151 19.432 11.9589C19.5759 12.1028 19.6578 12.2971 19.6604 12.5005ZM19.6603 15.0905C19.6603 15.1925 19.6401 15.2935 19.6008 15.3875C19.5614 15.4816 19.5038 15.5669 19.4313 15.6386C19.3587 15.7102 19.2726 15.7667 19.1781 15.8048C19.0835 15.8429 18.9823 15.8619 18.8803 15.8605H14.2003V14.3105H18.8803C18.9827 14.3105 19.0842 14.3307 19.1788 14.3699C19.2734 14.4091 19.3594 14.4666 19.4319 14.539C19.5043 14.6114 19.5617 14.6974 19.6009 14.792C19.6401 14.8867 19.6603 14.9881 19.6603 15.0905ZM6.32033 12.4005C6.5938 12.5357 6.82796 12.7389 7.00033 12.9905C7.14484 13.2533 7.21405 13.5509 7.20033 13.8505C7.21505 14.2023 7.12452 14.5505 6.94033 14.8505C6.7698 15.1218 6.53659 15.3482 6.26033 15.5105C5.95083 15.6949 5.61292 15.8267 5.26033 15.9005C5.00802 15.963 4.75004 15.9999 4.49032 16.0105V17.4005H3.66033V16.0105C3.40289 16.0033 3.14746 15.963 2.90033 15.8905C2.54598 15.8121 2.20773 15.6734 1.90033 15.4805C1.6302 15.3128 1.40394 15.0832 1.24033 14.8105C1.0771 14.5282 0.994109 14.2066 1.00033 13.8805V13.7005H2.44033V13.8405C2.43667 13.994 2.47837 14.1451 2.56019 14.2749C2.64202 14.4048 2.76033 14.5076 2.90033 14.5705C3.13238 14.6951 3.38778 14.77 3.65033 14.7905V12.8505C3.37298 12.8016 3.09907 12.7348 2.83033 12.6505C2.52134 12.5592 2.22553 12.4281 1.95033 12.2605C1.69715 12.1106 1.48434 11.9012 1.33033 11.6505C1.1712 11.3852 1.09138 11.0798 1.10033 10.7705C1.08826 10.3572 1.2309 9.95424 1.50033 9.64054C1.78674 9.30961 2.16128 9.06685 2.58033 8.94054C2.92531 8.81709 3.28509 8.73975 3.65033 8.71054V7.51054H4.48033V8.71054C4.8474 8.74045 5.208 8.8247 5.55033 8.96054C5.97251 9.10757 6.35083 9.35864 6.65033 9.69054C6.92654 10.0245 7.07222 10.4473 7.06033 10.8805V11.0005H5.62033V10.9005C5.62588 10.6907 5.55071 10.4867 5.41033 10.3305C5.24182 10.1817 5.04435 10.0694 4.83033 10.0005L4.48033 9.92054V11.7905C4.76825 11.8445 5.04808 11.9147 5.33438 11.9865C5.36627 11.9945 5.39825 12.0025 5.43033 12.0105C5.74174 12.1039 6.04061 12.2349 6.32033 12.4005ZM3.46033 11.5505L3.70033 11.6105V9.92054L3.41033 9.97054C3.19148 10.0108 2.98563 10.1035 2.81033 10.2405C2.73333 10.2941 2.67102 10.3661 2.62908 10.4499C2.58715 10.5338 2.56695 10.6268 2.57033 10.7205C2.56557 10.8201 2.58491 10.9194 2.62669 11.0099C2.66847 11.1004 2.73146 11.1795 2.81033 11.2405C3.00486 11.385 3.22562 11.4903 3.46033 11.5505ZM5.00033 14.7305C5.21619 14.6847 5.41828 14.5888 5.59033 14.4505H5.54033C5.62438 14.3965 5.69387 14.3227 5.74269 14.2355C5.79152 14.1483 5.81818 14.0504 5.82033 13.9505C5.82401 13.7996 5.78078 13.6512 5.6966 13.5258C5.61243 13.4005 5.49145 13.3043 5.35033 13.2505C5.08247 13.1529 4.80856 13.0727 4.53033 13.0105V14.8105C4.68924 14.7993 4.84666 14.7725 5.00033 14.7305Z" fill="black"/>
</svg>
