<?xml version="1.0" encoding="UTF-8" standalone="no"?>
<svg
   xmlns:dc="http://purl.org/dc/elements/1.1/"
   xmlns:cc="http://creativecommons.org/ns#"
   xmlns:rdf="http://www.w3.org/1999/02/22-rdf-syntax-ns#"
   xmlns:svg="http://www.w3.org/2000/svg"
   xmlns="http://www.w3.org/2000/svg"
   xmlns:sodipodi="http://sodipodi.sourceforge.net/DTD/sodipodi-0.dtd"
   xmlns:inkscape="http://www.inkscape.org/namespaces/inkscape"
   width="24"
   height="24"
   viewBox="0 0 24 24"
   fill="none"
   version="1.1"
   id="svg8"
   sodipodi:docname="in-upload.svg"
   inkscape:version="1.0.2 (e86c870879, 2021-01-15)">
  <metadata
     id="metadata14">
    <rdf:RDF>
      <cc:Work
         rdf:about="">
        <dc:format>image/svg+xml</dc:format>
        <dc:type
           rdf:resource="http://purl.org/dc/dcmitype/StillImage" />
      </cc:Work>
    </rdf:RDF>
  </metadata>
  <defs
     id="defs12" />
  <sodipodi:namedview
     pagecolor="#ffffff"
     bordercolor="#666666"
     borderopacity="1"
     objecttolerance="10"
     gridtolerance="10"
     guidetolerance="10"
     inkscape:pageopacity="0"
     inkscape:pageshadow="2"
     inkscape:window-width="1920"
     inkscape:window-height="1016"
     id="namedview10"
     showgrid="false"
     inkscape:zoom="16.666667"
     inkscape:cx="12.401429"
     inkscape:cy="14.035773"
     inkscape:window-x="0"
     inkscape:window-y="0"
     inkscape:window-maximized="1"
     inkscape:current-layer="svg8" />
  <path
     id="path2"
     d="M 12 2 C 11.868895 2 11.738182 2.0268829 11.615234 2.078125 C 11.494208 2.1287752 11.384324 2.2016122 11.292969 2.2929688 L 6.2929688 7.2929688 C 5.9024487 7.6834987 5.9024488 8.3165012 6.2929688 8.7070312 C 6.6834987 9.0975513 7.3165012 9.0975513 7.7070312 8.7070312 L 11 5.4140625 L 11 15 C 11 15.5523 11.4477 16 12 16 C 12.5523 16 13 15.5523 13 15 L 13 5.4140625 L 16.292969 8.7070312 C 16.683469 9.0975513 17.316531 9.0975513 17.707031 8.7070312 C 18.097531 8.3165012 18.097531 7.6834988 17.707031 7.2929688 L 12.707031 2.2929688 C 12.615676 2.2016122 12.505792 2.1287752 12.384766 2.078125 C 12.261818 2.0268829 12.131105 2 12 2 z M 3 14 C 2.44772 14 2 14.4477 2 15 L 2 19 C 2 19.7957 2.3162962 20.558494 2.8789062 21.121094 C 3.4415162 21.683694 4.20435 22 5 22 L 19 22 C 19.7957 22 20.558494 21.683694 21.121094 21.121094 C 21.683694 20.558494 22 19.7957 22 19 L 22 15 C 22 14.4477 21.5523 14 21 14 C 20.4477 14 20 14.4477 20 15 L 20 19 C 20 19.2652 19.894531 19.519531 19.707031 19.707031 C 19.519531 19.894531 19.2652 20 19 20 L 5 20 C 4.73478 20 4.4805088 19.894531 4.2929688 19.707031 C 4.1054388 19.519531 4 19.2652 4 19 L 4 15 C 4 14.4477 3.55228 14 3 14 z "
     style="fill:#000000" />
</svg>
