<svg width="24" height="24" viewBox="0 0 24 24" fill="none" xmlns="http://www.w3.org/2000/svg">
<path d="M19.09 15.2695C18.1067 14.2998 16.9455 13.5291 15.67 12.9995C16.7796 12.149 17.5949 10.9721 18.0012 9.63437C18.4076 8.29661 18.3846 6.86516 17.9355 5.54113C17.4864 4.2171 16.6338 3.06704 15.4974 2.25254C14.3611 1.43803 12.9981 1 11.6 1C10.2019 1 8.83891 1.43803 7.70256 2.25254C6.5662 3.06704 5.71359 4.2171 5.26451 5.54113C4.81543 6.86516 4.79244 8.29661 5.19879 9.63437C5.60513 10.9721 6.42038 12.149 7.53 12.9995C6.25209 13.538 5.09067 14.3191 4.11 15.2995C3.12451 16.2759 2.34226 17.4379 1.80846 18.7183C1.27466 19.9988 0.999879 21.3723 1 22.7595V22.9995H3.22V22.7595C3.22 20.537 4.10289 18.4055 5.67445 16.834C7.246 15.2624 9.37749 14.3795 11.6 14.3795C13.8225 14.3795 15.954 15.2624 17.5256 16.834C19.0971 18.4055 19.98 20.537 19.98 22.7595V22.9995H22.2V22.7595C22.2041 21.3672 21.9312 19.988 21.3973 18.7022C20.8634 17.4163 20.0791 16.2495 19.09 15.2695ZM7.09 7.67954C7.09003 6.79717 7.35122 5.93454 7.84064 5.20035C8.33007 4.46615 9.02584 3.89323 9.84029 3.55376C10.6548 3.21429 11.5515 3.12347 12.4174 3.29273C13.2834 3.46199 14.08 3.88376 14.7067 4.5049C15.3334 5.12605 15.7622 5.91878 15.9392 6.78322C16.1161 7.64767 16.0333 8.54515 15.7011 9.3626C15.3689 10.18 14.8022 10.8809 14.0724 11.3768C13.3426 11.8728 12.4823 12.1416 11.6 12.1495C10.4145 12.1495 9.27752 11.6786 8.43923 10.8403C7.60094 10.002 7.13 8.86506 7.13 7.67954H7.09Z" fill="black"/>
</svg>
